<svg width="40" height="40" viewBox="0 0 40 40" fill="none" xmlns="http://www.w3.org/2000/svg">
<path fill-rule="evenodd" clip-rule="evenodd" d="M0 4C0 1.79086 1.79086 0 4 0H36C38.2091 0 40 1.79086 40 4V36C40 38.2091 38.2091 40 36 40H4C1.79086 40 0 38.2091 0 36V4ZM32 12C32 13.6569 30.6569 15 29 15C27.3431 15 26 13.6569 26 12C26 10.3431 27.3431 9 29 9C30.6569 9 32 10.3431 32 12ZM12.4436 16.3374C13.6901 14.5542 16.3099 14.5542 17.5564 16.3374L24.7233 26.5901L27.3647 22.8469C28.1615 21.7177 29.8361 21.7177 30.6329 22.8469L36.3001 30.878C37.235 32.2029 36.2875 34.0311 34.666 34.0311H23.3316C23.2074 34.0311 23.0872 34.0204 22.9714 34H6.13428C3.5976 34 2.11533 31.1127 3.57786 29.0205L12.4436 16.3374Z" fill="#CBCBCB"/>
</svg>
