<svg width="37" height="52" viewBox="0 0 37 52" fill="none" xmlns="http://www.w3.org/2000/svg">
<path fill-rule="evenodd" clip-rule="evenodd" d="M4.67578 49.2952C5.30396 50.6817 6.69991 51.6462 8.32115 51.6462H32.3211C34.5303 51.6462 36.3211 49.8553 36.3211 47.6462V7.64618C36.3211 6.02425 35.3558 4.62779 33.9683 4C34.1961 4.50279 34.323 5.06107 34.323 5.64898V45.649C34.323 47.8581 32.5321 49.649 30.323 49.649H6.32296C5.73576 49.649 5.1781 49.5224 4.67578 49.2952Z" fill="#B3B3B3"/>
<path d="M0.675781 4C0.675781 1.79086 2.46664 0 4.67578 0H28.6758C30.8849 0 32.6758 1.79086 32.6758 4V32H0.675781V4Z" fill="#D8D8D8"/>
<path d="M0.675781 32H32.6758V44C32.6758 46.2091 30.8849 48 28.6758 48H4.67578C2.46664 48 0.675781 46.2091 0.675781 44V32Z" fill="#F2F2F2"/>
<rect x="4.67578" y="37" width="24" height="2" fill="#D8D8D8"/>
<rect x="4.67578" y="41" width="16" height="2" fill="#D8D8D8"/>
</svg>
