<svg xmlns="http://www.w3.org/2000/svg" width="180" height="28" viewBox="0 0 180 28" fill="none">
  <path d="M70.9994 3.53516C69.6395 3.53516 68.5352 4.63952 68.5352 5.99031C68.5352 7.34111 69.6395 8.44547 70.9994 8.44547C72.3594 8.44547 73.4637 7.34111 73.4637 5.99031C73.4637 4.63952 72.3594 3.53516 70.9994 3.53516ZM70.9994 6.98516C70.4518 6.98516 70.0046 6.53793 70.0046 5.99031C70.0046 5.4427 70.4518 4.99547 70.9994 4.99547C71.5471 4.99547 71.9943 5.4427 71.9943 5.99031C71.9943 6.53793 71.5471 6.98516 70.9994 6.98516Z" fill="white"/>
  <path d="M18.145 9.64844C15.3338 9.64844 13.043 11.9393 13.043 14.7413C13.043 17.5433 15.3338 19.8342 18.145 19.8342C20.9561 19.8342 23.2469 17.5433 23.2469 14.7413C23.2469 11.9393 20.9561 9.64844 18.145 9.64844ZM18.145 17.9996C16.3469 17.9996 14.8866 16.5393 14.8866 14.7413C14.8866 12.9433 16.3469 11.483 18.145 11.483C19.943 11.483 21.4033 12.9433 21.4033 14.7413C21.4033 16.5393 19.943 17.9996 18.145 17.9996Z" fill="white"/>
  <path d="M59.5976 13.3814V9.64844H57.7539V19.8433H59.5976V18.9215C59.5976 14.8234 62.9289 11.4921 67.036 11.4921V9.64844C63.9968 9.64844 61.2952 11.1179 59.5976 13.3814Z" fill="white"/>
  <path d="M38.6146 9.64844C36.8896 9.64844 35.3563 10.5155 34.4345 11.8298C33.5127 10.5155 31.9885 9.64844 30.2543 9.64844C29.0131 9.64844 27.8813 10.0957 26.996 10.8258V9.64844H25.1523V19.8433H26.996V14.7413C26.996 12.9433 28.4563 11.483 30.2543 11.483C32.0523 11.483 33.5127 12.9433 33.5127 14.7413V19.8433H35.3563V14.7413C35.3563 12.9433 36.8166 11.483 38.6146 11.483C40.4127 11.483 41.873 12.9433 41.873 14.7413V19.8433H43.7166V14.7413C43.7166 11.9302 41.4258 9.64844 38.6146 9.64844Z" fill="white"/>
  <path d="M83.2549 14.7491C83.2549 16.5471 81.7945 18.0074 79.9965 18.0074C78.1985 18.0074 76.7382 16.5471 76.7382 14.7491V9.65625H74.8945V14.7491C74.8945 17.5602 77.1854 19.842 79.9965 19.842C82.8076 19.842 85.0985 17.5511 85.0985 14.7491V9.65625H83.2549V14.7491Z" fill="white"/>
  <path d="M100.478 9.76562C98.7529 9.76562 97.2196 10.6327 96.2978 11.947C95.3759 10.6327 93.8426 9.76562 92.1176 9.76562C90.8855 9.76562 89.7446 10.2128 88.8593 10.943V9.76562H87.0156V19.9605H88.8593V14.8585C88.8593 13.0605 90.3196 11.6001 92.1176 11.6001C93.9156 11.6001 95.3759 13.0605 95.3759 14.8585V19.9605H97.2196V14.8585C97.2196 13.0605 98.6799 11.6001 100.478 11.6001C102.276 11.6001 103.736 13.0605 103.736 14.8585V19.9605H105.58V14.8585C105.58 12.0474 103.289 9.76562 100.478 9.76562Z" fill="white"/>
  <path d="M71.8944 9.64844H70.0508V19.8433H71.8944V9.64844Z" fill="white"/>
  <path d="M6.02381 9.64844C4.29881 9.64844 2.76548 10.5155 1.84365 11.8298V9.64844H0V21.7417H1.84365V17.6619C2.76548 18.9762 4.29881 19.8433 6.02381 19.8433C8.83492 19.8433 11.1258 17.5524 11.1258 14.7504C11.1258 11.9484 8.83492 9.65756 6.02381 9.65756V9.64844ZM6.02381 17.9996C4.22579 17.9996 2.76548 16.5393 2.76548 14.7413C2.76548 12.9433 4.22579 11.483 6.02381 11.483C7.82182 11.483 9.28214 12.9433 9.28214 14.7413C9.28214 16.5393 7.82182 17.9996 6.02381 17.9996Z" fill="white"/>
  <path d="M50.7361 17.9983C49.2849 17.9983 48.0619 17.0491 47.6329 15.7439H55.7286C55.7925 15.4245 55.829 15.0868 55.829 14.7491C55.829 11.938 53.5381 9.65625 50.727 9.65625C47.9159 9.65625 45.625 11.9471 45.625 14.7491C45.625 17.5511 47.9159 19.842 50.727 19.842C52.8627 19.842 54.6881 18.5277 55.4548 16.6658H53.3556C52.7623 17.4781 51.804 17.9983 50.727 17.9983H50.7361ZM50.7361 11.4908C52.2421 11.4908 53.5016 12.513 53.8758 13.9003H47.5964C47.9706 12.513 49.2393 11.4908 50.7361 11.4908Z" fill="white"/>
  <path d="M106.485 27.192L116.013 13.9031L112.098 8.42696H112.107H114.836H114.845L117.373 11.9865L119.117 9.53132L121.188 6.60156H118.989L117.382 8.8468L115.785 6.60156H108.557L113.777 13.9031L104.258 27.192H106.485Z" fill="url(#paint0_linear_993_26133)"/>
  <path d="M128.026 0.648438L120.277 11.7012L118.726 13.9008L122.605 19.377H122.596H119.931H119.921L117.375 15.8357L113.523 21.2024H115.787L117.384 18.948L118.991 21.2024H126.137L120.962 13.9008L130.271 0.648438H128.026Z" fill="url(#paint1_linear_993_26133)"/>
  <path d="M136.336 18.1238C136.403 18.0904 136.503 18.0737 136.637 18.0737C136.771 18.0737 136.888 18.1294 136.988 18.2409C137.088 18.3412 137.139 18.4582 137.139 18.5919C137.139 18.8371 137.033 19.0154 136.821 19.1268C136.397 19.372 135.941 19.5726 135.45 19.7286C134.971 19.8846 134.386 19.9627 133.695 19.9627C133.015 19.9627 132.38 19.8512 131.789 19.6283C131.21 19.4054 130.708 19.0823 130.285 18.6588C129.371 17.7672 128.914 16.5636 128.914 15.048C128.914 13.5435 129.371 12.34 130.285 11.4373C131.165 10.568 132.308 10.1334 133.712 10.1334C134.391 10.1334 134.971 10.217 135.45 10.3841C135.941 10.5513 136.314 10.7073 136.57 10.8522C136.827 10.9859 136.983 11.0974 137.038 11.1865C137.105 11.2645 137.139 11.3704 137.139 11.5041C137.139 11.6379 137.088 11.7605 136.988 11.8719C136.888 11.9722 136.771 12.0223 136.637 12.0223C136.514 12.0223 136.414 12.0056 136.336 11.9722C135.968 11.7716 135.589 11.6156 135.199 11.5041C134.821 11.3815 134.347 11.3203 133.779 11.3203C133.21 11.3203 132.692 11.4206 132.224 11.6212C131.767 11.8106 131.383 12.0725 131.07 12.4068C130.458 13.0755 130.157 13.9559 130.168 15.048C130.168 16.1402 130.469 17.0206 131.07 17.6892C131.739 18.4136 132.659 18.7758 133.829 18.7758C134.364 18.7758 134.821 18.7201 135.199 18.6086C135.589 18.486 135.968 18.3244 136.336 18.1238Z" fill="white"/>
  <path d="M141.853 12.7077C142.911 12.7077 143.764 13.042 144.41 13.7107C145.057 14.3905 145.369 15.2653 145.346 16.3352C145.346 17.4162 145.034 18.291 144.41 18.9597C143.764 19.6283 142.911 19.9627 141.853 19.9627C140.783 19.9627 139.936 19.6283 139.312 18.9597C138.665 18.291 138.342 17.4162 138.342 16.3352C138.342 15.243 138.665 14.3682 139.312 13.7107C139.936 13.042 140.783 12.7077 141.853 12.7077ZM140.315 18.2743C140.538 18.4637 140.783 18.6031 141.05 18.6922C141.329 18.7814 141.596 18.8259 141.853 18.8259C142.109 18.8259 142.371 18.7814 142.638 18.6922C142.906 18.6031 143.151 18.4582 143.374 18.2576C143.864 17.8118 144.109 17.1654 144.109 16.3185C144.109 15.4938 143.864 14.853 143.374 14.3961C142.961 14.0172 142.454 13.8333 141.853 13.8444C140.861 13.8444 140.175 14.2902 139.796 15.1818C139.663 15.5049 139.596 15.8894 139.596 16.3352C139.596 16.781 139.663 17.1654 139.796 17.4886C139.93 17.8118 140.103 18.0737 140.315 18.2743Z" fill="white"/>
  <path d="M150.579 13.8612C149.776 13.8612 149.024 14.3014 148.322 15.1818V19.2773C148.322 19.4444 148.261 19.5893 148.138 19.7119C148.015 19.8345 147.871 19.8958 147.703 19.8958C147.536 19.8958 147.391 19.8345 147.269 19.7119C147.146 19.5893 147.085 19.4444 147.085 19.2773V13.4098C147.085 13.2315 147.141 13.0811 147.252 12.9585C147.375 12.8359 147.525 12.7746 147.703 12.7746C147.871 12.7746 148.015 12.8359 148.138 12.9585C148.261 13.0699 148.322 13.2204 148.322 13.4098V13.9782C148.69 13.5993 149.007 13.3262 149.275 13.1591C149.787 12.8582 150.278 12.7077 150.746 12.7077C151.225 12.7077 151.615 12.7802 151.916 12.925C152.217 13.0588 152.473 13.2538 152.685 13.5101C153.108 14.0116 153.32 14.6357 153.32 15.3823V19.2773C153.32 19.4444 153.259 19.5893 153.136 19.7119C153.014 19.8345 152.869 19.8958 152.702 19.8958C152.534 19.8958 152.39 19.8345 152.267 19.7119C152.144 19.5893 152.083 19.4444 152.083 19.2773V15.5161C152.083 15.0034 151.966 14.6022 151.732 14.3125C151.498 14.0116 151.113 13.8612 150.579 13.8612Z" fill="white"/>
  <path d="M157.633 18.8092C158.647 18.8092 159.149 18.4916 159.137 17.8564C159.137 17.6558 159.037 17.4998 158.836 17.3883C158.636 17.2769 158.385 17.1822 158.084 17.1041C157.783 17.0261 157.455 16.9426 157.098 16.8534C156.741 16.7642 156.407 16.6417 156.095 16.4856C155.783 16.3296 155.527 16.129 155.326 15.8838C155.125 15.6275 155.025 15.3155 155.025 14.9477C155.025 14.58 155.081 14.2679 155.192 14.0116C155.304 13.7441 155.471 13.5157 155.694 13.3262C156.173 12.9139 156.842 12.7077 157.7 12.7077C158.391 12.7077 159.054 12.8192 159.689 13.042C159.812 13.0866 159.906 13.1646 159.973 13.2761C160.051 13.3764 160.09 13.4878 160.09 13.6104C160.09 13.7218 160.035 13.8333 159.923 13.9447C159.823 14.0562 159.722 14.1119 159.622 14.1119C159.522 14.1119 159.399 14.0896 159.254 14.045C158.82 13.9113 158.341 13.8444 157.817 13.8444C157.293 13.8444 156.897 13.9336 156.63 14.1119C156.362 14.2902 156.229 14.5131 156.229 14.7806C156.229 15.0369 156.329 15.2263 156.53 15.3489C156.73 15.4604 156.981 15.5607 157.282 15.6498C157.594 15.739 157.928 15.8225 158.285 15.9006C158.653 15.9786 158.987 16.0956 159.288 16.2516C160.001 16.6194 160.358 17.1822 160.358 17.94C160.358 18.5306 160.135 19.0042 159.689 19.3609C159.221 19.7621 158.558 19.9627 157.7 19.9627C156.786 19.9627 155.961 19.7565 155.226 19.3441C155.07 19.2327 154.986 19.099 154.975 18.943C154.975 18.7758 155.025 18.6365 155.125 18.525C155.237 18.4025 155.348 18.3412 155.46 18.3412C155.571 18.3412 155.716 18.3802 155.894 18.4582C156.418 18.6922 156.998 18.8092 157.633 18.8092Z" fill="white"/>
  <path d="M165.038 12.7077C166.097 12.7077 166.95 13.042 167.596 13.7107C168.242 14.3905 168.554 15.2653 168.532 16.3352C168.532 17.4162 168.22 18.291 167.596 18.9597C166.95 19.6283 166.097 19.9627 165.038 19.9627C163.968 19.9627 163.121 19.6283 162.497 18.9597C161.851 18.291 161.528 17.4162 161.528 16.3352C161.528 15.243 161.851 14.3682 162.497 13.7107C163.121 13.042 163.968 12.7077 165.038 12.7077ZM163.5 18.2743C163.723 18.4637 163.968 18.6031 164.236 18.6922C164.515 18.7814 164.782 18.8259 165.038 18.8259C165.295 18.8259 165.557 18.7814 165.824 18.6922C166.091 18.6031 166.337 18.4582 166.559 18.2576C167.05 17.8118 167.295 17.1654 167.295 16.3185C167.295 15.4938 167.05 14.853 166.559 14.3961C166.147 14.0172 165.64 13.8333 165.038 13.8444C164.046 13.8444 163.361 14.2902 162.982 15.1818C162.848 15.5049 162.782 15.8894 162.782 16.3352C162.782 16.781 162.848 17.1654 162.982 17.4886C163.116 17.8118 163.289 18.0737 163.5 18.2743Z" fill="white"/>
  <path d="M170.371 10.3841C170.371 10.2058 170.432 10.0609 170.555 9.94951C170.677 9.82692 170.828 9.76562 171.006 9.76562C171.184 9.76562 171.329 9.82692 171.441 9.94951C171.563 10.0609 171.625 10.2058 171.625 10.3841V19.2773C171.625 19.4444 171.563 19.5893 171.441 19.7119C171.329 19.8345 171.184 19.8958 171.006 19.8958C170.828 19.8958 170.677 19.8345 170.555 19.7119C170.432 19.5893 170.371 19.4444 170.371 19.2773V10.3841Z" fill="white"/>
  <path d="M174.717 16.7865C174.795 17.3995 175.029 17.8898 175.419 18.2576C175.82 18.6142 176.366 18.7925 177.057 18.7925C177.76 18.7925 178.356 18.6811 178.846 18.4582C179.002 18.3802 179.141 18.3412 179.264 18.3412C179.387 18.33 179.498 18.3746 179.598 18.4749C179.71 18.5752 179.765 18.6866 179.765 18.8092C179.765 19.0544 179.665 19.2271 179.465 19.3274C179.275 19.4277 179.102 19.5169 178.946 19.5949C178.79 19.6729 178.623 19.7398 178.445 19.7955C178.033 19.9069 177.553 19.9627 177.007 19.9627C175.882 19.9627 175.007 19.6506 174.383 19.0265C173.77 18.3913 173.463 17.4942 173.463 16.3352C173.463 15.3322 173.725 14.4964 174.249 13.8277C174.84 13.0811 175.67 12.7077 176.74 12.7077C177.765 12.7077 178.573 13.0532 179.164 13.7441C179.721 14.3905 180 15.1985 180 16.168C180 16.3352 179.938 16.4801 179.816 16.6026C179.704 16.7252 179.559 16.7865 179.381 16.7865H174.717ZM176.74 13.7609C175.926 13.7609 175.336 14.123 174.968 14.8474C174.834 15.1037 174.751 15.4102 174.717 15.7668H178.762C178.729 15.1205 178.489 14.6078 178.044 14.2289C177.687 13.9169 177.252 13.7609 176.74 13.7609Z" fill="white"/>
  <defs>
    <linearGradient id="paint0_linear_993_26133" x1="103.099" y1="21.4968" x2="127.833" y2="-4.22305" gradientUnits="userSpaceOnUse">
      <stop stop-color="#875FFB"/>
      <stop offset="1" stop-color="white"/>
    </linearGradient>
    <linearGradient id="paint1_linear_993_26133" x1="110.283" y1="28.3945" x2="135.017" y2="2.67463" gradientUnits="userSpaceOnUse">
      <stop stop-color="#875FFB"/>
      <stop offset="1" stop-color="white"/>
    </linearGradient>
  </defs>
</svg>