<svg xmlns="http://www.w3.org/2000/svg" width="140" height="14" viewBox="0 0 140 14" fill="none">
  <path d="M13.7132 0H11.999V11.1424H13.7132V0Z" fill="white"/>
  <path d="M5.65604 1.71094C4.03491 1.71094 2.599 2.52101 1.73178 3.75801V1.71094H0V13.0675H1.73178V9.23569C2.599 10.4727 4.03491 11.2827 5.65604 11.2827C8.29626 11.2827 10.4449 9.13541 10.4449 6.49681C10.4449 3.85829 8.29626 1.71094 5.65604 1.71094ZM5.65604 9.55453C3.97054 9.55453 2.59643 8.18385 2.59643 6.49681C2.59643 4.80985 3.96797 3.43908 5.65604 3.43908C7.34411 3.43908 8.71565 4.80985 8.71565 6.49681C8.71565 8.18385 7.34411 9.55453 5.65604 9.55453Z" fill="white"/>
  <path d="M20.217 11.3594C21.8381 11.3594 23.274 10.5493 24.1413 9.3123L24.1413 11.3594L25.873 11.3594L25.873 1.71706L24.1413 1.71706L24.1413 3.83462C23.274 2.59765 21.8381 1.7876 20.217 1.7876C17.5768 1.7876 15.4281 3.93491 15.4281 6.5735C15.4281 9.21202 17.5768 11.3594 20.217 11.3594ZM20.217 3.51578C21.9025 3.51578 23.2766 4.88646 23.2766 6.5735C23.2766 8.26046 21.9051 9.63123 20.217 9.63123C18.5289 9.63123 17.1574 8.26046 17.1574 6.5735C17.1574 4.88646 18.5289 3.51578 20.217 3.51578Z" fill="white"/>
  <path d="M53.0359 1.71094C50.3957 1.71094 48.2471 3.85829 48.2471 6.49681C48.2471 9.13541 50.3957 11.2827 53.0359 11.2827C55.6761 11.2827 57.8248 9.13541 57.8248 6.49681C57.8248 3.85829 55.6761 1.71094 53.0359 1.71094ZM53.0359 9.55453C51.3504 9.55453 49.9763 8.18385 49.9763 6.49681C49.9763 4.80985 51.3478 3.43908 53.0359 3.43908C54.724 3.43908 56.0929 4.80985 56.0929 6.49681C56.0929 8.18385 54.7214 9.55453 53.0359 9.55453Z" fill="white"/>
  <path d="M72.2639 1.71094C70.6427 1.71094 69.2069 2.52101 68.3397 3.75801C67.4725 2.52101 66.0391 1.71094 64.4154 1.71094C63.2523 1.71094 62.1869 2.12755 61.3558 2.81676V1.71094H59.624V11.2853H61.3558V6.49681C61.3558 4.81242 62.7273 3.43908 64.4154 3.43908C66.1035 3.43908 67.4724 4.80985 67.4724 6.49681V11.2853H69.2043V6.49681C69.2043 4.81242 70.5759 3.43908 72.2639 3.43908C73.952 3.43908 75.3235 4.80985 75.3235 6.49681V11.2853H77.0553V6.49681C77.0553 3.8583 74.9066 1.71094 72.2665 1.71094H72.2639Z" fill="white"/>
  <path d="M41.6541 1.71094C40.033 1.71094 38.597 2.52101 37.7298 3.75801V1.71094H35.998V13.0675H37.7298V9.23569C38.597 10.4727 40.033 11.2827 41.6541 11.2827C44.2943 11.2827 46.443 9.13541 46.443 6.49681C46.443 3.85829 44.2943 1.71094 41.6541 1.71094ZM41.6541 9.55453C39.9686 9.55453 38.5945 8.18385 38.5945 6.49681C38.5945 4.80985 39.966 3.43908 41.6541 3.43908C43.3422 3.43908 44.7137 4.80985 44.7137 6.49681C44.7137 8.18385 43.3422 9.55453 41.6541 9.55453Z" fill="white"/>
  <path d="M83.6453 9.55196C82.2867 9.55196 81.1312 8.65963 80.735 7.43294H88.3415C88.4007 7.12944 88.4342 6.81574 88.4342 6.49681C88.4342 3.85829 86.2855 1.71094 83.6453 1.71094C81.0051 1.71094 78.8564 3.85829 78.8564 6.49681C78.8564 9.13541 81.0051 11.2827 83.6453 11.2827C85.6473 11.2827 87.3663 10.0457 88.0816 8.29699H86.1131C85.5573 9.05827 84.6592 9.55196 83.6453 9.55196ZM83.6453 3.43908C85.058 3.43908 86.2444 4.40093 86.5943 5.70219H80.6937C81.0438 4.40093 82.2326 3.43908 83.6453 3.43908Z" fill="white"/>
  <path fill-rule="evenodd" clip-rule="evenodd" d="M34.2846 11.2752V9.54409C31.7304 9.39725 31.7304 8.08897 31.7304 6.50008V3.42841H34.2846V1.7142L31.7304 1.7142V0H29.9991V1.7142L27.4277 1.7142L27.4277 3.42841H29.9991V6.50008C29.9991 9.03014 30.5162 11.1085 34.2846 11.2752Z" fill="white"/>
  <path d="M99.7768 9.53565C99.8384 9.50486 99.9308 9.48946 100.054 9.48946C100.177 9.48946 100.285 9.54079 100.377 9.64345C100.47 9.73585 100.516 9.84364 100.516 9.96684C100.516 10.1927 100.418 10.357 100.223 10.4596C99.8333 10.6855 99.4123 10.8703 98.9606 11.014C98.5192 11.1577 97.9802 11.2296 97.3437 11.2296C96.7174 11.2296 96.1323 11.1269 95.5882 10.9216C95.0543 10.7163 94.5923 10.4186 94.2022 10.0284C93.3604 9.20713 92.9395 8.09837 92.9395 6.70216C92.9395 5.31621 93.3604 4.20745 94.2022 3.37588C95.0132 2.57511 96.0655 2.17473 97.3591 2.17473C97.9853 2.17473 98.5192 2.25172 98.9606 2.40572C99.4123 2.55971 99.7563 2.70344 99.9924 2.8369C100.229 2.9601 100.372 3.06276 100.424 3.14489C100.485 3.21675 100.516 3.31428 100.516 3.43748C100.516 3.56067 100.47 3.6736 100.377 3.77627C100.285 3.86866 100.177 3.91486 100.054 3.91486C99.9411 3.91486 99.8487 3.89946 99.7768 3.86866C99.438 3.68387 99.089 3.54014 98.7296 3.43748C98.3806 3.32455 97.9443 3.26808 97.4207 3.26808C96.8971 3.26808 96.4197 3.36048 95.9885 3.54527C95.5676 3.7198 95.2134 3.96106 94.926 4.26905C94.3613 4.88503 94.0841 5.69606 94.0944 6.70216C94.0944 7.70826 94.3716 8.51929 94.926 9.13527C95.542 9.80258 96.3889 10.1362 97.4669 10.1362C97.9597 10.1362 98.3806 10.0849 98.7296 9.98224C99.089 9.86931 99.438 9.72045 99.7768 9.53565Z" fill="url(#paint0_linear_277_14822)"/>
  <path d="M104.859 4.54624C105.834 4.54624 106.619 4.85423 107.215 5.4702C107.81 6.09645 108.098 6.90235 108.077 7.88792C108.077 8.88375 107.79 9.68965 107.215 10.3056C106.619 10.9216 105.834 11.2296 104.859 11.2296C103.873 11.2296 103.093 10.9216 102.518 10.3056C101.922 9.68965 101.625 8.88375 101.625 7.88792C101.625 6.88182 101.922 6.07592 102.518 5.4702C103.093 4.85423 103.873 4.54624 104.859 4.54624ZM103.442 9.67425C103.647 9.84878 103.873 9.97711 104.119 10.0592C104.376 10.1414 104.622 10.1824 104.859 10.1824C105.095 10.1824 105.336 10.1414 105.582 10.0592C105.829 9.97711 106.055 9.84364 106.26 9.65885C106.712 9.2482 106.938 8.65275 106.938 7.87252C106.938 7.11281 106.712 6.5225 106.26 6.10158C105.88 5.75253 105.413 5.58313 104.859 5.5934C103.945 5.5934 103.314 6.00405 102.964 6.82535C102.841 7.12308 102.78 7.47726 102.78 7.88792C102.78 8.29857 102.841 8.65275 102.964 8.95048C103.088 9.2482 103.247 9.48946 103.442 9.67425Z" fill="url(#paint1_linear_277_14822)"/>
  <path d="M112.897 5.6088C112.158 5.6088 111.465 6.01432 110.818 6.82535V10.5982C110.818 10.7522 110.762 10.8857 110.649 10.9986C110.536 11.1115 110.402 11.168 110.248 11.168C110.094 11.168 109.961 11.1115 109.848 10.9986C109.735 10.8857 109.679 10.7522 109.679 10.5982V5.19301C109.679 5.02875 109.73 4.89016 109.833 4.77723C109.946 4.6643 110.084 4.60784 110.248 4.60784C110.402 4.60784 110.536 4.6643 110.649 4.77723C110.762 4.87989 110.818 5.01849 110.818 5.19301V5.71659C111.157 5.36754 111.45 5.11602 111.696 4.96202C112.168 4.68483 112.62 4.54624 113.051 4.54624C113.493 4.54624 113.852 4.61297 114.129 4.74643C114.406 4.86963 114.642 5.04929 114.837 5.28541C115.228 5.74739 115.423 6.32231 115.423 7.01015V10.5982C115.423 10.7522 115.366 10.8857 115.253 10.9986C115.14 11.1115 115.007 11.168 114.853 11.168C114.699 11.168 114.565 11.1115 114.452 10.9986C114.34 10.8857 114.283 10.7522 114.283 10.5982V7.13334C114.283 6.66109 114.175 6.29151 113.96 6.02458C113.744 5.74739 113.39 5.6088 112.897 5.6088Z" fill="url(#paint2_linear_277_14822)"/>
  <path d="M119.396 10.167C120.33 10.167 120.792 9.87444 120.782 9.28926C120.782 9.10447 120.689 8.96074 120.504 8.85808C120.32 8.75542 120.089 8.66815 119.811 8.59629C119.534 8.52443 119.231 8.44743 118.903 8.3653C118.574 8.28317 118.266 8.17024 117.979 8.02651C117.691 7.88278 117.455 7.69799 117.271 7.47213C117.086 7.23601 116.993 6.94855 116.993 6.60976C116.993 6.27097 117.045 5.98352 117.147 5.74739C117.25 5.501 117.404 5.29054 117.609 5.11602C118.051 4.73616 118.667 4.54624 119.457 4.54624C120.094 4.54624 120.705 4.6489 121.29 4.85423C121.403 4.89529 121.49 4.96716 121.552 5.06982C121.623 5.16222 121.659 5.26488 121.659 5.37781C121.659 5.48047 121.608 5.58313 121.505 5.6858C121.413 5.78846 121.321 5.83979 121.228 5.83979C121.136 5.83979 121.023 5.81926 120.889 5.77819C120.489 5.655 120.048 5.5934 119.565 5.5934C119.083 5.5934 118.718 5.67553 118.472 5.83979C118.225 6.00405 118.102 6.20938 118.102 6.45577C118.102 6.69189 118.195 6.86642 118.379 6.97935C118.564 7.08201 118.795 7.17441 119.072 7.25654C119.36 7.33867 119.668 7.41567 119.996 7.48753C120.335 7.55939 120.643 7.66719 120.92 7.81092C121.577 8.14971 121.906 8.66815 121.906 9.36626C121.906 9.91037 121.7 10.3467 121.29 10.6752C120.859 11.0448 120.248 11.2296 119.457 11.2296C118.615 11.2296 117.856 11.0397 117.178 10.6598C117.034 10.5572 116.957 10.434 116.947 10.2902C116.947 10.1362 116.993 10.0079 117.086 9.90524C117.188 9.79231 117.291 9.73585 117.394 9.73585C117.496 9.73585 117.63 9.77178 117.794 9.84364C118.277 10.0592 118.81 10.167 119.396 10.167Z" fill="url(#paint3_linear_277_14822)"/>
  <path d="M126.218 4.54624C127.193 4.54624 127.978 4.85423 128.574 5.4702C129.169 6.09645 129.457 6.90235 129.436 7.88792C129.436 8.88375 129.149 9.68965 128.574 10.3056C127.978 10.9216 127.193 11.2296 126.218 11.2296C125.232 11.2296 124.452 10.9216 123.877 10.3056C123.281 9.68965 122.984 8.88375 122.984 7.88792C122.984 6.88182 123.281 6.07592 123.877 5.4702C124.452 4.85423 125.232 4.54624 126.218 4.54624ZM124.801 9.67425C125.006 9.84878 125.232 9.97711 125.478 10.0592C125.735 10.1414 125.982 10.1824 126.218 10.1824C126.454 10.1824 126.695 10.1414 126.941 10.0592C127.188 9.97711 127.414 9.84364 127.619 9.65885C128.071 9.2482 128.297 8.65275 128.297 7.87252C128.297 7.11281 128.071 6.5225 127.619 6.10158C127.239 5.75253 126.772 5.58313 126.218 5.5934C125.304 5.5934 124.673 6.00405 124.323 6.82535C124.2 7.12308 124.139 7.47726 124.139 7.88792C124.139 8.29857 124.2 8.65275 124.323 8.95048C124.447 9.2482 124.606 9.48946 124.801 9.67425Z" fill="url(#paint4_linear_277_14822)"/>
  <path d="M131.13 2.40572C131.13 2.24146 131.187 2.10799 131.299 2.00533C131.412 1.8924 131.551 1.83594 131.715 1.83594C131.879 1.83594 132.013 1.8924 132.116 2.00533C132.229 2.10799 132.285 2.24146 132.285 2.40572V10.5982C132.285 10.7522 132.229 10.8857 132.116 10.9986C132.013 11.1115 131.879 11.168 131.715 11.168C131.551 11.168 131.412 11.1115 131.299 10.9986C131.187 10.8857 131.13 10.7522 131.13 10.5982V2.40572Z" fill="url(#paint5_linear_277_14822)"/>
  <path d="M135.134 8.3037C135.206 8.86835 135.421 9.32006 135.781 9.65885C136.15 9.98737 136.653 10.1516 137.29 10.1516C137.937 10.1516 138.486 10.049 138.938 9.84364C139.081 9.77178 139.21 9.73585 139.323 9.73585C139.435 9.72558 139.538 9.76665 139.631 9.85904C139.733 9.95144 139.785 10.0541 139.785 10.167C139.785 10.3929 139.692 10.552 139.507 10.6444C139.333 10.7368 139.174 10.8189 139.03 10.8908C138.886 10.9627 138.732 11.0243 138.568 11.0756C138.188 11.1783 137.747 11.2296 137.244 11.2296C136.207 11.2296 135.401 10.9421 134.826 10.3672C134.261 9.78205 133.979 8.95561 133.979 7.88792C133.979 6.96395 134.22 6.19398 134.703 5.578C135.247 4.89016 136.012 4.54624 136.997 4.54624C137.942 4.54624 138.686 4.86449 139.23 5.501C139.743 6.09645 140 6.84075 140 7.73392C140 7.88792 139.944 8.02138 139.831 8.13431C139.728 8.24724 139.595 8.3037 139.43 8.3037H135.134ZM136.997 5.5164C136.248 5.5164 135.704 5.85006 135.365 6.51737C135.242 6.75349 135.165 7.03581 135.134 7.36433H138.861C138.83 6.76889 138.609 6.29664 138.198 5.94759C137.87 5.66013 137.469 5.5164 136.997 5.5164Z" fill="url(#paint6_linear_277_14822)"/>
  <defs>
    <linearGradient id="paint0_linear_277_14822" x1="140" y1="11.2296" x2="97.2362" y2="-7.81323" gradientUnits="userSpaceOnUse">
      <stop stop-color="#B224EF"/>
      <stop offset="1" stop-color="#7579FF"/>
    </linearGradient>
    <linearGradient id="paint1_linear_277_14822" x1="140" y1="11.2296" x2="97.2362" y2="-7.81323" gradientUnits="userSpaceOnUse">
      <stop stop-color="#B224EF"/>
      <stop offset="1" stop-color="#7579FF"/>
    </linearGradient>
    <linearGradient id="paint2_linear_277_14822" x1="140" y1="11.2296" x2="97.2362" y2="-7.81323" gradientUnits="userSpaceOnUse">
      <stop stop-color="#B224EF"/>
      <stop offset="1" stop-color="#7579FF"/>
    </linearGradient>
    <linearGradient id="paint3_linear_277_14822" x1="140" y1="11.2296" x2="97.2362" y2="-7.81323" gradientUnits="userSpaceOnUse">
      <stop stop-color="#B224EF"/>
      <stop offset="1" stop-color="#7579FF"/>
    </linearGradient>
    <linearGradient id="paint4_linear_277_14822" x1="140" y1="11.2296" x2="97.2362" y2="-7.81323" gradientUnits="userSpaceOnUse">
      <stop stop-color="#B224EF"/>
      <stop offset="1" stop-color="#7579FF"/>
    </linearGradient>
    <linearGradient id="paint5_linear_277_14822" x1="140" y1="11.2296" x2="97.2362" y2="-7.81323" gradientUnits="userSpaceOnUse">
      <stop stop-color="#B224EF"/>
      <stop offset="1" stop-color="#7579FF"/>
    </linearGradient>
    <linearGradient id="paint6_linear_277_14822" x1="140" y1="11.2296" x2="97.2362" y2="-7.81323" gradientUnits="userSpaceOnUse">
      <stop stop-color="#B224EF"/>
      <stop offset="1" stop-color="#7579FF"/>
    </linearGradient>
  </defs>
</svg>