<svg width="512" height="30" viewBox="0 0 512 30" fill="none" xmlns="http://www.w3.org/2000/svg">
<path d="M7.35938 23L0.890625 0.375H6.01562L9.82812 16.1875H10.0156L14.1719 0.375H18.5781L22.7344 16.2188H22.9219L26.7344 0.375H31.8594L25.3906 23H20.7969L16.4844 8.0625H16.2969L11.9531 23H7.35938ZM40.0156 23.3438C34.8281 23.3438 31.6406 19.9688 31.6406 14.5938C31.6406 9.34375 34.8594 5.8125 39.8281 5.8125C44.2969 5.8125 47.7969 8.625 47.7969 14.4062V15.7188H36.2031C36.2031 18.2812 37.7344 19.875 40.1094 19.875C41.6719 19.875 42.7969 19.1875 43.2656 18.1562H47.6719C47.0156 21.2812 44.2031 23.3438 40.0156 23.3438ZM36.2031 12.8125H43.4219C43.4219 10.75 41.9844 9.28125 39.9219 9.28125C37.7969 9.28125 36.2812 10.8594 36.2031 12.8125ZM55.3281 0.375V23H50.7031V0.375H55.3281ZM66.5469 23.3438C61.3594 23.3438 58.2344 19.75 58.2344 14.5625C58.2344 9.375 61.3906 5.8125 66.5469 5.8125C70.9219 5.8125 73.8906 8.375 74.0781 12.25H69.7344C69.4531 10.5625 68.3594 9.40625 66.6094 9.40625C64.3906 9.40625 62.9219 11.2812 62.9219 14.5C62.9219 17.7812 64.3594 19.6562 66.6094 19.6562C68.2344 19.6562 69.4531 18.6562 69.7344 16.8438H74.0781C73.8594 20.6875 71.0469 23.3438 66.5469 23.3438ZM84.5781 23.3438C79.4531 23.3438 76.2656 19.8125 76.2656 14.5625C76.2656 9.3125 79.4531 5.8125 84.5781 5.8125C89.7031 5.8125 92.9219 9.3125 92.9219 14.5625C92.9219 19.8125 89.7031 23.3438 84.5781 23.3438ZM84.6094 19.75C86.9844 19.75 88.2031 17.5312 88.2031 14.5625C88.2031 11.5625 86.9844 9.34375 84.6094 9.34375C82.2031 9.34375 80.9531 11.5625 80.9531 14.5625C80.9531 17.5312 82.2031 19.75 84.6094 19.75ZM95.8281 23V6.03125H100.234V9H100.422C101.141 7.03125 102.859 5.8125 105.141 5.8125C107.484 5.8125 109.203 7.03125 109.766 9H109.922C110.641 7.0625 112.547 5.8125 115.047 5.8125C118.203 5.8125 120.391 7.90625 120.391 11.5938V23H115.766V12.5C115.766 10.5625 114.641 9.625 113.109 9.625C111.359 9.625 110.359 10.8438 110.359 12.625V23H105.859V12.375C105.859 10.6875 104.797 9.625 103.234 9.625C101.672 9.625 100.453 10.875 100.453 12.8125V23H95.8281ZM131.641 23.3438C126.453 23.3438 123.266 19.9688 123.266 14.5938C123.266 9.34375 126.484 5.8125 131.453 5.8125C135.922 5.8125 139.422 8.625 139.422 14.4062V15.7188H127.828C127.828 18.2812 129.359 19.875 131.734 19.875C133.297 19.875 134.422 19.1875 134.891 18.1562H139.297C138.641 21.2812 135.828 23.3438 131.641 23.3438ZM127.828 12.8125H135.047C135.047 10.75 133.609 9.28125 131.547 9.28125C129.422 9.28125 127.906 10.8594 127.828 12.8125ZM158.641 6.03125V9.5H155.453V17.7812C155.453 19.125 156.109 19.4688 157.047 19.5C157.516 19.5 158.328 19.4688 158.891 19.4062V23.0625C158.391 23.1562 157.578 23.2188 156.422 23.2188C153.078 23.2188 150.797 21.7188 150.828 18.4375V9.5H148.484V6.03125H150.828V1.96875H155.453V6.03125H158.641ZM168.984 23.3438C163.859 23.3438 160.672 19.8125 160.672 14.5625C160.672 9.3125 163.859 5.8125 168.984 5.8125C174.109 5.8125 177.328 9.3125 177.328 14.5625C177.328 19.8125 174.109 23.3438 168.984 23.3438ZM169.016 19.75C171.391 19.75 172.609 17.5312 172.609 14.5625C172.609 11.5625 171.391 9.34375 169.016 9.34375C166.609 9.34375 165.359 11.5625 165.359 14.5625C165.359 17.5312 166.609 19.75 169.016 19.75ZM187.703 23V0.375H196.578C201.734 0.375 204.672 3.53125 204.672 8C204.672 12.5312 201.672 15.625 196.453 15.625H192.391V23H187.703ZM192.391 11.8438H195.703C198.484 11.8438 199.828 10.2812 199.828 8C199.828 5.75 198.484 4.21875 195.703 4.21875H192.391V11.8438ZM212.172 0.375V23H207.547V0.375H212.172ZM214.953 18.25C214.953 14.4688 218.016 13.2188 221.266 13.0312C222.484 12.9531 224.766 12.8438 225.484 12.8125V11.4375C225.453 10.0312 224.484 9.1875 222.766 9.1875C221.203 9.1875 220.203 9.90625 219.953 11.0625H215.547C215.828 8.125 218.391 5.8125 222.891 5.8125C226.578 5.8125 230.078 7.46875 230.078 11.5625V23H225.703V20.6562H225.578C224.734 22.2188 223.141 23.3125 220.609 23.3125C217.359 23.3125 214.953 21.625 214.953 18.25ZM219.391 18.125C219.391 19.4375 220.453 20.125 221.922 20.125C224.016 20.125 225.516 18.7188 225.484 16.9375V15.6875C224.781 15.7188 222.812 15.8281 222.016 15.9062C220.422 16.0625 219.391 16.8125 219.391 18.125ZM242.547 6.03125V9.5H239.359V17.7812C239.359 19.125 240.016 19.4688 240.953 19.5C241.422 19.5 242.234 19.4688 242.797 19.4062V23.0625C242.297 23.1562 241.484 23.2188 240.328 23.2188C236.984 23.2188 234.703 21.7188 234.734 18.4375V9.5H232.391V6.03125H234.734V1.96875H239.359V6.03125H242.547ZM245.453 29.375V6.03125H250.016V8.875H250.203C250.828 7.5 252.203 5.8125 255.047 5.8125C258.797 5.8125 261.922 8.71875 261.922 14.5312C261.922 20.1875 258.922 23.2812 255.047 23.2812C252.266 23.2812 250.859 21.6875 250.203 20.2812H250.078V29.375H245.453ZM249.984 14.5C249.984 17.5625 251.297 19.5938 253.578 19.5938C255.953 19.5938 257.203 17.5 257.203 14.5C257.203 11.5312 255.953 9.5 253.578 9.5C251.266 9.5 249.984 11.4375 249.984 14.5ZM272.547 23.3438C267.422 23.3438 264.234 19.8125 264.234 14.5625C264.234 9.3125 267.422 5.8125 272.547 5.8125C277.672 5.8125 280.891 9.3125 280.891 14.5625C280.891 19.8125 277.672 23.3438 272.547 23.3438ZM272.578 19.75C274.953 19.75 276.172 17.5312 276.172 14.5625C276.172 11.5625 274.953 9.34375 272.578 9.34375C270.172 9.34375 268.922 11.5625 268.922 14.5625C268.922 17.5312 270.172 19.75 272.578 19.75ZM283.797 23V6.03125H288.203V9H288.391C289.109 7.03125 290.828 5.8125 293.109 5.8125C295.453 5.8125 297.172 7.03125 297.734 9H297.891C298.609 7.0625 300.516 5.8125 303.016 5.8125C306.172 5.8125 308.359 7.90625 308.359 11.5938V23H303.734V12.5C303.734 10.5625 302.609 9.625 301.078 9.625C299.328 9.625 298.328 10.8438 298.328 12.625V23H293.828V12.375C293.828 10.6875 292.766 9.625 291.203 9.625C289.641 9.625 288.422 10.875 288.422 12.8125V23H283.797ZM319.609 23.3438C314.422 23.3438 311.234 19.9688 311.234 14.5938C311.234 9.34375 314.453 5.8125 319.422 5.8125C323.891 5.8125 327.391 8.625 327.391 14.4062V15.7188H315.797C315.797 18.2812 317.328 19.875 319.703 19.875C321.266 19.875 322.391 19.1875 322.859 18.1562H327.266C326.609 21.2812 323.797 23.3438 319.609 23.3438ZM315.797 12.8125H323.016C323.016 10.75 321.578 9.28125 319.516 9.28125C317.391 9.28125 315.875 10.8594 315.797 12.8125ZM343.922 23.2812C340.047 23.2812 337.016 20.1875 337.016 14.5312C337.016 8.71875 340.172 5.8125 343.922 5.8125C346.766 5.8125 348.109 7.5 348.734 8.875H348.891V0.375H353.516V23H348.953V20.2812H348.734C348.078 21.6875 346.672 23.2812 343.922 23.2812ZM345.359 19.5938C347.672 19.5938 348.984 17.5625 348.984 14.5C348.984 11.4375 347.672 9.5 345.359 9.5C343.016 9.5 341.766 11.5312 341.766 14.5C341.766 17.5 343.016 19.5938 345.359 19.5938ZM364.922 23.3438C359.734 23.3438 356.547 19.9688 356.547 14.5938C356.547 9.34375 359.766 5.8125 364.734 5.8125C369.203 5.8125 372.703 8.625 372.703 14.4062V15.7188H361.109C361.109 18.2812 362.641 19.875 365.016 19.875C366.578 19.875 367.703 19.1875 368.172 18.1562H372.578C371.922 21.2812 369.109 23.3438 364.922 23.3438ZM361.109 12.8125H368.328C368.328 10.75 366.891 9.28125 364.828 9.28125C362.703 9.28125 361.188 10.8594 361.109 12.8125ZM390.891 6.03125L384.922 23H379.734L373.797 6.03125H378.672L382.234 18.2188H382.422L385.984 6.03125H390.891ZM400.266 23.3438C395.078 23.3438 391.891 19.9688 391.891 14.5938C391.891 9.34375 395.109 5.8125 400.078 5.8125C404.547 5.8125 408.047 8.625 408.047 14.4062V15.7188H396.453C396.453 18.2812 397.984 19.875 400.359 19.875C401.922 19.875 403.047 19.1875 403.516 18.1562H407.922C407.266 21.2812 404.453 23.3438 400.266 23.3438ZM396.453 12.8125H403.672C403.672 10.75 402.234 9.28125 400.172 9.28125C398.047 9.28125 396.531 10.8594 396.453 12.8125ZM415.578 0.375V23H410.953V0.375H415.578ZM426.797 23.3438C421.672 23.3438 418.484 19.8125 418.484 14.5625C418.484 9.3125 421.672 5.8125 426.797 5.8125C431.922 5.8125 435.141 9.3125 435.141 14.5625C435.141 19.8125 431.922 23.3438 426.797 23.3438ZM426.828 19.75C429.203 19.75 430.422 17.5312 430.422 14.5625C430.422 11.5625 429.203 9.34375 426.828 9.34375C424.422 9.34375 423.172 11.5625 423.172 14.5625C423.172 17.5312 424.422 19.75 426.828 19.75ZM438.047 29.375V6.03125H442.609V8.875H442.797C443.422 7.5 444.797 5.8125 447.641 5.8125C451.391 5.8125 454.516 8.71875 454.516 14.5312C454.516 20.1875 451.516 23.2812 447.641 23.2812C444.859 23.2812 443.453 21.6875 442.797 20.2812H442.672V29.375H438.047ZM442.578 14.5C442.578 17.5625 443.891 19.5938 446.172 19.5938C448.547 19.5938 449.797 17.5 449.797 14.5C449.797 11.5312 448.547 9.5 446.172 9.5C443.859 9.5 442.578 11.4375 442.578 14.5ZM465.203 23.3438C460.016 23.3438 456.828 19.9688 456.828 14.5938C456.828 9.34375 460.047 5.8125 465.016 5.8125C469.484 5.8125 472.984 8.625 472.984 14.4062V15.7188H461.391C461.391 18.2812 462.922 19.875 465.297 19.875C466.859 19.875 467.984 19.1875 468.453 18.1562H472.859C472.203 21.2812 469.391 23.3438 465.203 23.3438ZM461.391 12.8125H468.609C468.609 10.75 467.172 9.28125 465.109 9.28125C462.984 9.28125 461.469 10.8594 461.391 12.8125ZM475.891 23V6.03125H480.359V8.96875H480.547C481.172 6.875 482.734 5.78125 484.641 5.78125C485.109 5.78125 485.703 5.84375 486.109 5.9375V10.0625C485.672 9.9375 484.797 9.8125 484.141 9.8125C482.047 9.8125 480.516 11.2812 480.516 13.3438V23H475.891ZM498.047 11.0625C497.859 9.875 496.797 9.09375 495.266 9.09375C493.766 9.09375 492.609 9.8125 492.641 10.8438C492.609 11.5938 493.234 12.1875 494.828 12.5312L497.859 13.1562C501.141 13.8438 502.734 15.3125 502.766 17.75C502.734 21.0938 499.734 23.3438 495.234 23.3438C490.641 23.3438 487.953 21.2812 487.578 17.9688H492.234C492.453 19.3125 493.547 20 495.234 20C496.922 20 498.047 19.3125 498.047 18.2188C498.047 17.3438 497.328 16.8125 495.734 16.4688L492.922 15.9062C489.703 15.2812 488.016 13.5938 488.047 11.0938C488.016 7.84375 490.828 5.8125 495.203 5.8125C499.484 5.8125 502.141 7.84375 502.391 11.0625H498.047ZM511.109 0.375L510.703 16.2188H506.703L506.297 0.375H511.109ZM508.734 23.2812C507.266 23.2812 506.078 22.0938 506.109 20.6562C506.078 19.2188 507.266 18.0625 508.734 18.0625C510.109 18.0625 511.328 19.2188 511.328 20.6562C511.328 22.0938 510.109 23.2812 508.734 23.2812Z" fill="url(#paint0_linear_70_63259)"/>
<defs>
<linearGradient id="paint0_linear_70_63259" x1="514" y1="36" x2="220.348" y2="-243.503" gradientUnits="userSpaceOnUse">
<stop stop-color="#B224EF"/>
<stop offset="1" stop-color="#7579FF"/>
</linearGradient>
</defs>
</svg>
