<svg width="431" height="30" viewBox="0 0 431 30" fill="none" xmlns="http://www.w3.org/2000/svg">
<path d="M0.515625 0.375H5.625L9.42188 16.1875H9.625L13.7656 0.375H18.2031L22.3594 16.2344H22.5469L26.3438 0.375H31.4531L25 23H20.3906L16.0781 8.0625H15.9062L11.5781 23H6.98438L0.515625 0.375ZM39.6406 23.3281C37.9323 23.3281 36.4427 22.974 35.1719 22.2656C33.9115 21.5573 32.9375 20.5469 32.25 19.2344C31.5729 17.9219 31.2344 16.3802 31.2344 14.6094C31.2344 12.8594 31.5729 11.3229 32.25 10C32.9375 8.66667 33.901 7.63542 35.1406 6.90625C36.3802 6.17708 37.8177 5.8125 39.4531 5.8125C40.9844 5.8125 42.349 6.13542 43.5469 6.78125C44.7448 7.41667 45.6875 8.38021 46.375 9.67188C47.0625 10.9635 47.4062 12.5417 47.4062 14.4062V15.7031H33.125V12.8125H43.0469C43.0469 12.125 42.8958 11.5156 42.5938 10.9844C42.2917 10.4427 41.875 10.0208 41.3438 9.71875C40.8125 9.41667 40.2083 9.26562 39.5312 9.26562C38.8125 9.26562 38.1719 9.43229 37.6094 9.76562C37.0469 10.0885 36.6042 10.5365 36.2812 11.1094C35.9688 11.6823 35.8073 12.3073 35.7969 12.9844V15.7031C35.7969 16.5469 35.9583 17.2865 36.2812 17.9219C36.6042 18.5573 37.0573 19.0417 37.6406 19.375C38.2344 19.7083 38.9219 19.875 39.7031 19.875C40.224 19.875 40.6979 19.8021 41.125 19.6562C41.5521 19.5 41.9115 19.3021 42.2031 19.0625C42.5052 18.8125 42.7344 18.5208 42.8906 18.1875H47.2969C47.0781 19.2188 46.625 20.125 45.9375 20.9062C45.2604 21.6771 44.3802 22.276 43.2969 22.7031C42.224 23.1198 41.0052 23.3281 39.6406 23.3281ZM54.9375 23H50.3125V0.375H54.9375V23ZM66.1719 23.3281C64.4635 23.3281 62.9792 22.9583 61.7188 22.2188C60.4583 21.4792 59.4948 20.4479 58.8281 19.125C58.1615 17.8021 57.8281 16.2865 57.8281 14.5781C57.8281 12.849 58.1667 11.3229 58.8438 10C59.5208 8.67708 60.4844 7.65104 61.7344 6.92188C62.9844 6.18229 64.4531 5.8125 66.1406 5.8125C67.599 5.8125 68.8854 6.07812 70 6.60938C71.125 7.13021 72.0052 7.88021 72.6406 8.85938C73.2865 9.83854 73.6406 10.9688 73.7031 12.25H69.3281C69.2448 11.6875 69.0677 11.1927 68.7969 10.7656C68.526 10.3281 68.1719 9.99479 67.7344 9.76562C67.2969 9.52604 66.7917 9.40625 66.2188 9.40625C65.4792 9.40625 64.8333 9.60938 64.2812 10.0156C63.7292 10.4115 63.2969 10.9896 62.9844 11.75C62.6719 12.5104 62.5156 13.4271 62.5156 14.5C62.5156 15.5833 62.6667 16.5104 62.9688 17.2812C63.2812 18.0417 63.7135 18.625 64.2656 19.0312C64.8177 19.4375 65.4688 19.6406 66.2188 19.6406C66.7708 19.6406 67.2656 19.5365 67.7031 19.3281C68.1406 19.1094 68.5 18.7865 68.7812 18.3594C69.0625 17.9323 69.2448 17.4219 69.3281 16.8281H73.7031C73.6302 18.1094 73.276 19.2396 72.6406 20.2188C72.0156 21.1979 71.1458 21.9635 70.0312 22.5156C68.9271 23.0573 67.6406 23.3281 66.1719 23.3281ZM84.2031 23.3281C82.5156 23.3281 81.0417 22.9635 79.7812 22.2344C78.5208 21.5052 77.5521 20.4792 76.875 19.1562C76.1979 17.8333 75.8594 16.3073 75.8594 14.5781C75.8594 12.8281 76.1979 11.2969 76.875 9.98438C77.5521 8.66146 78.5208 7.63542 79.7812 6.90625C81.0417 6.17708 82.5156 5.8125 84.2031 5.8125C85.8802 5.8125 87.349 6.17708 88.6094 6.90625C89.8802 7.63542 90.849 8.66146 91.5156 9.98438C92.1823 11.2969 92.5156 12.8281 92.5156 14.5781C92.5156 16.3073 92.1823 17.8333 91.5156 19.1562C90.849 20.4792 89.8802 21.5052 88.6094 22.2344C87.349 22.9635 85.8802 23.3281 84.2031 23.3281ZM84.2344 19.75C85.0052 19.75 85.6562 19.526 86.1875 19.0781C86.7292 18.6302 87.1354 18.0156 87.4062 17.2344C87.6771 16.4427 87.8125 15.5469 87.8125 14.5469C87.8125 13.5365 87.6771 12.6406 87.4062 11.8594C87.1354 11.0781 86.7292 10.4635 86.1875 10.0156C85.6562 9.56771 85.0052 9.34375 84.2344 9.34375C83.4427 9.34375 82.7708 9.56771 82.2188 10.0156C81.6667 10.4635 81.25 11.0781 80.9688 11.8594C80.6875 12.6302 80.5469 13.526 80.5469 14.5469C80.5469 15.5573 80.6875 16.4531 80.9688 17.2344C81.25 18.0156 81.6667 18.6302 82.2188 19.0781C82.7708 19.526 83.4427 19.75 84.2344 19.75ZM95.4375 6.03125H99.8438V9H100.031C100.406 7.98958 101.005 7.20833 101.828 6.65625C102.651 6.09375 103.63 5.8125 104.766 5.8125C105.526 5.8125 106.219 5.94271 106.844 6.20312C107.479 6.45312 108.01 6.81771 108.438 7.29688C108.865 7.77604 109.177 8.34375 109.375 9H109.531C109.781 8.35417 110.151 7.79167 110.641 7.3125C111.13 6.83333 111.719 6.46354 112.406 6.20312C113.094 5.94271 113.844 5.8125 114.656 5.8125C115.719 5.8125 116.651 6.04167 117.453 6.5C118.266 6.94792 118.896 7.60938 119.344 8.48438C119.792 9.34896 120.016 10.3906 120.016 11.6094V23H115.375V12.4844C115.375 11.5573 115.13 10.8542 114.641 10.375C114.151 9.88542 113.51 9.64062 112.719 9.64062C112.146 9.64062 111.651 9.76562 111.234 10.0156C110.828 10.2552 110.51 10.599 110.281 11.0469C110.062 11.4844 109.953 12.0052 109.953 12.6094V23H105.469V12.3594C105.469 11.8177 105.359 11.3385 105.141 10.9219C104.932 10.5052 104.63 10.1875 104.234 9.96875C103.839 9.75 103.38 9.64062 102.859 9.64062C102.339 9.64062 101.865 9.77083 101.438 10.0312C101.021 10.2812 100.688 10.6458 100.438 11.125C100.188 11.6042 100.062 12.1615 100.062 12.7969V23H95.4375V6.03125ZM131.266 23.3281C129.557 23.3281 128.068 22.974 126.797 22.2656C125.536 21.5573 124.562 20.5469 123.875 19.2344C123.198 17.9219 122.859 16.3802 122.859 14.6094C122.859 12.8594 123.198 11.3229 123.875 10C124.562 8.66667 125.526 7.63542 126.766 6.90625C128.005 6.17708 129.443 5.8125 131.078 5.8125C132.609 5.8125 133.974 6.13542 135.172 6.78125C136.37 7.41667 137.312 8.38021 138 9.67188C138.688 10.9635 139.031 12.5417 139.031 14.4062V15.7031H124.75V12.8125H134.672C134.672 12.125 134.521 11.5156 134.219 10.9844C133.917 10.4427 133.5 10.0208 132.969 9.71875C132.438 9.41667 131.833 9.26562 131.156 9.26562C130.438 9.26562 129.797 9.43229 129.234 9.76562C128.672 10.0885 128.229 10.5365 127.906 11.1094C127.594 11.6823 127.432 12.3073 127.422 12.9844V15.7031C127.422 16.5469 127.583 17.2865 127.906 17.9219C128.229 18.5573 128.682 19.0417 129.266 19.375C129.859 19.7083 130.547 19.875 131.328 19.875C131.849 19.875 132.323 19.8021 132.75 19.6562C133.177 19.5 133.536 19.3021 133.828 19.0625C134.13 18.8125 134.359 18.5208 134.516 18.1875H138.922C138.703 19.2188 138.25 20.125 137.562 20.9062C136.885 21.6771 136.005 22.276 134.922 22.7031C133.849 23.1198 132.63 23.3281 131.266 23.3281ZM147.016 16.2344H143.031L142.609 0.375H147.453L147.016 16.2344ZM145.031 23.2812C144.562 23.2812 144.125 23.1615 143.719 22.9219C143.312 22.6719 142.99 22.349 142.75 21.9531C142.521 21.5469 142.406 21.1094 142.406 20.6406C142.406 20.1823 142.521 19.7552 142.75 19.3594C142.99 18.9531 143.312 18.6354 143.719 18.4062C144.125 18.1771 144.562 18.0625 145.031 18.0625C145.49 18.0625 145.917 18.1771 146.312 18.4062C146.719 18.6354 147.042 18.9531 147.281 19.3594C147.531 19.7552 147.656 20.1823 147.656 20.6406C147.656 21.1094 147.531 21.5469 147.281 21.9531C147.042 22.349 146.719 22.6719 146.312 22.9219C145.917 23.1615 145.49 23.2812 145.031 23.2812Z" fill="#F2F2F2"/>
<path d="M159.297 0.375H168.141C169.828 0.375 171.281 0.697917 172.5 1.34375C173.729 1.97917 174.661 2.875 175.297 4.03125C175.932 5.1875 176.25 6.51562 176.25 8.01562C176.25 9.52604 175.922 10.8542 175.266 12C174.62 13.1354 173.677 14.026 172.438 14.6719C171.208 15.3073 169.74 15.625 168.031 15.625H162.344V11.8438H167.297C168.203 11.8438 168.964 11.6875 169.578 11.375C170.203 11.0521 170.667 10.6042 170.969 10.0312C171.271 9.45833 171.422 8.78646 171.422 8.01562C171.422 7.24479 171.271 6.57812 170.969 6.01562C170.667 5.44271 170.203 5.00521 169.578 4.70312C168.964 4.39062 168.198 4.23438 167.281 4.23438H163.984V23H159.297V0.375ZM183.75 23H179.125V0.375H183.75V23ZM197.297 15.6719C196.88 15.6823 196.146 15.724 195.094 15.7969L193.594 15.9219C192.771 15.9844 192.125 16.2083 191.656 16.5938C191.188 16.9688 190.953 17.4792 190.953 18.125C190.953 18.5417 191.057 18.8958 191.266 19.1875C191.484 19.4792 191.786 19.7031 192.172 19.8594C192.568 20.0156 193.01 20.0938 193.5 20.0938C194.198 20.0938 194.818 19.9583 195.359 19.6875C195.901 19.4062 196.323 19.026 196.625 18.5469C196.927 18.0573 197.078 17.5208 197.078 16.9375L197.047 11.4531C197.047 10.974 196.943 10.5677 196.734 10.2344C196.536 9.89062 196.229 9.63542 195.812 9.46875C195.406 9.29167 194.922 9.20312 194.359 9.20312C193.578 9.20312 192.943 9.36979 192.453 9.70312C191.964 10.026 191.656 10.4844 191.531 11.0781H187.125C187.229 10.0781 187.578 9.18229 188.172 8.39062C188.776 7.58854 189.609 6.95833 190.672 6.5C191.745 6.04167 193.01 5.8125 194.469 5.8125C195.781 5.8125 196.979 6.01562 198.062 6.42188C199.146 6.82812 200.016 7.46354 200.672 8.32812C201.339 9.18229 201.672 10.2604 201.672 11.5625V23H197.281V20.6562H197.156C196.875 21.1875 196.505 21.651 196.047 22.0469C195.589 22.4427 195.036 22.7552 194.391 22.9844C193.755 23.2031 193.016 23.3125 192.172 23.3125C191.078 23.3125 190.109 23.1198 189.266 22.7344C188.422 22.349 187.755 21.776 187.266 21.0156C186.776 20.2552 186.531 19.3385 186.531 18.2656C186.531 16.4948 187.115 15.2083 188.281 14.4062C189.458 13.6042 190.979 13.1458 192.844 13.0312C193.156 13 194.12 12.9479 195.734 12.875L197.266 12.8125L197.297 15.6719ZM214.125 9.5H203.969V6.03125H214.125V9.5ZM210.938 1.96875V17.7812C210.938 18.2188 211 18.5625 211.125 18.8125C211.26 19.0521 211.443 19.224 211.672 19.3281C211.911 19.4219 212.203 19.474 212.547 19.4844C212.984 19.4948 213.589 19.4688 214.359 19.4062V23.0625C213.661 23.1771 212.854 23.2344 211.938 23.2344C210.792 23.2344 209.797 23.0625 208.953 22.7188C208.109 22.3646 207.453 21.8281 206.984 21.1094C206.516 20.3906 206.286 19.4948 206.297 18.4219V1.96875H210.938ZM217.031 6.03125H221.578V8.875H221.797L221.891 8.6875C222.161 8.15625 222.495 7.68229 222.891 7.26562C223.286 6.83854 223.797 6.48958 224.422 6.21875C225.047 5.94792 225.781 5.8125 226.625 5.8125C227.906 5.8125 229.068 6.14062 230.109 6.79688C231.151 7.45312 231.974 8.4375 232.578 9.75C233.193 11.0625 233.5 12.6562 233.5 14.5312C233.5 16.3646 233.203 17.9427 232.609 19.2656C232.016 20.5781 231.198 21.5729 230.156 22.25C229.115 22.9271 227.932 23.2656 226.609 23.2656C225.776 23.2656 225.036 23.125 224.391 22.8438C223.755 22.5625 223.24 22.2188 222.844 21.8125C222.448 21.4062 222.109 20.9323 221.828 20.3906L221.797 20.2969H221.656V29.375H217.031V6.03125ZM221.531 14.5C221.531 15.5104 221.677 16.401 221.969 17.1719C222.26 17.9427 222.677 18.5365 223.219 18.9531C223.76 19.3698 224.417 19.5781 225.188 19.5781C225.948 19.5781 226.599 19.3646 227.141 18.9375C227.693 18.5104 228.104 17.9167 228.375 17.1562C228.656 16.3854 228.797 15.5 228.797 14.5C228.797 13.5 228.656 12.625 228.375 11.875C228.104 11.125 227.698 10.5469 227.156 10.1406C226.615 9.72396 225.958 9.51562 225.188 9.51562C224.417 9.51562 223.76 9.71875 223.219 10.125C222.677 10.5208 222.26 11.0938 221.969 11.8438C221.677 12.5938 221.531 13.4792 221.531 14.5ZM244.109 23.3281C242.422 23.3281 240.948 22.9635 239.688 22.2344C238.427 21.5052 237.458 20.4792 236.781 19.1562C236.104 17.8333 235.766 16.3073 235.766 14.5781C235.766 12.8281 236.104 11.2969 236.781 9.98438C237.458 8.66146 238.427 7.63542 239.688 6.90625C240.948 6.17708 242.422 5.8125 244.109 5.8125C245.786 5.8125 247.255 6.17708 248.516 6.90625C249.786 7.63542 250.755 8.66146 251.422 9.98438C252.089 11.2969 252.422 12.8281 252.422 14.5781C252.422 16.3073 252.089 17.8333 251.422 19.1562C250.755 20.4792 249.786 21.5052 248.516 22.2344C247.255 22.9635 245.786 23.3281 244.109 23.3281ZM244.141 19.75C244.911 19.75 245.562 19.526 246.094 19.0781C246.635 18.6302 247.042 18.0156 247.312 17.2344C247.583 16.4427 247.719 15.5469 247.719 14.5469C247.719 13.5365 247.583 12.6406 247.312 11.8594C247.042 11.0781 246.635 10.4635 246.094 10.0156C245.562 9.56771 244.911 9.34375 244.141 9.34375C243.349 9.34375 242.677 9.56771 242.125 10.0156C241.573 10.4635 241.156 11.0781 240.875 11.8594C240.594 12.6302 240.453 13.526 240.453 14.5469C240.453 15.5573 240.594 16.4531 240.875 17.2344C241.156 18.0156 241.573 18.6302 242.125 19.0781C242.677 19.526 243.349 19.75 244.141 19.75ZM255.344 6.03125H259.75V9H259.938C260.312 7.98958 260.911 7.20833 261.734 6.65625C262.557 6.09375 263.536 5.8125 264.672 5.8125C265.432 5.8125 266.125 5.94271 266.75 6.20312C267.385 6.45312 267.917 6.81771 268.344 7.29688C268.771 7.77604 269.083 8.34375 269.281 9H269.438C269.688 8.35417 270.057 7.79167 270.547 7.3125C271.036 6.83333 271.625 6.46354 272.312 6.20312C273 5.94271 273.75 5.8125 274.562 5.8125C275.625 5.8125 276.557 6.04167 277.359 6.5C278.172 6.94792 278.802 7.60938 279.25 8.48438C279.698 9.34896 279.922 10.3906 279.922 11.6094V23H275.281V12.4844C275.281 11.5573 275.036 10.8542 274.547 10.375C274.057 9.88542 273.417 9.64062 272.625 9.64062C272.052 9.64062 271.557 9.76562 271.141 10.0156C270.734 10.2552 270.417 10.599 270.188 11.0469C269.969 11.4844 269.859 12.0052 269.859 12.6094V23H265.375V12.3594C265.375 11.8177 265.266 11.3385 265.047 10.9219C264.839 10.5052 264.536 10.1875 264.141 9.96875C263.745 9.75 263.286 9.64062 262.766 9.64062C262.245 9.64062 261.771 9.77083 261.344 10.0312C260.927 10.2812 260.594 10.6458 260.344 11.125C260.094 11.6042 259.969 12.1615 259.969 12.7969V23H255.344V6.03125ZM291.172 23.3281C289.464 23.3281 287.974 22.974 286.703 22.2656C285.443 21.5573 284.469 20.5469 283.781 19.2344C283.104 17.9219 282.766 16.3802 282.766 14.6094C282.766 12.8594 283.104 11.3229 283.781 10C284.469 8.66667 285.432 7.63542 286.672 6.90625C287.911 6.17708 289.349 5.8125 290.984 5.8125C292.516 5.8125 293.88 6.13542 295.078 6.78125C296.276 7.41667 297.219 8.38021 297.906 9.67188C298.594 10.9635 298.938 12.5417 298.938 14.4062V15.7031H284.656V12.8125H294.578C294.578 12.125 294.427 11.5156 294.125 10.9844C293.823 10.4427 293.406 10.0208 292.875 9.71875C292.344 9.41667 291.74 9.26562 291.062 9.26562C290.344 9.26562 289.703 9.43229 289.141 9.76562C288.578 10.0885 288.135 10.5365 287.812 11.1094C287.5 11.6823 287.339 12.3073 287.328 12.9844V15.7031C287.328 16.5469 287.49 17.2865 287.812 17.9219C288.135 18.5573 288.589 19.0417 289.172 19.375C289.766 19.7083 290.453 19.875 291.234 19.875C291.755 19.875 292.229 19.8021 292.656 19.6562C293.083 19.5 293.443 19.3021 293.734 19.0625C294.036 18.8125 294.266 18.5208 294.422 18.1875H298.828C298.609 19.2188 298.156 20.125 297.469 20.9062C296.792 21.6771 295.911 22.276 294.828 22.7031C293.755 23.1198 292.536 23.3281 291.172 23.3281ZM324.469 8.26562C324.354 7.43229 324.073 6.71354 323.625 6.10938C323.188 5.49479 322.615 5.02604 321.906 4.70312C321.198 4.38021 320.411 4.21875 319.547 4.21875C318.37 4.21875 317.339 4.51562 316.453 5.10938C315.578 5.69271 314.896 6.54688 314.406 7.67188C313.917 8.78646 313.672 10.125 313.672 11.6875C313.672 13.2917 313.917 14.651 314.406 15.7656C314.896 16.8698 315.578 17.7135 316.453 18.2969C317.339 18.8698 318.354 19.1562 319.5 19.1562C320.365 19.1562 321.141 19 321.828 18.6875C322.526 18.375 323.104 17.9323 323.562 17.3594C324.021 16.776 324.323 16.0833 324.469 15.2812L329.234 15.3281C329.057 16.7448 328.547 18.0625 327.703 19.2812C326.87 20.5 325.745 21.4792 324.328 22.2188C322.911 22.9479 321.281 23.3125 319.438 23.3125C317.417 23.3125 315.609 22.8542 314.016 21.9375C312.422 21.0104 311.172 19.6719 310.266 17.9219C309.37 16.1615 308.922 14.0833 308.922 11.6875C308.922 9.27083 309.375 7.1875 310.281 5.4375C311.198 3.6875 312.448 2.35417 314.031 1.4375C315.625 0.520833 317.427 0.0625 319.438 0.0625C321.177 0.0625 322.75 0.385417 324.156 1.03125C325.562 1.67708 326.703 2.61979 327.578 3.85938C328.464 5.08854 329.016 6.55729 329.234 8.26562H324.469ZM340.047 23.3281C338.359 23.3281 336.885 22.9635 335.625 22.2344C334.365 21.5052 333.396 20.4792 332.719 19.1562C332.042 17.8333 331.703 16.3073 331.703 14.5781C331.703 12.8281 332.042 11.2969 332.719 9.98438C333.396 8.66146 334.365 7.63542 335.625 6.90625C336.885 6.17708 338.359 5.8125 340.047 5.8125C341.724 5.8125 343.193 6.17708 344.453 6.90625C345.724 7.63542 346.693 8.66146 347.359 9.98438C348.026 11.2969 348.359 12.8281 348.359 14.5781C348.359 16.3073 348.026 17.8333 347.359 19.1562C346.693 20.4792 345.724 21.5052 344.453 22.2344C343.193 22.9635 341.724 23.3281 340.047 23.3281ZM340.078 19.75C340.849 19.75 341.5 19.526 342.031 19.0781C342.573 18.6302 342.979 18.0156 343.25 17.2344C343.521 16.4427 343.656 15.5469 343.656 14.5469C343.656 13.5365 343.521 12.6406 343.25 11.8594C342.979 11.0781 342.573 10.4635 342.031 10.0156C341.5 9.56771 340.849 9.34375 340.078 9.34375C339.286 9.34375 338.615 9.56771 338.062 10.0156C337.51 10.4635 337.094 11.0781 336.812 11.8594C336.531 12.6302 336.391 13.526 336.391 14.5469C336.391 15.5573 336.531 16.4531 336.812 17.2344C337.094 18.0156 337.51 18.6302 338.062 19.0781C338.615 19.526 339.286 19.75 340.078 19.75ZM355.906 23H351.281V6.03125H355.688V9H355.875C356.271 8 356.906 7.21875 357.781 6.65625C358.667 6.09375 359.734 5.8125 360.984 5.8125C362.161 5.8125 363.188 6.06771 364.062 6.57812C364.938 7.08854 365.615 7.82292 366.094 8.78125C366.583 9.73958 366.828 10.875 366.828 12.1875V23H362.203V12.9844C362.203 12.2865 362.083 11.6927 361.844 11.2031C361.615 10.7031 361.271 10.3229 360.812 10.0625C360.354 9.79167 359.802 9.65625 359.156 9.65625C358.51 9.65625 357.943 9.79688 357.453 10.0781C356.964 10.349 356.583 10.75 356.312 11.2812C356.042 11.8021 355.906 12.4323 355.906 13.1719V23ZM380.094 11.0781C379.99 10.4531 379.693 9.96875 379.203 9.625C378.714 9.28125 378.083 9.10938 377.312 9.10938C376.812 9.10938 376.365 9.18229 375.969 9.32812C375.573 9.46354 375.255 9.66667 375.016 9.9375C374.786 10.1979 374.672 10.4948 374.672 10.8281C374.661 11.224 374.828 11.5677 375.172 11.8594C375.526 12.151 376.089 12.375 376.859 12.5312L379.922 13.1562C381.568 13.4896 382.792 14.0365 383.594 14.7969C384.406 15.5469 384.812 16.5312 384.812 17.75C384.812 18.8542 384.495 19.8281 383.859 20.6719C383.234 21.5052 382.354 22.1562 381.219 22.625C380.094 23.0938 378.781 23.3281 377.281 23.3281C375.771 23.3281 374.464 23.1146 373.359 22.6875C372.266 22.25 371.401 21.6354 370.766 20.8438C370.13 20.0417 369.75 19.0885 369.625 17.9844H374.266C374.401 18.6302 374.724 19.125 375.234 19.4688C375.755 19.8021 376.443 19.9688 377.297 19.9688C377.849 19.9688 378.333 19.901 378.75 19.7656C379.177 19.6302 379.505 19.4323 379.734 19.1719C379.974 18.901 380.094 18.5885 380.094 18.2344C380.094 17.776 379.906 17.4062 379.531 17.125C379.167 16.8438 378.589 16.625 377.797 16.4688L374.984 15.9062C373.359 15.5833 372.13 15.0156 371.297 14.2031C370.474 13.3906 370.068 12.3594 370.078 11.1094C370.078 10.026 370.37 9.08854 370.953 8.29688C371.536 7.49479 372.365 6.88021 373.438 6.45312C374.521 6.02604 375.792 5.8125 377.25 5.8125C378.667 5.8125 379.901 6.02604 380.953 6.45312C382.005 6.88021 382.828 7.48958 383.422 8.28125C384.016 9.07292 384.349 10.0052 384.422 11.0781H380.094ZM395.297 23.3281C393.609 23.3281 392.135 22.9635 390.875 22.2344C389.615 21.5052 388.646 20.4792 387.969 19.1562C387.292 17.8333 386.953 16.3073 386.953 14.5781C386.953 12.8281 387.292 11.2969 387.969 9.98438C388.646 8.66146 389.615 7.63542 390.875 6.90625C392.135 6.17708 393.609 5.8125 395.297 5.8125C396.974 5.8125 398.443 6.17708 399.703 6.90625C400.974 7.63542 401.943 8.66146 402.609 9.98438C403.276 11.2969 403.609 12.8281 403.609 14.5781C403.609 16.3073 403.276 17.8333 402.609 19.1562C401.943 20.4792 400.974 21.5052 399.703 22.2344C398.443 22.9635 396.974 23.3281 395.297 23.3281ZM395.328 19.75C396.099 19.75 396.75 19.526 397.281 19.0781C397.823 18.6302 398.229 18.0156 398.5 17.2344C398.771 16.4427 398.906 15.5469 398.906 14.5469C398.906 13.5365 398.771 12.6406 398.5 11.8594C398.229 11.0781 397.823 10.4635 397.281 10.0156C396.75 9.56771 396.099 9.34375 395.328 9.34375C394.536 9.34375 393.865 9.56771 393.312 10.0156C392.76 10.4635 392.344 11.0781 392.062 11.8594C391.781 12.6302 391.641 13.526 391.641 14.5469C391.641 15.5573 391.781 16.4531 392.062 17.2344C392.344 18.0156 392.76 18.6302 393.312 19.0781C393.865 19.526 394.536 19.75 395.328 19.75ZM411.156 23H406.531V0.375H411.156V23ZM422.453 23.3281C420.745 23.3281 419.255 22.974 417.984 22.2656C416.724 21.5573 415.75 20.5469 415.062 19.2344C414.385 17.9219 414.047 16.3802 414.047 14.6094C414.047 12.8594 414.385 11.3229 415.062 10C415.75 8.66667 416.714 7.63542 417.953 6.90625C419.193 6.17708 420.63 5.8125 422.266 5.8125C423.797 5.8125 425.161 6.13542 426.359 6.78125C427.557 7.41667 428.5 8.38021 429.188 9.67188C429.875 10.9635 430.219 12.5417 430.219 14.4062V15.7031H415.938V12.8125H425.859C425.859 12.125 425.708 11.5156 425.406 10.9844C425.104 10.4427 424.688 10.0208 424.156 9.71875C423.625 9.41667 423.021 9.26562 422.344 9.26562C421.625 9.26562 420.984 9.43229 420.422 9.76562C419.859 10.0885 419.417 10.5365 419.094 11.1094C418.781 11.6823 418.62 12.3073 418.609 12.9844V15.7031C418.609 16.5469 418.771 17.2865 419.094 17.9219C419.417 18.5573 419.87 19.0417 420.453 19.375C421.047 19.7083 421.734 19.875 422.516 19.875C423.036 19.875 423.51 19.8021 423.938 19.6562C424.365 19.5 424.724 19.3021 425.016 19.0625C425.318 18.8125 425.547 18.5208 425.703 18.1875H430.109C429.891 19.2188 429.438 20.125 428.75 20.9062C428.073 21.6771 427.193 22.276 426.109 22.7031C425.036 23.1198 423.818 23.3281 422.453 23.3281Z" fill="url(#paint0_linear_70_62614)"/>
<defs>
<linearGradient id="paint0_linear_70_62614" x1="540" y1="36" x2="245.99" y2="-257.999" gradientUnits="userSpaceOnUse">
<stop stop-color="#B224EF"/>
<stop offset="1" stop-color="#7579FF"/>
</linearGradient>
</defs>
</svg>
