<svg width="116" height="12" viewBox="0 0 116 12" fill="none" xmlns="http://www.w3.org/2000/svg">
<path id="Union" fill-rule="evenodd" clip-rule="evenodd" d="M9.47157 7.45689C10.2745 5.54476 9.37248 3.33555 7.45915 2.53315L7.03195 2.34154L4.492 8.36603C3.35971 7.64594 2.87591 6.19028 3.41247 4.91206C3.69811 4.23311 4.22952 3.70075 4.90763 3.41399L4.53576 2.537C3.62606 2.92278 2.9158 3.63517 2.53365 4.5443C1.79379 6.30728 2.50405 8.3236 4.11886 9.25588L3.42533 10.9057L3.27736 11.2812C3.60805 11.4856 3.96318 11.6528 4.33758 11.7621C4.88316 11.9203 5.44288 12 6.0026 12C6.77077 12 7.53891 11.8509 8.27233 11.5512C9.75593 10.9456 10.9152 9.79854 11.5354 8.32103C12.1556 6.8448 12.1633 5.21425 11.5573 3.73161C10.9513 2.24896 9.8035 1.09036 8.32509 0.470549C6.84796 -0.149259 5.21642 -0.156974 3.73285 0.448687C2.24929 1.05435 1.09125 2.20138 0.469776 3.67889C-0.465657 5.90609 0.0207179 8.46246 1.70759 10.1907L2.38954 9.52592C0.969019 8.07155 0.559845 5.92152 1.34731 4.04794C1.86842 2.80576 2.84374 1.84004 4.09184 1.33082C5.53554 0.740589 7.14389 0.842175 8.5284 1.63173C9.30815 2.07665 9.95534 2.72989 10.3941 3.51301C11.1726 4.90434 11.2601 6.51561 10.6553 7.95327C9.64012 10.3708 6.9509 11.5847 4.49586 10.8157L4.99639 9.62492C5.32836 9.71749 5.66419 9.76125 5.99745 9.76125C7.46815 9.76125 8.8668 8.89455 9.47157 7.45689ZM5.37133 8.73647C6.67846 9.03838 8.05751 8.36458 8.59402 7.08785C9.13059 5.81091 8.64677 4.35401 7.51448 3.63388L5.37133 8.73647ZM17.4823 10.784C17.7303 10.928 18.0023 11 18.2983 11H25.2943V9.548H18.5503C18.4223 9.548 18.3183 9.512 18.2383 9.44C18.1583 9.36 18.1183 9.256 18.1183 9.128V4.232C18.1183 4.104 18.1583 4.004 18.2383 3.932C18.3183 3.852 18.4223 3.812 18.5503 3.812H25.2943V2.36H18.2983C18.0023 2.36 17.7303 2.432 17.4823 2.576C17.2343 2.72 17.0383 2.916 16.8943 3.164C16.7503 3.412 16.6783 3.684 16.6783 3.98V9.38C16.6783 9.676 16.7503 9.948 16.8943 10.196C17.0383 10.444 17.2343 10.64 17.4823 10.784ZM27.2894 10.784C27.5294 10.928 27.7974 11 28.0934 11H31.9454C32.2494 11 32.5214 10.928 32.7614 10.784C33.0014 10.632 33.1934 10.436 33.3374 10.196C33.4814 9.956 33.5534 9.688 33.5534 9.392V5.648C33.5534 5.352 33.4814 5.084 33.3374 4.844C33.1934 4.604 33.0014 4.412 32.7614 4.268C32.5214 4.116 32.2494 4.04 31.9454 4.04H28.0934C27.7974 4.04 27.5294 4.116 27.2894 4.268C27.0494 4.412 26.8534 4.604 26.7014 4.844C26.5574 5.084 26.4854 5.352 26.4854 5.648V9.392C26.4854 9.688 26.5574 9.956 26.7014 10.196C26.8534 10.436 27.0494 10.632 27.2894 10.784ZM31.8974 9.572H28.1414C28.0774 9.572 28.0214 9.552 27.9734 9.512C27.9334 9.464 27.9134 9.408 27.9134 9.344V5.696C27.9134 5.632 27.9334 5.58 27.9734 5.54C28.0214 5.492 28.0774 5.468 28.1414 5.468H31.8974C31.9614 5.468 32.0134 5.492 32.0534 5.54C32.1014 5.58 32.1254 5.632 32.1254 5.696V9.344C32.1254 9.408 32.1014 9.464 32.0534 9.512C32.0134 9.552 31.9614 9.572 31.8974 9.572ZM34.5605 4.04V11H35.9885V5.696C35.9885 5.632 36.0125 5.58 36.0605 5.54C36.1085 5.492 36.1605 5.468 36.2165 5.468H39.9845C40.0405 5.468 40.0885 5.492 40.1285 5.54C40.1765 5.58 40.2005 5.632 40.2005 5.696V11H41.6285V5.648C41.6285 5.352 41.5565 5.084 41.4125 4.844C41.2685 4.604 41.0725 4.412 40.8245 4.268C40.5845 4.116 40.3205 4.04 40.0325 4.04H34.5605ZM43.5191 10.784C43.7591 10.928 44.0271 11 44.3231 11H48.1751C48.4791 11 48.7511 10.928 48.9911 10.784C49.2311 10.632 49.4231 10.436 49.5671 10.196C49.7191 9.956 49.7951 9.688 49.7951 9.392V8.408C49.7951 8.112 49.7191 7.844 49.5671 7.604C49.4231 7.364 49.2311 7.172 48.9911 7.028C48.7511 6.876 48.4791 6.8 48.1751 6.8H44.3711C44.3071 6.8 44.2511 6.78 44.2031 6.74C44.1631 6.692 44.1431 6.64 44.1431 6.584V5.696C44.1431 5.632 44.1631 5.58 44.2031 5.54C44.2511 5.492 44.3071 5.468 44.3711 5.468H48.1271C48.1911 5.468 48.2431 5.492 48.2831 5.54C48.3311 5.58 48.3551 5.632 48.3551 5.696V5.876H49.7951V5.648C49.7951 5.352 49.7191 5.084 49.5671 4.844C49.4231 4.604 49.2311 4.412 48.9911 4.268C48.7511 4.116 48.4791 4.04 48.1751 4.04H44.3231C44.0271 4.04 43.7591 4.116 43.5191 4.268C43.2791 4.412 43.0831 4.604 42.9311 4.844C42.7871 5.084 42.7151 5.352 42.7151 5.648V6.632C42.7151 6.928 42.7871 7.196 42.9311 7.436C43.0831 7.676 43.2791 7.872 43.5191 8.024C43.7591 8.168 44.0271 8.24 44.3231 8.24H48.1271C48.1911 8.24 48.2431 8.264 48.2831 8.312C48.3311 8.352 48.3551 8.4 48.3551 8.456V9.344C48.3551 9.408 48.3311 9.464 48.2831 9.512C48.2431 9.552 48.1911 9.572 48.1271 9.572H44.3711C44.3071 9.572 44.2511 9.552 44.2031 9.512C44.1631 9.464 44.1431 9.408 44.1431 9.344V9.164H42.7151V9.392C42.7151 9.688 42.7871 9.956 42.9311 10.196C43.0831 10.436 43.2791 10.632 43.5191 10.784ZM51.6527 10.784C51.8927 10.928 52.1607 11 52.4567 11H56.3087C56.6127 11 56.8847 10.928 57.1247 10.784C57.3647 10.632 57.5567 10.436 57.7007 10.196C57.8447 9.956 57.9167 9.688 57.9167 9.392V5.648C57.9167 5.352 57.8447 5.084 57.7007 4.844C57.5567 4.604 57.3647 4.412 57.1247 4.268C56.8847 4.116 56.6127 4.04 56.3087 4.04H52.4567C52.1607 4.04 51.8927 4.116 51.6527 4.268C51.4127 4.412 51.2167 4.604 51.0647 4.844C50.9207 5.084 50.8487 5.352 50.8487 5.648V9.392C50.8487 9.688 50.9207 9.956 51.0647 10.196C51.2167 10.436 51.4127 10.632 51.6527 10.784ZM56.2607 9.572H52.5047C52.4407 9.572 52.3847 9.552 52.3367 9.512C52.2967 9.464 52.2767 9.408 52.2767 9.344V5.696C52.2767 5.632 52.2967 5.58 52.3367 5.54C52.3847 5.492 52.4407 5.468 52.5047 5.468H56.2607C56.3247 5.468 56.3767 5.492 56.4167 5.54C56.4647 5.58 56.4887 5.632 56.4887 5.696V9.344C56.4887 9.408 56.4647 9.464 56.4167 9.512C56.3767 9.552 56.3247 9.572 56.2607 9.572ZM59.6921 10.784C59.9321 10.928 60.2001 11 60.4961 11H61.8401V9.572H60.5441C60.4881 9.572 60.4361 9.552 60.3881 9.512C60.3481 9.464 60.3281 9.408 60.3281 9.344V1.748H58.8881V9.392C58.8881 9.688 58.9601 9.956 59.1041 10.196C59.2561 10.436 59.4521 10.632 59.6921 10.784ZM63.5004 10.784C63.7404 10.928 64.0084 11 64.3044 11H69.7644V9.572H64.3524C64.2884 9.572 64.2324 9.552 64.1844 9.512C64.1444 9.464 64.1244 9.408 64.1244 9.344V8.24H69.7644V5.648C69.7644 5.352 69.6924 5.084 69.5484 4.844C69.4044 4.604 69.2124 4.412 68.9724 4.268C68.7324 4.116 68.4604 4.04 68.1564 4.04H64.3044C64.0084 4.04 63.7404 4.116 63.5004 4.268C63.2604 4.412 63.0644 4.604 62.9124 4.844C62.7684 5.084 62.6964 5.352 62.6964 5.648V9.392C62.6964 9.688 62.7684 9.956 62.9124 10.196C63.0644 10.436 63.2604 10.632 63.5004 10.784ZM68.3364 6.932H64.1244V5.696C64.1244 5.632 64.1444 5.58 64.1844 5.54C64.2324 5.492 64.2884 5.468 64.3524 5.468H68.1084C68.1724 5.468 68.2244 5.492 68.2644 5.54C68.3124 5.58 68.3364 5.632 68.3364 5.696V6.932ZM74.3872 4.04L77.1232 11H78.2632L80.3752 6.092L82.5952 11H83.7232L86.3512 4.04H84.8152L83.1592 8.42L81.1432 4.04H79.5952L77.6992 8.396L75.9112 4.04H74.3872ZM87.934 10.784C88.182 10.928 88.454 11 88.75 11H94.21V5.648C94.21 5.352 94.138 5.084 93.994 4.844C93.85 4.604 93.658 4.412 93.418 4.268C93.178 4.116 92.906 4.04 92.602 4.04H87.142V5.468H92.554C92.618 5.468 92.67 5.492 92.71 5.54C92.758 5.58 92.782 5.632 92.782 5.696V6.8H87.142V9.392C87.142 9.688 87.214 9.956 87.358 10.196C87.502 10.436 87.694 10.632 87.934 10.784ZM92.782 9.572H88.798C88.734 9.572 88.678 9.552 88.63 9.512C88.59 9.464 88.57 9.408 88.57 9.344V8.108H92.782V9.572ZM96.0553 10.784C96.2953 10.928 96.5633 11 96.8593 11H98.2033V9.572H96.9073C96.8513 9.572 96.7993 9.552 96.7513 9.512C96.7113 9.464 96.6913 9.408 96.6913 9.344V1.748H95.2513V9.392C95.2513 9.688 95.3233 9.956 95.4673 10.196C95.6193 10.436 95.8153 10.632 96.0553 10.784ZM99.9577 10.784C100.198 10.928 100.466 11 100.762 11H102.106V9.572H100.81C100.754 9.572 100.702 9.552 100.654 9.512C100.614 9.464 100.594 9.408 100.594 9.344V1.748H99.1537V9.392C99.1537 9.688 99.2257 9.956 99.3697 10.196C99.5217 10.436 99.7177 10.632 99.9577 10.784ZM103.766 10.784C104.006 10.928 104.274 11 104.57 11H110.03V9.572H104.618C104.554 9.572 104.498 9.552 104.45 9.512C104.41 9.464 104.39 9.408 104.39 9.344V8.24H110.03V5.648C110.03 5.352 109.958 5.084 109.814 4.844C109.67 4.604 109.478 4.412 109.238 4.268C108.998 4.116 108.726 4.04 108.422 4.04H104.57C104.274 4.04 104.006 4.116 103.766 4.268C103.526 4.412 103.33 4.604 103.178 4.844C103.034 5.084 102.962 5.352 102.962 5.648V9.392C102.962 9.688 103.034 9.956 103.178 10.196C103.33 10.436 103.526 10.632 103.766 10.784ZM108.602 6.932H104.39V5.696C104.39 5.632 104.41 5.58 104.45 5.54C104.498 5.492 104.554 5.468 104.618 5.468H108.374C108.438 5.468 108.49 5.492 108.53 5.54C108.578 5.58 108.602 5.632 108.602 5.696V6.932ZM112.087 10.784C112.335 10.928 112.607 11 112.903 11H115.507V9.572H112.951C112.887 9.572 112.831 9.552 112.783 9.512C112.743 9.464 112.723 9.408 112.723 9.344V5.468H115.507V4.04H112.723V1.868H111.295V9.392C111.295 9.688 111.367 9.956 111.511 10.196C111.655 10.436 111.847 10.632 112.087 10.784Z" fill="url(#paint0_linear_667_35513)"/>
<defs>
<linearGradient id="paint0_linear_667_35513" x1="115.507" y1="12" x2="42.8892" y2="-50.1293" gradientUnits="userSpaceOnUse">
<stop stop-color="#B224EF"/>
<stop offset="1" stop-color="#7579FF"/>
</linearGradient>
</defs>
</svg>
