<svg viewBox="0 0 14 15" fill="none" xmlns="http://www.w3.org/2000/svg">
<path id="Path" d="M12.8307 7.50265V7.50265C12.829 7.57633 12.8152 7.64924 12.7899 7.71848C12.7764 7.74312 12.7608 7.76654 12.7432 7.78848C12.728 7.8208 12.7104 7.85199 12.6907 7.88181L9.19073 11.9651C9.05527 12.1235 8.84559 12.1976 8.64069 12.1595C8.4358 12.1214 8.2668 11.9768 8.19736 11.7803C8.12792 11.5838 8.1686 11.3652 8.30406 11.2068L10.9816 8.08598H1.7474C1.42523 8.08598 1.16406 7.82481 1.16406 7.50265C1.16406 7.18048 1.42523 6.91931 1.7474 6.91931H10.9816L8.30406 3.79848C8.1686 3.64009 8.12792 3.42147 8.19736 3.22496C8.2668 3.02845 8.4358 2.88391 8.64069 2.84579C8.84559 2.80767 9.05527 2.88176 9.19073 3.04015L12.6907 7.12348C12.7104 7.1533 12.728 7.18449 12.7432 7.21681C12.7608 7.23875 12.7764 7.26217 12.7899 7.28681C12.8152 7.35605 12.829 7.42896 12.8307 7.50265Z" fill="currentColor"/>
</svg>
