<svg viewBox="0 0 20 20" fill="none" xmlns="http://www.w3.org/2000/svg">
<path fill-rule="evenodd" clip-rule="evenodd" d="M6.73073 13.3308C6.8224 14.1641 7.08073 14.1641 7.5224 14.1641H16.6641C16.9005 14.1668 17.1247 14.2698 17.2807 14.4475C18.1607 14.9501 18.5513 16.013 18.2062 16.9658C17.8612 17.9186 16.8806 18.485 15.8829 18.3077C14.8851 18.1303 14.1597 17.2608 14.1641 16.2475C14.1651 16.1076 14.1791 15.9681 14.2057 15.8308H10.8307C10.8574 15.9681 10.8713 16.1076 10.8724 16.2475C10.8724 17.3981 9.93966 18.3308 8.78906 18.3308C7.63847 18.3308 6.70573 17.3981 6.70573 16.2475C6.7063 16.0786 6.72871 15.9106 6.7724 15.7475C5.03906 15.3391 4.9974 13.5391 4.9974 12.5641L3.45573 3.3308H2.4974C2.03716 3.3308 1.66406 2.9577 1.66406 2.49747C1.66406 2.03723 2.03716 1.66413 2.4974 1.66413H4.16406C4.57689 1.65882 4.93137 1.95658 4.9974 2.36413L5.1474 3.3308L17.5557 4.16413C17.993 4.19482 18.3318 4.55908 18.3307 4.99747V10.1225C18.3346 11.4317 17.3277 12.5221 16.0224 12.6225L6.73073 13.3308ZM14.1641 8.3308C14.1641 8.79104 13.791 9.16413 13.3307 9.16413H12.4974V9.99747C12.4974 10.4577 12.1243 10.8308 11.6641 10.8308C11.2038 10.8308 10.8307 10.4577 10.8307 9.99747V9.16413H9.9974C9.53716 9.16413 9.16406 8.79104 9.16406 8.3308C9.16406 7.87056 9.53716 7.49747 9.9974 7.49747H10.8307V6.66413C10.8307 6.2039 11.2038 5.8308 11.6641 5.8308C12.1243 5.8308 12.4974 6.2039 12.4974 6.66413V7.49747H13.3307C13.791 7.49747 14.1641 7.87056 14.1641 8.3308ZM16.2474 16.6641C16.0173 16.6641 15.8307 16.4776 15.8307 16.2475C15.8307 16.0173 16.0173 15.8308 16.2474 15.8308C16.4775 15.8308 16.6641 16.0173 16.6641 16.2475C16.6641 16.4776 16.4775 16.6641 16.2474 16.6641ZM8.33073 16.2475C8.33073 16.4776 8.51728 16.6641 8.7474 16.6641C8.97751 16.6641 9.16406 16.4776 9.16406 16.2475C9.16406 16.0173 8.97751 15.8308 8.7474 15.8308C8.51728 15.8308 8.33073 16.0173 8.33073 16.2475ZM16.6641 10.1225C16.6655 10.5579 16.3314 10.921 15.8974 10.9558L6.5974 11.6641H6.53906L5.43073 4.99747L16.6641 5.7808V10.1225Z" fill="currentColor"/>
</svg>
