<svg viewBox="0 0 16 16" fill="none" xmlns="http://www.w3.org/2000/svg">
<path id="Shape" fill-rule="evenodd" clip-rule="evenodd" d="M12.0842 14.611C13.7432 14.0121 14.8454 12.4334 14.8359 10.6696C14.834 9.77449 14.5416 8.90421 14.0026 8.18958C14.026 8.12996 14.0396 8.0669 14.0426 8.00291L14.0026 3.18958C13.9807 2.14647 13.1191 1.31765 12.0759 1.33624H3.2626C2.21943 1.31765 1.35781 2.14647 1.33594 3.18958V11.4829C1.35781 12.526 2.21943 13.3548 3.2626 13.3362H7.33594C7.37365 13.3395 7.41156 13.3395 7.44927 13.3362C8.56867 14.6994 10.4251 15.21 12.0842 14.611ZM11.3359 4.66958C11.3359 4.30139 11.0375 4.00291 10.6693 4.00291H4.66927C4.30108 4.00291 4.0026 4.30139 4.0026 4.66958C4.0026 5.03777 4.30108 5.33624 4.66927 5.33624H10.6693C11.0375 5.33624 11.3359 5.03777 11.3359 4.66958ZM12.4759 9.52958C12.6021 9.65476 12.6731 9.82515 12.6731 10.0029C12.6731 10.1807 12.6021 10.3511 12.4759 10.4762L10.4759 12.4762C10.3501 12.601 10.1798 12.6706 10.0026 12.6696H9.89594C9.68544 12.6344 9.50452 12.5006 9.40927 12.3096L8.7426 10.9762C8.61376 10.7621 8.61549 10.4939 8.74707 10.2815C8.87866 10.069 9.118 9.94802 9.3671 9.96799C9.61619 9.98796 9.83321 10.1456 9.92927 10.3762L10.1826 10.8829L11.5159 9.54958C11.6389 9.41656 11.8106 9.33927 11.9917 9.3355C12.1728 9.33172 12.3476 9.40179 12.4759 9.52958ZM10.6693 6.50291C11.3707 6.50611 12.0594 6.68978 12.6693 7.03624V3.19624C12.6607 3.04763 12.5933 2.90854 12.482 2.80972C12.3706 2.7109 12.2245 2.66047 12.0759 2.66958H3.2626C2.95557 2.65052 2.69065 2.8827 2.66927 3.18958V11.4829C2.69065 11.7898 2.95557 12.022 3.2626 12.0029H6.7226C6.29313 10.7314 6.50244 9.3308 7.2849 8.24038C8.06736 7.14996 9.32716 6.5032 10.6693 6.50291ZM10.6693 7.83624C12.2341 7.83624 13.5026 9.10477 13.5026 10.6696C13.4989 12.2329 12.2326 13.4992 10.6693 13.5029C9.10446 13.5029 7.83594 12.2344 7.83594 10.6696C7.83594 9.10477 9.10446 7.83624 10.6693 7.83624Z" fill="currentColor"/>
</svg>
