<svg viewBox="0 0 16 16" fill="none" xmlns="http://www.w3.org/2000/svg">
<path id="Vector" d="M12.6693 13.9974H5.33594V4.66406H12.6693M12.6693 3.33073H5.33594C4.98232 3.33073 4.64318 3.4712 4.39313 3.72125C4.14308 3.9713 4.0026 4.31044 4.0026 4.66406V13.9974C4.0026 14.351 4.14308 14.6902 4.39313 14.9402C4.64318 15.1903 4.98232 15.3307 5.33594 15.3307H12.6693C13.0229 15.3307 13.362 15.1903 13.6121 14.9402C13.8621 14.6902 14.0026 14.351 14.0026 13.9974V4.66406C14.0026 4.31044 13.8621 3.9713 13.6121 3.72125C13.362 3.4712 13.0229 3.33073 12.6693 3.33073ZM10.6693 0.664062H2.66927C2.31565 0.664063 1.97651 0.804538 1.72646 1.05459C1.47641 1.30464 1.33594 1.64377 1.33594 1.9974V11.3307H2.66927V1.9974H10.6693V0.664062Z" fill="currentColor"/>
</svg>
