<svg viewBox="0 0 20 20" fill="none" xmlns="http://www.w3.org/2000/svg">
<path id="Vector" d="M5.0026 1.66406C4.56058 1.66406 4.13665 1.83966 3.82409 2.15222C3.51153 2.46478 3.33594 2.8887 3.33594 3.33073V16.6641C3.33594 17.1061 3.51153 17.53 3.82409 17.8426C4.13665 18.1551 4.56058 18.3307 5.0026 18.3307H15.0026C15.4446 18.3307 15.8686 18.1551 16.1811 17.8426C16.4937 17.53 16.6693 17.1061 16.6693 16.6641V6.66406L11.6693 1.66406H5.0026ZM5.0026 3.33073H10.8359V7.4974H15.0026V16.6641H5.0026V3.33073ZM6.66927 9.9974V11.6641H13.3359V9.9974H6.66927ZM6.66927 13.3307V14.9974H10.8359V13.3307H6.66927Z" fill="currentColor"/>
</svg>
