<svg xmlns="http://www.w3.org/2000/svg" width="15" height="15" viewBox="0 0 15 15" fill="none">
  <path fill-rule="evenodd" clip-rule="evenodd" d="M12.1654 0.833496H2.83203C1.72746 0.833496 0.832031 1.72893 0.832031 2.8335V4.16683C0.832031 4.53502 1.13051 4.8335 1.4987 4.8335H2.16536V12.1668C2.16536 13.2714 3.06079 14.1668 4.16536 14.1668H10.832C11.9366 14.1668 12.832 13.2714 12.832 12.1668V4.8335H13.4987C13.8669 4.8335 14.1654 4.53502 14.1654 4.16683V2.8335C14.1654 1.72893 13.2699 0.833496 12.1654 0.833496ZM11.4987 12.1668C11.4987 12.535 11.2002 12.8335 10.832 12.8335H4.16536C3.79717 12.8335 3.4987 12.535 3.4987 12.1668V4.8335H11.4987V12.1668ZM2.16536 3.50016H12.832V2.8335C12.832 2.46531 12.5336 2.16683 12.1654 2.16683H2.83203C2.46384 2.16683 2.16536 2.46531 2.16536 2.8335V3.50016ZM4.83203 10.8335V6.8335C4.83203 6.46531 5.13051 6.16683 5.4987 6.16683C5.86689 6.16683 6.16536 6.46531 6.16536 6.8335V10.8335C6.16536 11.2017 5.86689 11.5002 5.4987 11.5002C5.13051 11.5002 4.83203 11.2017 4.83203 10.8335ZM8.83203 6.8335V10.8335C8.83203 11.2017 9.13051 11.5002 9.4987 11.5002C9.86689 11.5002 10.1654 11.2017 10.1654 10.8335V6.8335C10.1654 6.46531 9.86689 6.16683 9.4987 6.16683C9.13051 6.16683 8.83203 6.46531 8.83203 6.8335Z" fill="#F2F2F2"/>
</svg>