<svg width="20" height="20" viewBox="0 0 20 20" fill="none" xmlns="http://www.w3.org/2000/svg">
<g id="file-document-outline">
<path id="Vector" d="M4.99967 1.66406C4.55765 1.66406 4.13372 1.83966 3.82116 2.15222C3.5086 2.46478 3.33301 2.8887 3.33301 3.33073V16.6641C3.33301 17.1061 3.5086 17.53 3.82116 17.8426C4.13372 18.1551 4.55765 18.3307 4.99967 18.3307H14.9997C15.4417 18.3307 15.8656 18.1551 16.1782 17.8426C16.4907 17.53 16.6663 17.1061 16.6663 16.6641V6.66406L11.6663 1.66406H4.99967ZM4.99967 3.33073H10.833V7.4974H14.9997V16.6641H4.99967V3.33073ZM6.66634 9.9974V11.6641H13.333V9.9974H6.66634ZM6.66634 13.3307V14.9974H10.833V13.3307H6.66634Z" fill="#F2F2F2"/>
</g>
</svg>
