<svg width="10" height="10" viewBox="0 0 10 10" fill="none" xmlns="http://www.w3.org/2000/svg">
<path fill-rule="evenodd" clip-rule="evenodd" d="M8.53606 8.53606C6.57417 10.4309 3.45564 10.4038 1.52697 8.47515C-0.401702 6.54648 -0.428801 3.42795 1.46606 1.46606C3.42795 -0.428801 6.54648 -0.401702 8.47515 1.52697C10.4038 3.45564 10.4309 6.57417 8.53606 8.53606ZM7.13106 3.58106L5.70606 5.00106L7.13106 6.42106C7.22572 6.51494 7.27896 6.64274 7.27896 6.77606C7.27896 6.90938 7.22572 7.03718 7.13106 7.13106C7.0367 7.22465 6.90896 7.27683 6.77606 7.27606C6.64316 7.27683 6.51542 7.22465 6.42106 7.13106L5.00106 5.70606L3.58106 7.13106C3.4867 7.22465 3.35896 7.27683 3.22606 7.27606C3.09316 7.27683 2.96542 7.22465 2.87106 7.13106C2.7764 7.03718 2.72316 6.90938 2.72316 6.77606C2.72316 6.64274 2.7764 6.51494 2.87106 6.42106L4.29606 5.00106L2.87106 3.58106C2.74423 3.45423 2.6947 3.26937 2.74112 3.09612C2.78754 2.92287 2.92287 2.78754 3.09612 2.74112C3.26937 2.6947 3.45423 2.74423 3.58106 2.87106L5.00106 4.29606L6.42106 2.87106C6.54789 2.74423 6.73275 2.6947 6.906 2.74112C7.07925 2.78754 7.21458 2.92287 7.261 3.09612C7.30742 3.26937 7.25789 3.45423 7.13106 3.58106ZM2.17526 2.17316C3.73665 0.61118 6.2685 0.610241 7.83106 2.17106C8.58836 2.91803 9.01469 3.93736 9.01469 5.00106C9.01469 6.06477 8.58836 7.08409 7.83106 7.83106C6.2685 9.39188 3.73665 9.39094 2.17526 7.82896C0.613857 6.26699 0.613857 3.73513 2.17526 2.17316Z" fill="#F53B00"/>
</svg>
