<svg xmlns="http://www.w3.org/2000/svg" width="16" height="11" viewBox="0 0 16 11" fill="none">
<path d="M7.9974 3.5C7.46696 3.5 6.95825 3.71071 6.58318 4.08579C6.20811 4.46086 5.9974 4.96957 5.9974 5.5C5.9974 6.03043 6.20811 6.53914 6.58318 6.91421C6.95825 7.28929 7.46696 7.5 7.9974 7.5C8.52783 7.5 9.03654 7.28929 9.41161 6.91421C9.78668 6.53914 9.9974 6.03043 9.9974 5.5C9.9974 4.96957 9.78668 4.46086 9.41161 4.08579C9.03654 3.71071 8.52783 3.5 7.9974 3.5ZM7.9974 8.83333C7.11334 8.83333 6.26549 8.48214 5.64037 7.85702C5.01525 7.2319 4.66406 6.38406 4.66406 5.5C4.66406 4.61595 5.01525 3.7681 5.64037 3.14298C6.26549 2.51786 7.11334 2.16667 7.9974 2.16667C8.88145 2.16667 9.7293 2.51786 10.3544 3.14298C10.9795 3.7681 11.3307 4.61595 11.3307 5.5C11.3307 6.38406 10.9795 7.2319 10.3544 7.85702C9.7293 8.48214 8.88145 8.83333 7.9974 8.83333ZM7.9974 0.5C4.66406 0.5 1.8174 2.57333 0.664062 5.5C1.8174 8.42667 4.66406 10.5 7.9974 10.5C11.3307 10.5 14.1774 8.42667 15.3307 5.5C14.1774 2.57333 11.3307 0.5 7.9974 0.5Z" fill="#F2F2F2"/>
</svg>