<svg width="28" height="28" viewBox="0 0 28 28" fill="none" xmlns="http://www.w3.org/2000/svg">
<g id="Group">
<g id="Layer_38">
<path id="Path" d="M27.3332 13.9974C27.3332 14.7338 26.7362 15.3307 25.9998 15.3307H15.3332V25.9974C15.3332 26.7338 14.7362 27.3307 13.9998 27.3307C13.2635 27.3307 12.6665 26.7338 12.6665 25.9974V15.3307H1.99984C1.26346 15.3307 0.666504 14.7338 0.666504 13.9974C0.666504 13.261 1.26346 12.6641 1.99984 12.6641H12.6665V1.9974C12.6665 1.26102 13.2635 0.664062 13.9998 0.664062C14.7362 0.664062 15.3332 1.26102 15.3332 1.9974V12.6641H25.9998C26.7362 12.6641 27.3332 13.261 27.3332 13.9974Z" fill="#F2F2F2"/>
</g>
</g>
</svg>
