<svg width="14" height="11" viewBox="0 0 14 11" fill="none" xmlns="http://www.w3.org/2000/svg">
<g id="Group">
<g id="Layer_4">
<path id="Path" d="M13.6663 5.49744C13.6663 5.86563 13.3679 6.16411 12.9997 6.16411H2.44634L5.50634 9.73077C5.74566 10.0106 5.71283 10.4315 5.43301 10.6708C5.15318 10.9101 4.73233 10.8773 4.49301 10.5974L0.493008 5.93078C0.469125 5.89755 0.449002 5.86177 0.433008 5.82411C0.412942 5.79904 0.395097 5.77227 0.379674 5.74411C0.350788 5.66498 0.335025 5.58166 0.333008 5.49744C0.335025 5.41323 0.350788 5.32991 0.379674 5.25077C0.395097 5.22261 0.412942 5.19584 0.433008 5.17077C0.449002 5.13311 0.469125 5.09734 0.493008 5.06411L4.49301 0.397442C4.73233 0.117617 5.15318 0.0847849 5.43301 0.324108C5.71283 0.563432 5.74566 0.984284 5.50634 1.26411L2.44634 4.83077H12.9997C13.3679 4.83077 13.6663 5.12925 13.6663 5.49744Z" fill="#F2F2F2"/>
</g>
</g>
</svg>
