<svg width="20" height="20" viewBox="0 0 20 20" fill="none" xmlns="http://www.w3.org/2000/svg">
<path d="M13.332 10.0007C13.332 9.55862 13.5076 9.1347 13.8202 8.82214C14.1327 8.50958 14.5567 8.33398 14.9987 8.33398C15.4407 8.33398 15.8646 8.50958 16.1772 8.82214C16.4898 9.1347 16.6654 9.55862 16.6654 10.0007C16.6654 10.4427 16.4898 10.8666 16.1772 11.1792C15.8646 11.4917 15.4407 11.6673 14.9987 11.6673C14.5567 11.6673 14.1327 11.4917 13.8202 11.1792C13.5076 10.8666 13.332 10.4427 13.332 10.0007ZM8.33203 10.0007C8.33203 9.55862 8.50763 9.1347 8.82019 8.82214C9.13275 8.50958 9.55667 8.33398 9.9987 8.33398C10.4407 8.33398 10.8646 8.50958 11.1772 8.82214C11.4898 9.1347 11.6654 9.55862 11.6654 10.0007C11.6654 10.4427 11.4898 10.8666 11.1772 11.1792C10.8646 11.4917 10.4407 11.6673 9.9987 11.6673C9.55667 11.6673 9.13275 11.4917 8.82019 11.1792C8.50763 10.8666 8.33203 10.4427 8.33203 10.0007ZM3.33203 10.0007C3.33203 9.55862 3.50763 9.1347 3.82019 8.82214C4.13275 8.50958 4.55667 8.33398 4.9987 8.33398C5.44073 8.33398 5.86465 8.50958 6.17721 8.82214C6.48977 9.1347 6.66536 9.55862 6.66536 10.0007C6.66536 10.4427 6.48977 10.8666 6.17721 11.1792C5.86465 11.4917 5.44073 11.6673 4.9987 11.6673C4.55667 11.6673 4.13275 11.4917 3.82019 11.1792C3.50763 10.8666 3.33203 10.4427 3.33203 10.0007Z" fill="#404040"/>
</svg>
