<svg width="18" height="18" viewBox="0 0 18 18" fill="none" xmlns="http://www.w3.org/2000/svg">
<g id="Group">
<g id="Layer_55">
<path id="Shape" fill-rule="evenodd" clip-rule="evenodd" d="M14.8346 0.667969H3.16797C1.78726 0.667969 0.667969 1.78726 0.667969 3.16797V14.8346C0.667969 16.2153 1.78726 17.3346 3.16797 17.3346H14.8346C16.2153 17.3346 17.3346 16.2153 17.3346 14.8346V3.16797C17.3346 1.78726 16.2153 0.667969 14.8346 0.667969ZM5.6013 13.4846C5.56164 13.5869 5.50217 13.6804 5.4263 13.7596C5.3453 13.8332 5.25229 13.8924 5.1513 13.9346C5.05112 13.9773 4.94353 14 4.83464 14.0013C4.614 13.9982 4.40266 13.9119 4.24297 13.7596C4.1671 13.6804 4.10763 13.5869 4.06797 13.4846C3.97882 13.2829 3.97882 13.053 4.06797 12.8513C4.10763 12.749 4.1671 12.6556 4.24297 12.5763C4.4826 12.3398 4.84097 12.2708 5.1513 12.4013C5.25229 12.4435 5.3453 12.5027 5.4263 12.5763C5.50217 12.6556 5.56164 12.749 5.6013 12.8513C5.69045 13.053 5.69045 13.2829 5.6013 13.4846ZM5.61797 9.31797C5.642 9.27073 5.65885 9.22018 5.66797 9.16797C5.67206 9.11249 5.67206 9.05678 5.66797 9.0013C5.6649 8.78066 5.57858 8.56933 5.4263 8.40964C5.3453 8.33603 5.25229 8.27684 5.1513 8.23464C4.84097 8.10414 4.4826 8.17318 4.24297 8.40964C4.1658 8.48786 4.10615 8.5816 4.06797 8.68464C4.02527 8.78482 4.00262 8.8924 4.0013 9.0013C4.00002 9.22281 4.08698 9.4357 4.24297 9.59297C4.40266 9.74525 4.614 9.83157 4.83464 9.83464C4.94915 9.83555 5.06262 9.81286 5.16797 9.76797C5.26896 9.72577 5.36197 9.66658 5.44297 9.59297L5.54297 9.46797C5.57451 9.42151 5.59973 9.37107 5.61797 9.31797ZM5.4263 5.4263C5.3453 5.49991 5.25229 5.5591 5.1513 5.6013C5.0524 5.64795 4.94395 5.67079 4.83464 5.66797C4.614 5.6649 4.40266 5.57858 4.24297 5.4263C4.08698 5.26904 4.00002 5.05614 4.0013 4.83464C4.00262 4.72574 4.02527 4.61815 4.06797 4.51797C4.11017 4.41698 4.16936 4.32397 4.24297 4.24297C4.4826 4.00651 4.84097 3.93747 5.1513 4.06797C5.25229 4.11017 5.3453 4.16936 5.4263 4.24297C5.49991 4.32397 5.5591 4.41698 5.6013 4.51797C5.644 4.61815 5.66665 4.72574 5.66797 4.83464C5.6649 5.05527 5.57858 5.26661 5.4263 5.4263ZM8.16797 14.0013H13.168C13.6282 14.0013 14.0013 13.6282 14.0013 13.168C14.0013 12.7077 13.6282 12.3346 13.168 12.3346H8.16797C7.70773 12.3346 7.33464 12.7077 7.33464 13.168C7.33464 13.6282 7.70773 14.0013 8.16797 14.0013ZM13.168 9.83464H8.16797C7.70773 9.83464 7.33464 9.46154 7.33464 9.0013C7.33464 8.54106 7.70773 8.16797 8.16797 8.16797H13.168C13.6282 8.16797 14.0013 8.54106 14.0013 9.0013C14.0013 9.46154 13.6282 9.83464 13.168 9.83464ZM8.16797 5.66797H13.168C13.6282 5.66797 14.0013 5.29487 14.0013 4.83464C14.0013 4.3744 13.6282 4.0013 13.168 4.0013H8.16797C7.70773 4.0013 7.33464 4.3744 7.33464 4.83464C7.33464 5.29487 7.70773 5.66797 8.16797 5.66797Z" fill="#F2F2F2"/>
</g>
</g>
</svg>
