<svg width="18" height="18" viewBox="0 0 18 18" fill="none" xmlns="http://www.w3.org/2000/svg">
<g id="Group">
<g id="Layer_31">
<path id="Shape" fill-rule="evenodd" clip-rule="evenodd" d="M12.592 11.4141L17.092 15.9057C17.2498 16.0622 17.3385 16.2752 17.3385 16.4974C17.3385 16.7196 17.2498 16.9326 17.092 17.0891C16.9355 17.2468 16.7225 17.3356 16.5003 17.3356C16.2781 17.3356 16.0651 17.2468 15.9087 17.0891L11.417 12.5891C10.2524 13.5032 8.81421 13.9992 7.33366 13.9974C3.65176 13.9974 0.666992 11.0126 0.666992 7.33073C0.666992 3.64883 3.65176 0.664062 7.33366 0.664062C11.0156 0.664062 14.0003 3.64883 14.0003 7.33073C14.0022 8.81128 13.5061 10.2494 12.592 11.4141ZM7.33366 2.33073C4.57223 2.33073 2.33366 4.56931 2.33366 7.33073C2.33366 10.0922 4.57223 12.3307 7.33366 12.3307C10.0951 12.3307 12.3337 10.0922 12.3337 7.33073C12.3337 4.56931 10.0951 2.33073 7.33366 2.33073Z" fill="#F2F2F2"/>
</g>
</g>
</svg>
