<svg width="14" height="14" viewBox="0 0 14 14" fill="none" xmlns="http://www.w3.org/2000/svg">
<g id="Group">
<g id="Layer_65">
<path id="Path" d="M13.4735 12.5242C13.5997 12.6494 13.6707 12.8198 13.6707 12.9975C13.6707 13.1753 13.5997 13.3457 13.4735 13.4709C13.3483 13.5971 13.1779 13.6681 13.0001 13.6681C12.8224 13.6681 12.652 13.5971 12.5268 13.4709L7.00012 7.93753L1.47346 13.4709C1.34828 13.5971 1.17788 13.6681 1.00012 13.6681C0.822364 13.6681 0.651966 13.5971 0.526789 13.4709C0.40058 13.3457 0.32959 13.1753 0.32959 12.9975C0.32959 12.8198 0.40058 12.6494 0.526789 12.5242L6.06012 6.99753L0.526789 1.47087C0.357683 1.30176 0.29164 1.05529 0.353537 0.824283C0.415434 0.59328 0.595867 0.412846 0.82687 0.350949C1.05787 0.289052 1.30435 0.355096 1.47346 0.524201L7.00012 6.05753L12.5268 0.524201C12.7882 0.262787 13.212 0.262787 13.4735 0.524201C13.7349 0.785616 13.7349 1.20945 13.4735 1.47087L7.94012 6.99753L13.4735 12.5242Z" fill="white"/>
</g>
</g>
</svg>
