<svg width="36" height="37" viewBox="0 0 36 37" fill="none" xmlns="http://www.w3.org/2000/svg">
<g id="Loading">
<path id="Ellipse 115" d="M27.5459 28.0459C28.1317 28.6317 28.136 29.5882 27.4947 30.1126C25.2138 31.9775 22.4243 33.1368 19.4703 33.4278C16.0166 33.7679 12.5519 32.9001 9.66645 30.972C6.78097 29.044 4.65328 26.1752 3.64589 22.8543C2.63851 19.5334 2.81377 15.9659 4.14181 12.7597C5.46985 9.55358 7.86849 6.90708 10.929 5.27118C13.9896 3.63528 17.5227 3.11119 20.9264 3.78822C24.33 4.46525 27.3936 6.3015 29.5952 8.9841C31.4782 11.2786 32.631 14.0709 32.9251 17.0024C33.0078 17.8267 32.3284 18.5 31.5 18.5C30.6716 18.5 30.0097 17.8258 29.9064 17.0038C29.6254 14.7678 28.7186 12.645 27.2761 10.8873C25.5149 8.7412 23.064 7.2722 20.3411 6.73058C17.6182 6.18895 14.7917 6.60822 12.3432 7.91694C9.89479 9.22567 7.97588 11.3429 6.91345 13.9078C5.85102 16.4727 5.71081 19.3267 6.51672 21.9834C7.32262 24.6401 9.02478 26.9352 11.3332 28.4776C13.6415 30.02 16.4133 30.7143 19.1762 30.4422C21.4391 30.2193 23.5813 29.3595 25.3611 27.977C26.0154 27.4688 26.9602 27.4602 27.5459 28.0459Z" fill="url(#paint0_linear_3498_38178)"/>
</g>
<defs>
<linearGradient id="paint0_linear_3498_38178" x1="5.625" y1="11" x2="30.375" y2="24.125" gradientUnits="userSpaceOnUse">
<stop stop-color="#404040"/>
<stop offset="1" stop-color="#404040" stop-opacity="0"/>
</linearGradient>
</defs>
</svg>
