<svg width="31" height="30" viewBox="0 0 31 30" fill="none" xmlns="http://www.w3.org/2000/svg">
<path id="Vector" d="M19.6322 6.33287C24.4156 8.33889 26.6705 13.8619 24.6633 18.6422C23.1514 22.2364 19.6548 24.4031 15.978 24.4031C15.1449 24.4031 14.3053 24.2937 13.4753 24.0623L12.224 27.0392C18.3616 28.9617 25.0847 25.9269 27.6227 19.8832C29.1345 16.289 28.9158 12.2609 26.9697 8.78251C25.8727 6.82472 24.2548 5.19162 22.3054 4.07931C18.8441 2.10544 14.8232 1.85147 11.214 3.32706C8.09373 4.60011 5.65543 7.0144 4.35265 10.1199C2.38399 14.8038 3.40692 20.1789 6.95822 23.8148L5.25334 25.4768C1.03617 21.1561 -0.179767 14.7652 2.15882 9.19722C3.71251 5.50346 6.60759 2.63587 10.3165 1.12172C14.0254 -0.392436 18.1043 -0.373148 21.7971 1.17637C25.4931 2.72589 28.3625 5.6224 29.8777 9.32903C31.3927 13.0356 31.3734 17.112 29.8229 20.8026C28.2724 24.4963 25.3742 27.3639 21.6652 28.8781C19.8316 29.6271 17.9113 30 15.9909 30C14.5916 30 13.1923 29.8007 11.8283 29.4052C10.8923 29.132 10.0045 28.7141 9.17778 28.203L9.5477 27.2642L11.2815 23.1397C7.24451 20.809 5.46886 15.7682 7.31849 11.3607C8.27387 9.08793 10.0495 7.30694 12.3238 6.34251L13.2534 8.53498C11.5582 9.25188 10.2297 10.5828 9.51554 12.2801C8.17415 15.4757 9.38365 19.1148 12.2144 20.9151L18.5642 5.85386M14.4115 21.8409C17.6797 22.5964 21.128 20.9119 22.4694 17.7196C23.8109 14.5273 22.6013 10.885 19.7706 9.0847L14.4115 21.8441V21.8409Z" fill="#191919"/>
</svg>
