<svg width="14" height="15" viewBox="0 0 14 15" fill="none" xmlns="http://www.w3.org/2000/svg">
<g id="Group">
<g id="Layer_26">
<path id="Shape" fill-rule="evenodd" clip-rule="evenodd" d="M10.333 4.16927C10.333 2.32832 8.84062 0.835938 6.99967 0.835938C5.15873 0.835938 3.66634 2.32832 3.66634 4.16927C3.66634 6.01022 5.15873 7.5026 6.99967 7.5026H6.33301C3.0193 7.5026 0.333008 10.1889 0.333008 13.5026C0.333008 13.8708 0.631485 14.1693 0.999674 14.1693H12.9997C13.3679 14.1693 13.6663 13.8708 13.6663 13.5026C13.6663 10.1889 10.9801 7.5026 7.66634 7.5026H6.99967C7.88373 7.5026 8.73158 7.15141 9.3567 6.52629C9.98182 5.90117 10.333 5.05333 10.333 4.16927ZM6.33301 8.83594C4.01275 8.83534 2.04447 10.5395 1.71301 12.8359H12.2863C11.9549 10.5395 9.98659 8.83534 7.66634 8.83594H6.33301ZM4.99967 4.16927C4.99967 5.27384 5.8951 6.16927 6.99967 6.16927C7.53011 6.16927 8.03882 5.95856 8.41389 5.58348C8.78896 5.20841 8.99967 4.6997 8.99967 4.16927C8.99967 3.0647 8.10424 2.16927 6.99967 2.16927C5.8951 2.16927 4.99967 3.0647 4.99967 4.16927Z" fill="#F2F2F2"/>
</g>
</g>
</svg>
