<svg width="20" height="21" viewBox="0 0 20 21" fill="none" xmlns="http://www.w3.org/2000/svg">
<g id="Group">
<g id="Layer_41">
<path id="Shape" fill-rule="evenodd" clip-rule="evenodd" d="M10 20.5C4.47715 20.5 0 16.0228 0 10.5C0 4.97715 4.47715 0.5 10 0.5C12.6522 0.5 15.1957 1.55357 17.0711 3.42893C18.9464 5.3043 20 7.84784 20 10.5C20 16.0228 15.5228 20.5 10 20.5ZM16 10.5C16 11.0523 15.5523 11.5 15 11.5H11V15.5C11 16.0523 10.5523 16.5 10 16.5C9.44771 16.5 9 16.0523 9 15.5V11.5H5C4.44772 11.5 4 11.0523 4 10.5C4 9.94771 4.44772 9.5 5 9.5H9V5.5C9 4.94772 9.44771 4.5 10 4.5C10.5523 4.5 11 4.94772 11 5.5V9.5H15C15.5523 9.5 16 9.94771 16 10.5ZM10 2.5C14.4183 2.5 18 6.08172 18 10.5C18 12.6217 17.1571 14.6566 15.6569 16.1569C14.1566 17.6571 12.1217 18.5 10 18.5C5.58172 18.5 2 14.9183 2 10.5C2 6.08172 5.58172 2.5 10 2.5Z" fill="#F2F2F2"/>
</g>
</g>
</svg>
