<svg width="16" height="17" viewBox="0 0 16 17" fill="none" xmlns="http://www.w3.org/2000/svg">
<g id="card-multiple">
<path id="Vector" d="M2 2.5026C2 2.14927 2.14 1.80927 2.39333 1.5626C2.64 1.30927 2.98 1.16927 3.33333 1.16927L10 1.16927C10.3533 1.16927 10.6933 1.30927 10.94 1.5626C11.1933 1.80927 11.3333 2.14927 11.3333 2.5026L11.3333 11.8359C11.3333 12.1893 11.1933 12.5293 10.94 12.7759C10.6933 13.0293 10.3533 13.1693 10 13.1693L3.33333 13.1693C2.98 13.1693 2.64 13.0293 2.39333 12.7759C2.14 12.5293 2 12.1893 2 11.8359L2 2.5026ZM12.6667 14.5026L12.6667 4.5026L14 4.5026L14 14.5026C14 14.8559 13.86 15.1959 13.6067 15.4426C13.36 15.6959 13.02 15.8359 12.6667 15.8359L5.33333 15.8359L5.33333 14.5026L12.6667 14.5026Z" fill="#F2F2F2"/>
</g>
</svg>
