<svg width="12" height="12" viewBox="0 0 12 12" fill="none" xmlns="http://www.w3.org/2000/svg">
<g id="Group">
<g id="Layer_90">
<path id="Shape" fill-rule="evenodd" clip-rule="evenodd" d="M11.8346 10.0827V1.91602C11.8346 0.949517 11.0511 0.166016 10.0846 0.166016H1.91797C0.95147 0.166016 0.167969 0.949517 0.167969 1.91602V10.0827C0.167969 11.0492 0.95147 11.8327 1.91797 11.8327H10.0846C11.0511 11.8327 11.8346 11.0492 11.8346 10.0827ZM5.41459 3.08268C5.41459 3.23822 5.4767 3.38732 5.58714 3.49685C5.75402 3.66512 6.00612 3.71569 6.225 3.62482C6.44387 3.53394 6.58601 3.31967 6.58463 3.08268C6.58601 2.84569 6.44387 2.63143 6.225 2.54055C6.00612 2.44967 5.75402 2.50025 5.58714 2.66852C5.4767 2.77805 5.41459 2.92714 5.41459 3.08268ZM10.668 1.91602C10.668 1.59385 10.4068 1.33268 10.0846 1.33268H1.91797C1.5958 1.33268 1.33464 1.59385 1.33464 1.91602V10.0827C1.33464 10.4048 1.5958 10.666 1.91797 10.666H10.0846C10.4068 10.666 10.668 10.4048 10.668 10.0827V1.91602ZM6.58464 8.33268H6.6663C6.98847 8.33268 7.24964 8.59385 7.24964 8.91602C7.24964 9.23818 6.98847 9.49935 6.6663 9.49935H5.3363C5.01414 9.49935 4.75297 9.23818 4.75297 8.91602C4.75297 8.59385 5.01414 8.33268 5.3363 8.33268H5.41797V5.41602C5.0958 5.41602 4.83464 5.15485 4.83464 4.83268C4.83464 4.51052 5.0958 4.24935 5.41797 4.24935H6.0013C6.32347 4.24935 6.58464 4.51052 6.58464 4.83268V8.33268Z" fill="#F2F2F2"/>
</g>
</g>
</svg>
