<svg width="14" height="15" viewBox="0 0 14 15" fill="none" xmlns="http://www.w3.org/2000/svg">
<g id="Group">
<g id="Layer_27">
<path id="Shape" fill-rule="evenodd" clip-rule="evenodd" d="M13.2063 5.57007L12.333 5.28341L12.7463 4.47007C12.8778 4.21347 12.8293 3.90145 12.6263 3.69674L10.7997 1.86341C10.595 1.6604 10.2829 1.61198 10.0263 1.74341L9.213 2.16341L8.92634 1.29674C8.83341 1.01052 8.56024 0.822033 8.25967 0.836741H5.70634C5.40576 0.822033 5.1326 1.01052 5.03967 1.29674L4.78634 2.16341L3.973 1.74341C3.7164 1.61198 3.40438 1.6604 3.19967 1.86341L1.36634 3.69674C1.16333 3.90145 1.11491 4.21347 1.24634 4.47007L1.66634 5.28341L0.799671 5.57007C0.513445 5.663 0.324963 5.93617 0.339671 6.23674V8.82341C0.324963 9.12398 0.513445 9.39714 0.799671 9.49007L1.66634 9.77674L1.253 10.5901C1.12158 10.8467 1.17 11.1587 1.373 11.3634L3.19967 13.1301C3.40438 13.3331 3.7164 13.3815 3.973 13.2501L4.78634 12.8301L5.073 13.6967C5.16593 13.983 5.4391 14.1714 5.73967 14.1567H8.32634C8.62691 14.1714 8.90007 13.983 8.993 13.6967L9.27967 12.8301L10.093 13.2434C10.3496 13.3748 10.6616 13.3264 10.8663 13.1234L12.6997 11.2901C12.9027 11.0854 12.9511 10.7733 12.8197 10.5167L12.333 9.71007L13.1997 9.42341C13.4859 9.33048 13.6744 9.05731 13.6597 8.75674V6.20341C13.6604 5.9168 13.4779 5.66179 13.2063 5.57007ZM3.66634 7.49674C3.66634 5.65579 5.15872 4.16341 6.99967 4.16341C7.88373 4.16341 8.73157 4.5146 9.35669 5.13972C9.98181 5.76484 10.333 6.61269 10.333 7.49674C10.333 9.33769 8.84062 10.8301 6.99967 10.8301C5.15872 10.8301 3.66634 9.33769 3.66634 7.49674ZM4.99967 7.49674C4.99967 8.60131 5.8951 9.49674 6.99967 9.49674C7.5301 9.49674 8.03881 9.28603 8.41389 8.91096C8.78896 8.53588 8.99967 8.02717 8.99967 7.49674C8.99967 6.39217 8.10424 5.49674 6.99967 5.49674C5.8951 5.49674 4.99967 6.39217 4.99967 7.49674ZM11.9263 8.44341L12.333 8.31007V6.68341L11.9263 6.55007C11.5562 6.43058 11.2567 6.15543 11.1063 5.79674C10.9586 5.43661 10.9757 5.02992 11.153 4.68341L11.3463 4.29674L10.1997 3.15007L9.813 3.34341C9.46645 3.51815 9.06095 3.53321 8.70239 3.38466C8.34383 3.23611 8.06779 2.9387 7.94634 2.57007L7.813 2.16341H6.18634L6.053 2.57007C5.93156 2.9387 5.65551 3.23611 5.29695 3.38466C4.93839 3.53321 4.53289 3.51815 4.18634 3.34341L3.79967 3.15007L2.653 4.29674L2.84634 4.68341C3.02366 5.02992 3.0407 5.43661 2.893 5.79674C2.74263 6.15543 2.44313 6.43058 2.073 6.55007L1.66634 6.68341V8.31007L2.073 8.44341C2.44313 8.5629 2.74263 8.83805 2.893 9.19674C3.0407 9.55687 3.02366 9.96357 2.84634 10.3101L2.653 10.6967L3.79967 11.8434L4.18634 11.6501C4.53289 11.4753 4.93839 11.4603 5.29695 11.6088C5.65551 11.7574 5.93156 12.0548 6.053 12.4234L6.18634 12.8301H7.813L7.94634 12.4234C8.06779 12.0548 8.34383 11.7574 8.70239 11.6088C9.06095 11.4603 9.46645 11.4753 9.813 11.6501L10.1997 11.8434L11.3463 10.6967L11.153 10.3101C10.9757 9.96357 10.9586 9.55687 11.1063 9.19674C11.2567 8.83805 11.5562 8.5629 11.9263 8.44341Z" fill="#F2F2F2"/>
</g>
</g>
</svg>
