<svg width="44" height="44" viewBox="0 0 44 44" fill="none" xmlns="http://www.w3.org/2000/svg">
<rect width="44" height="44" rx="22" fill="#F53B00" fill-opacity="0.3"/>
<path fill-rule="evenodd" clip-rule="evenodd" d="M21.9974 8.66602C14.6336 8.66602 8.66406 14.6356 8.66406 21.9993C8.66406 29.3631 14.6336 35.3327 21.9974 35.3327C29.3612 35.3327 35.3307 29.3631 35.3307 21.9993C35.3307 18.4631 33.926 15.0717 31.4255 12.5713C28.925 10.0708 25.5336 8.66602 21.9974 8.66602ZM22.9441 29.6127C22.8145 29.7305 22.6656 29.8252 22.5041 29.8927C22.1813 30.0353 21.8134 30.0353 21.4907 29.8927C21.3291 29.8252 21.1803 29.7305 21.0507 29.6127C20.8011 29.3611 20.662 29.0204 20.6641 28.666C20.662 28.3116 20.8011 27.971 21.0507 27.7193C21.3659 27.4072 21.8157 27.2722 22.2507 27.3593C22.339 27.3717 22.4247 27.3988 22.5041 27.4393C22.589 27.4685 22.6697 27.5089 22.7441 27.5593C22.8139 27.6086 22.8807 27.662 22.9441 27.7193C23.1877 27.9749 23.3258 28.313 23.3307 28.666C23.3328 29.0204 23.1936 29.3611 22.9441 29.6127ZM21.9974 24.666C22.7338 24.666 23.3307 24.0691 23.3307 23.3327V15.3327C23.3307 14.5963 22.7338 13.9993 21.9974 13.9993C21.261 13.9993 20.6641 14.5963 20.6641 15.3327V23.3327C20.6641 24.0691 21.261 24.666 21.9974 24.666Z" fill="#F53B00"/>
</svg>
