<svg width="14" height="13" viewBox="0 0 14 13" fill="none" xmlns="http://www.w3.org/2000/svg">
<g id="Group">
<g id="Layer_129">
<path id="Shape" fill-rule="evenodd" clip-rule="evenodd" d="M12.5397 7.86912C12.3844 7.95683 12.2352 8.05483 12.093 8.16246C12.1429 8.34301 12.2076 8.51916 12.2863 8.68912L12.2944 8.70876C12.5131 9.23859 12.7815 9.88906 12.393 10.4225C11.9997 10.9625 11.2797 10.9091 10.6997 10.8558C10.5155 10.8428 10.3306 10.8428 10.1463 10.8558C10.1034 10.9661 10.0493 11.1835 10.0097 11.3422L9.99967 11.3825C9.87301 11.9491 9.70634 12.6558 9.05967 12.8625C8.95848 12.8958 8.85286 12.9138 8.74634 12.9158C8.25331 12.8489 7.79866 12.6133 7.45967 12.2491C7.31724 12.0997 7.16344 11.9615 6.99967 11.8358C6.83777 11.9444 6.68403 12.0647 6.53967 12.1958L6.53707 12.198C6.10417 12.571 5.56508 13.0354 4.93967 12.8625C4.31301 12.6891 4.12634 11.9291 3.99967 11.3625L3.98964 11.3222L3.98963 11.3222C3.95009 11.1635 3.89591 10.9461 3.85301 10.8358C3.66879 10.8228 3.48389 10.8228 3.29967 10.8358C2.71967 10.8891 2.00634 10.9491 1.60634 10.4025C1.21669 9.86993 1.47863 9.23619 1.69581 8.71076L1.71301 8.66912C1.79177 8.49916 1.85643 8.32301 1.90634 8.14246C1.76416 8.03483 1.61494 7.93683 1.45967 7.84912C0.959674 7.56912 0.333008 7.16912 0.333008 6.50246C0.333008 5.83579 0.959674 5.43579 1.45967 5.16912C1.61494 5.08141 1.76416 4.98341 1.90634 4.87579C1.85643 4.69523 1.79177 4.51909 1.71301 4.34912L1.70491 4.32949C1.48626 3.79966 1.21782 3.14918 1.60634 2.61579C1.99967 2.07579 2.71967 2.12912 3.29967 2.18246C3.48389 2.19542 3.66879 2.19542 3.85301 2.18246C3.89592 2.07212 3.95009 1.85471 3.98964 1.69603L3.98964 1.69602L3.99967 1.65579C4.12634 1.08912 4.29301 0.382455 4.93967 0.175789C5.57134 -0.026085 6.08215 0.414505 6.50938 0.783006L6.53967 0.809122C6.68403 0.940172 6.83777 1.06049 6.99967 1.16912C7.16158 1.06049 7.31532 0.940172 7.45967 0.809122L7.47185 0.798632C7.90298 0.427126 8.43226 -0.0289468 9.05967 0.175789C9.69301 0.382455 9.87301 1.08912 9.99967 1.65579L10.0097 1.69603C10.0493 1.85471 10.1034 2.07212 10.1463 2.18246C10.3306 2.19542 10.5155 2.19542 10.6997 2.18246C11.2797 2.12912 11.993 2.06912 12.393 2.61579C12.7827 3.14831 12.5207 3.78205 12.3035 4.30749L12.2863 4.34912C12.2076 4.51909 12.1429 4.69523 12.093 4.87579C12.2352 4.98341 12.3844 5.08141 12.5397 5.16912C13.0397 5.43579 13.6663 5.83579 13.6663 6.50246C13.6663 7.16912 13.0397 7.56912 12.5397 7.86912ZM9.41301 4.31579C9.69895 4.54476 9.74658 4.96154 9.51967 5.24912L6.85301 8.58245C6.73618 8.73116 6.5617 8.82324 6.37301 8.83579H6.33301C6.15581 8.83681 5.98549 8.76725 5.85967 8.64246L4.52634 7.30912C4.26493 7.04771 4.26493 6.62387 4.52634 6.36246C4.78776 6.10104 5.21159 6.10104 5.47301 6.36246L6.27967 7.16912L8.47967 4.42246C8.70864 4.13652 9.12543 4.08888 9.41301 4.31579ZM11.853 6.27579C11.953 6.33579 12.093 6.42246 12.2063 6.50246C12.093 6.58246 11.953 6.66912 11.873 6.68246C11.4116 6.88043 11.0391 7.24107 10.8263 7.69579C10.7293 8.19706 10.8195 8.7165 11.0797 9.15579L11.2197 9.50912H10.833C10.3366 9.40068 9.81765 9.4765 9.37301 9.72246C8.99107 10.0673 8.75305 10.5433 8.70634 11.0558C8.69625 11.0962 8.6852 11.1423 8.67355 11.1909C8.65444 11.2706 8.63372 11.3571 8.61301 11.4358C8.51301 11.3625 8.40634 11.2691 8.33301 11.2025C7.98475 10.8195 7.51263 10.5717 6.99967 10.5025C6.48279 10.5973 6.01691 10.8739 5.68634 11.2825C5.61301 11.3491 5.50634 11.4425 5.40634 11.5158C5.39632 11.4777 5.38389 11.4378 5.3714 11.3978C5.34235 11.3046 5.31301 11.2104 5.31301 11.1358C5.2663 10.6233 5.02828 10.1473 4.64634 9.80246C4.2017 9.5565 3.68277 9.48068 3.18634 9.58912H2.79967L2.93967 9.23579C3.19989 8.7965 3.29003 8.27706 3.19301 7.77579C2.98021 7.32107 2.60771 6.96043 2.14634 6.76245C2.04634 6.70246 1.90634 6.61579 1.79301 6.53579C1.90634 6.45579 2.04634 6.36912 2.14634 6.30912C2.60771 6.11115 2.98021 5.75051 3.19301 5.29579C3.29003 4.79452 3.19989 4.27507 2.93967 3.83579L2.75967 3.48246H3.14634C3.64277 3.5909 4.1617 3.51508 4.60634 3.26912C4.98828 2.92429 5.2263 2.44824 5.27301 1.93579C5.2831 1.89541 5.29415 1.84931 5.30579 1.80073C5.32491 1.72096 5.34562 1.63451 5.36634 1.55579C5.46634 1.62912 5.57301 1.72246 5.64634 1.78912C5.99966 2.15974 6.47119 2.3955 6.97967 2.45579C7.48816 2.3955 7.95969 2.15974 8.31301 1.78912C8.38634 1.72246 8.49301 1.62912 8.59301 1.55579C8.60303 1.59387 8.61546 1.63376 8.62795 1.67382C8.65699 1.76702 8.68634 1.86119 8.68634 1.93579C8.73305 2.44824 8.97107 2.92429 9.35301 3.26912C9.79765 3.51508 10.3166 3.5909 10.813 3.48246H11.1997L11.0597 3.83579C10.8075 4.26582 10.7177 4.77191 10.8063 5.26246C11.0191 5.71717 11.3916 6.07782 11.853 6.27579Z" fill="#f2f2f2"/>
</g>
</g>
</svg>
