<svg width="14" height="15" viewBox="0 0 14 15" fill="none" xmlns="http://www.w3.org/2000/svg">
<g id="Group">
<g id="Layer_93">
<path id="Shape" fill-rule="evenodd" clip-rule="evenodd" d="M11.6654 2.83203H10.9987V1.4987C10.9987 1.13051 10.7002 0.832031 10.332 0.832031C9.96384 0.832031 9.66536 1.13051 9.66536 1.4987V2.83203H4.33203V1.4987C4.33203 1.13051 4.03355 0.832031 3.66536 0.832031C3.29717 0.832031 2.9987 1.13051 2.9987 1.4987V2.83203H2.33203C1.22746 2.83203 0.332031 3.72746 0.332031 4.83203V12.1654C0.332031 13.2699 1.22746 14.1654 2.33203 14.1654H11.6654C12.7699 14.1654 13.6654 13.2699 13.6654 12.1654V4.83203C13.6654 3.72746 12.7699 2.83203 11.6654 2.83203ZM1.66536 4.83203C1.66536 4.46384 1.96384 4.16536 2.33203 4.16536H11.6654C12.0336 4.16536 12.332 4.46384 12.332 4.83203V5.4987H1.66536V4.83203ZM11.6654 12.832C12.0336 12.832 12.332 12.5336 12.332 12.1654V6.83203H1.66536V12.1654C1.66536 12.5336 1.96384 12.832 2.33203 12.832H11.6654Z" fill="#F2F2F2"/>
</g>
</g>
</svg>
