<svg width="18" height="18" viewBox="0 0 18 18" fill="none" xmlns="http://www.w3.org/2000/svg">
<g id="Group">
<g id="Layer_28">
<path id="Shape" fill-rule="evenodd" clip-rule="evenodd" d="M16.4505 13.1641H15.6671V7.33073C15.6671 3.64883 12.6824 0.664062 9.00046 0.664062C5.31856 0.664062 2.33379 3.64883 2.33379 7.33073V13.1641H1.59212C1.13189 13.1641 0.758789 13.5372 0.758789 13.9974C0.758789 14.4576 1.13189 14.8307 1.59212 14.8307H6.50046C6.50046 16.2114 7.61974 17.3307 9.00046 17.3307C10.3812 17.3307 11.5005 16.2114 11.5005 14.8307H16.4505C16.9107 14.8307 17.2838 14.4576 17.2838 13.9974C17.2838 13.5372 16.9107 13.1641 16.4505 13.1641ZM9.00046 15.6641C8.54022 15.6641 8.16712 15.291 8.16712 14.8307H9.83379C9.83379 15.291 9.46069 15.6641 9.00046 15.6641ZM4.00046 13.1641H10.6671H14.0005V7.33073C14.0005 4.5693 11.7619 2.33073 9.00046 2.33073C6.23903 2.33073 4.00046 4.5693 4.00046 7.33073V13.1641Z" fill="#F2F2F2"/>
</g>
</g>
</svg>
