<svg width="20" height="21" viewBox="0 0 20 21" fill="none" xmlns="http://www.w3.org/2000/svg">
<path fill-rule="evenodd" clip-rule="evenodd" d="M0 10.5C0 4.97715 4.47715 0.5 10 0.5C12.6522 0.5 15.1957 1.55357 17.0711 3.42893C18.9464 5.3043 20 7.84784 20 10.5C20 16.0228 15.5228 20.5 10 20.5C4.47715 20.5 0 16.0228 0 10.5ZM11 11.5H15C15.5523 11.5 16 11.0523 16 10.5C16 9.94771 15.5523 9.5 15 9.5H11V5.5C11 4.94772 10.5523 4.5 10 4.5C9.44771 4.5 9 4.94772 9 5.5V9.5H5C4.44772 9.5 4 9.94771 4 10.5C4 11.0523 4.44772 11.5 5 11.5H9V15.5C9 16.0523 9.44771 16.5 10 16.5C10.5523 16.5 11 16.0523 11 15.5V11.5Z" fill="#191919"/>
</svg>
