<svg width="14" height="15" viewBox="0 0 14 15" fill="none" xmlns="http://www.w3.org/2000/svg">
<g id="Group">
<g id="Layer_55">
<path id="Shape" fill-rule="evenodd" clip-rule="evenodd" d="M13.6663 12.1693C13.6663 13.2738 12.7709 14.1693 11.6663 14.1693H2.33301C1.22844 14.1693 0.333008 13.2738 0.333008 12.1693V2.83594C0.333008 1.73137 1.22844 0.835938 2.33301 0.835938H11.6663C12.7709 0.835938 13.6663 1.73137 13.6663 2.83594V12.1693ZM6.33301 3.5026H10.333C10.7012 3.5026 10.9997 3.80108 10.9997 4.16927C10.9997 4.53746 10.7012 4.83594 10.333 4.83594H6.33301C5.96482 4.83594 5.66634 4.53746 5.66634 4.16927C5.66634 3.80108 5.96482 3.5026 6.33301 3.5026ZM4.33301 4.16927C4.33195 4.08215 4.31384 3.99609 4.27967 3.91594C4.24591 3.83515 4.19856 3.76074 4.13967 3.69594C4.07487 3.63705 4.00046 3.5897 3.91967 3.55594C3.67141 3.45154 3.38472 3.50677 3.19301 3.69594C3.13412 3.76074 3.08677 3.83515 3.05301 3.91594C3.01885 3.99609 3.00073 4.08215 2.99967 4.16927C2.99865 4.34647 3.06822 4.51679 3.19301 4.6426C3.32076 4.76443 3.48983 4.83348 3.66634 4.83594C3.75379 4.83819 3.84055 4.81993 3.91967 4.7826C4.00046 4.74884 4.07487 4.70149 4.13967 4.6426C4.2615 4.51485 4.33055 4.34578 4.33301 4.16927ZM3.91967 6.88927C3.67141 6.78487 3.38472 6.84011 3.19301 7.02927C3.13127 7.09185 3.08355 7.16684 3.05301 7.24927C3.01885 7.32942 3.00073 7.41549 2.99967 7.5026C2.99865 7.67981 3.06822 7.85013 3.19301 7.97594C3.32076 8.09776 3.48983 8.16682 3.66634 8.16927C3.75346 8.16822 3.83953 8.1501 3.91967 8.11594C4.00046 8.08218 4.07487 8.03482 4.13967 7.97594L4.21967 7.87594C4.24491 7.83877 4.26508 7.79842 4.27967 7.75594C4.30354 7.71893 4.32153 7.67845 4.33301 7.63594C4.33628 7.59155 4.33628 7.54699 4.33301 7.5026C4.33055 7.32609 4.2615 7.15703 4.13967 7.02927C4.07487 6.97038 4.00046 6.92303 3.91967 6.88927ZM6.33301 6.83594H10.333C10.7012 6.83594 10.9997 7.13441 10.9997 7.5026C10.9997 7.87079 10.7012 8.16927 10.333 8.16927H6.33301C5.96482 8.16927 5.66634 7.87079 5.66634 7.5026C5.66634 7.13441 5.96482 6.83594 6.33301 6.83594ZM4.13967 10.3626C4.07487 10.3037 4.00046 10.2564 3.91967 10.2226C3.67141 10.1182 3.38471 10.1734 3.19301 10.3626C3.13231 10.426 3.08474 10.5008 3.05301 10.5826C2.98169 10.744 2.98169 10.9279 3.05301 11.0893C3.08474 11.1711 3.13231 11.2459 3.19301 11.3093C3.32076 11.4311 3.48983 11.5001 3.66634 11.5026C3.75346 11.5016 3.83953 11.4834 3.91967 11.4493C4.00046 11.4155 4.07487 11.3682 4.13967 11.3093C4.20037 11.2459 4.24794 11.1711 4.27967 11.0893C4.35099 10.9279 4.35099 10.744 4.27967 10.5826C4.24794 10.5008 4.20037 10.426 4.13967 10.3626ZM6.33301 10.1693H10.333C10.7012 10.1693 10.9997 10.4677 10.9997 10.8359C10.9997 11.2041 10.7012 11.5026 10.333 11.5026H6.33301C5.96482 11.5026 5.66634 11.2041 5.66634 10.8359C5.66634 10.4677 5.96482 10.1693 6.33301 10.1693ZM11.6663 2.16927C12.0345 2.16927 12.333 2.46775 12.333 2.83594V12.1693C12.333 12.5375 12.0345 12.8359 11.6663 12.8359H2.33301C1.96482 12.8359 1.66634 12.5375 1.66634 12.1693V2.83594C1.66634 2.46775 1.96482 2.16927 2.33301 2.16927H11.6663Z" fill="#F2F2F2"/>
</g>
</g>
</svg>
