<svg width="12" height="12" viewBox="0 0 12 12" fill="none" xmlns="http://www.w3.org/2000/svg">
<g id="Group">
<g id="Layer_54">
<path id="Shape" fill-rule="evenodd" clip-rule="evenodd" d="M5.71547 9.4138C5.68251 9.39981 5.65121 9.3822 5.62214 9.3613L1.55047 5.8613C1.39208 5.72584 1.31799 5.51617 1.35611 5.31127C1.39423 5.10637 1.53877 4.93737 1.73528 4.86793C1.93179 4.7985 2.15041 4.83917 2.3088 4.97464L5.41797 7.6463V0.751302C5.41797 0.429136 5.67914 0.167969 6.0013 0.167969C6.32347 0.167969 6.58464 0.429136 6.58464 0.751302V7.6463L9.70547 4.97464C9.95032 4.76523 10.3186 4.79396 10.528 5.0388C10.7374 5.28365 10.7086 5.65189 10.4638 5.8613L6.38047 9.3613C6.35139 9.3822 6.32009 9.39981 6.28714 9.4138L6.21714 9.46047C6.07854 9.51567 5.92406 9.51567 5.78547 9.46047L5.71547 9.4138ZM11.8346 10.668V9.5013C11.8346 9.17914 11.5735 8.91797 11.2513 8.91797C10.9291 8.91797 10.668 9.17914 10.668 9.5013V10.6271C10.6161 10.6553 10.5578 10.6693 10.4988 10.668H1.5038C1.44482 10.6693 1.3865 10.6553 1.33464 10.6271V9.5013C1.33464 9.17914 1.07347 8.91797 0.751302 8.91797C0.429136 8.91797 0.167969 9.17914 0.167969 9.5013V10.668C0.220853 11.3559 0.814974 11.8748 1.5038 11.8346H10.4988C11.1876 11.8748 11.7818 11.3559 11.8346 10.668Z" fill="#F2F2F2"/>
</g>
</g>
</svg>
