<svg width="18" height="18" viewBox="0 0 18 18" fill="none" xmlns="http://www.w3.org/2000/svg">
<g id="Group">
<g id="Layer_92">
<path id="Shape" fill-rule="evenodd" clip-rule="evenodd" d="M6.7824 14.7486L16.5574 4.97363C17.2262 4.35039 17.5016 3.41177 17.2754 2.526C17.0491 1.64022 16.3575 0.948553 15.4717 0.722341C14.5859 0.496129 13.6473 0.771449 13.0241 1.44029L3.22407 11.2403C3.16139 11.3047 3.10809 11.3777 3.06573 11.457L0.749066 16.132C0.622381 16.3905 0.638135 16.6961 0.790732 16.9403C0.943328 17.1844 1.21115 17.3325 1.49907 17.332C1.63656 17.3287 1.77112 17.2915 1.89073 17.2236L6.56573 14.907C6.64502 14.8646 6.71796 14.8113 6.7824 14.7486ZM16.4991 17.332C16.9593 17.332 17.3324 16.9589 17.3324 16.4986C17.3324 16.0384 16.9593 15.6653 16.4991 15.6653H8.99907C8.53883 15.6653 8.16573 16.0384 8.16573 16.4986C8.16573 16.9589 8.53883 17.332 8.99907 17.332H16.4991ZM12.5991 6.57363L11.4241 5.39863L4.52407 12.332L3.36573 14.6653L5.66573 13.4736L12.5991 6.57363ZM14.8032 2.33092C15.0317 2.33092 15.2501 2.42468 15.4074 2.59029C15.5698 2.75102 15.6591 2.97138 15.6544 3.19983C15.6496 3.42827 15.5513 3.64475 15.3824 3.79863L13.7741 5.39863L12.5991 4.22363L14.1991 2.59029C14.3564 2.42468 14.5748 2.33092 14.8032 2.33092Z" fill="#F2F2F2"/>
</g>
</g>
</svg>
