<svg xmlns="http://www.w3.org/2000/svg" width="14" height="14" viewBox="0 0 14 14" fill="none">
  <path fill-rule="evenodd" clip-rule="evenodd" d="M2.2587 0.333317H11.072C12.1127 0.314682 12.9732 1.1395 12.9987 2.17998V6.17998C12.6958 5.88031 12.3525 5.62449 11.9787 5.41998C10.2346 4.49104 8.10062 4.71737 6.59016 5.9915C5.07969 7.26563 4.49697 9.33092 5.1187 11.2067C5.24768 11.6058 5.43167 11.985 5.66536 12.3333H2.2587C1.21553 12.3519 0.353908 11.5231 0.332031 10.48V2.18665C0.353908 1.14354 1.21553 0.31472 2.2587 0.333317ZM3.66536 4.33332H9.66536C10.0336 4.33332 10.332 4.03484 10.332 3.66665C10.332 3.29846 10.0336 2.99998 9.66536 2.99998H3.66536C3.29717 2.99998 2.9987 3.29846 2.9987 3.66665C2.9987 4.03484 3.29717 4.33332 3.66536 4.33332Z" fill="#F2F2F2"/>
  <path d="M6.45208 12.3333C6.12592 11.939 5.87712 11.4866 5.71875 11L6.45208 12.3333Z" fill="#F2F2F2"/>
  <path d="M12.9974 7.1535L11.6641 6.00684C12.1848 6.29018 12.6393 6.68106 12.9974 7.1535V7.1535Z" fill="#F2F2F2"/>
  <path d="M5.71875 11L6.45208 12.3333C6.12592 11.939 5.87712 11.4866 5.71875 11H5.71875Z" fill="#F2F2F2"/>
  <path d="M12.9974 7.1535L11.6641 6.00684C12.1848 6.29018 12.6393 6.68106 12.9974 7.1535V7.1535Z" fill="#F2F2F2"/>
  <path fill-rule="evenodd" clip-rule="evenodd" d="M11.6654 6.00684L12.9988 7.1535C12.6406 6.68106 12.1861 6.29018 11.6654 6.00684ZM5.71875 11.0002C5.87712 11.4868 6.12592 11.9392 6.45208 12.3335L5.71875 11.0002Z" fill="#F2F2F2"/>
  <path fill-rule="evenodd" clip-rule="evenodd" d="M11.6658 6.00667L12.9991 7.15333C13.5472 7.87589 13.8403 8.75978 13.8325 9.66667C13.8385 11.4271 12.7374 13.0013 11.0818 13.5996C9.42612 14.1978 7.57312 13.691 6.45246 12.3333L5.71912 11C5.28965 9.72846 5.49896 8.32789 6.28142 7.23747C7.06388 6.14705 8.32368 5.50029 9.66579 5.5C10.3641 5.50081 11.0513 5.6749 11.6658 6.00667ZM9.49246 11.4733L11.4925 9.47333L11.4591 9.49333C11.7205 9.23192 11.7205 8.80808 11.4591 8.54667C11.1977 8.28525 10.7739 8.28525 10.5125 8.54667L9.17912 9.88L8.92579 9.37333C8.82973 9.14264 8.61271 8.98504 8.36362 8.96508C8.11452 8.94511 7.87518 9.06613 7.74359 9.27857C7.61201 9.49102 7.61028 9.75921 7.73912 9.97333L8.40579 11.3067C8.50104 11.4976 8.68196 11.6315 8.89246 11.6667H8.99912C9.18322 11.6731 9.36178 11.6032 9.49246 11.4733Z" fill="#F2F2F2"/>
</svg>