<svg width="44" height="44" viewBox="0 0 44 44" fill="none" xmlns="http://www.w3.org/2000/svg">
<rect width="44" height="44" rx="22" fill="#F53B00" fill-opacity="0.3"/>
<path fill-rule="evenodd" clip-rule="evenodd" d="M29 12H15C13.3431 12 12 13.3431 12 15V17C12 17.5523 12.4477 18 13 18H14V29C14 30.6569 15.3431 32 17 32H27C28.6569 32 30 30.6569 30 29V18H31C31.5523 18 32 17.5523 32 17V15C32 13.3431 30.6569 12 29 12ZM20 27C20 27.5523 19.5523 28 19 28C18.4477 28 18 27.5523 18 27V21C18 20.4477 18.4477 20 19 20C19.5523 20 20 20.4477 20 21V27ZM25 28C25.5523 28 26 27.5523 26 27V21C26 20.4477 25.5523 20 25 20C24.4477 20 24 20.4477 24 21V27C24 27.5523 24.4477 28 25 28Z" fill="#F53B00"/>
</svg>
