<svg width="28" height="28" viewBox="0 0 28 28" fill="none" xmlns="http://www.w3.org/2000/svg">
<g id="&#240;&#159;&#166;&#134; icon &#34;steam&#34;">
<path id="Vector" d="M13.977 0C6.62639 0 0.596951 5.66895 0.0273438 12.8743L7.52848 15.9779C8.16634 15.5448 8.93194 15.2901 9.76142 15.2901C9.83404 15.2901 9.90754 15.2945 9.98016 15.2945L13.3164 10.4638V10.3956C13.3164 7.48364 15.6815 5.11859 18.5934 5.11859C21.5053 5.11859 23.8747 7.48802 23.8747 10.3999C23.8747 13.3118 21.5053 15.6769 18.5934 15.6769H18.4753L13.7172 19.0718C13.7172 19.1357 13.7215 19.1952 13.7215 19.259C13.7215 21.4465 11.9532 23.2192 9.76579 23.2192C7.86097 23.2192 6.24752 21.8516 5.87829 20.0386L0.510329 17.8144C2.17365 23.6934 7.56523 28 13.977 28C21.7057 28 27.9722 21.7343 27.9722 14.0004C27.9722 6.26655 21.7065 0.000874973 13.977 0.000874973V0ZM8.79545 21.2452L7.077 20.5339C7.38236 21.1673 7.91085 21.6958 8.61258 21.9924C10.1254 22.6215 11.871 21.9014 12.5001 20.3886C12.8054 19.6501 12.8054 18.8487 12.5045 18.1146C12.2035 17.3761 11.6295 16.8065 10.8954 16.5011C10.1709 16.1957 9.3913 16.2097 8.70795 16.4644L10.4806 17.1985C11.5971 17.6674 12.1256 18.9484 11.661 20.0649C11.1964 21.1813 9.91103 21.7098 8.79457 21.2452H8.79545ZM22.1117 10.3903C22.1117 8.45311 20.535 6.87204 18.5978 6.87204C16.6518 6.87204 15.0795 8.45311 15.0795 10.3903C15.0795 12.3319 16.6518 13.9086 18.5978 13.9086C20.535 13.9086 22.1117 12.3319 22.1117 10.3903ZM15.9641 10.3859C15.9641 8.92297 17.1444 7.74263 18.603 7.74263C20.0616 7.74263 21.2507 8.92297 21.2507 10.3859C21.2507 11.8445 20.0616 13.0292 18.603 13.0292C17.1444 13.0292 15.9641 11.8445 15.9641 10.3859Z" fill="#F2F2F2"/>
</g>
</svg>
