<svg width="16" height="17" viewBox="0 0 16 17" fill="none" xmlns="http://www.w3.org/2000/svg">
<g id="Iconography - Caesarzkn">
<path id="Vector" d="M12.6654 14.4974H5.33203V5.16406H12.6654M12.6654 3.83073H5.33203C4.97841 3.83073 4.63927 3.9712 4.38922 4.22125C4.13917 4.4713 3.9987 4.81044 3.9987 5.16406V14.4974C3.9987 14.851 4.13917 15.1902 4.38922 15.4402C4.63927 15.6903 4.97841 15.8307 5.33203 15.8307H12.6654C13.019 15.8307 13.3581 15.6903 13.6082 15.4402C13.8582 15.1902 13.9987 14.851 13.9987 14.4974V5.16406C13.9987 4.81044 13.8582 4.4713 13.6082 4.22125C13.3581 3.9712 13.019 3.83073 12.6654 3.83073ZM10.6654 1.16406H2.66536C2.31174 1.16406 1.9726 1.30454 1.72256 1.55459C1.47251 1.80464 1.33203 2.14377 1.33203 2.4974V11.8307H2.66536V2.4974H10.6654V1.16406Z" fill="white"/>
</g>
</svg>
