<svg width="30" height="30" viewBox="0 0 30 30" fill="none" xmlns="http://www.w3.org/2000/svg">
<g id="AndroidLogo">
<path id="Vector" d="M24.2649 10.3915C24.1781 10.3048 24.0902 10.2204 24.0024 10.1372L26.9133 7.2263C27.0004 7.1392 27.0695 7.03579 27.1166 6.92199C27.1638 6.80818 27.188 6.6862 27.188 6.56302C27.188 6.43984 27.1638 6.31786 27.1166 6.20406C27.0695 6.09025 27.0004 5.98684 26.9133 5.89974C26.8262 5.81264 26.7228 5.74354 26.609 5.6964C26.4952 5.64926 26.3732 5.625 26.25 5.625C26.1268 5.625 26.0048 5.64926 25.891 5.6964C25.7772 5.74354 25.6738 5.81264 25.5867 5.89974L22.5399 8.94661C20.3341 7.39392 17.7016 6.56243 15.0041 6.56642C12.3066 6.5704 9.67658 7.40967 7.4754 8.96888L4.41329 5.89974C4.23737 5.72383 3.99878 5.625 3.75001 5.625C3.50123 5.625 3.26264 5.72383 3.08672 5.89974C2.91081 6.07565 2.81198 6.31424 2.81198 6.56302C2.81198 6.8118 2.91081 7.05039 3.08672 7.2263L6.02344 10.163C4.71152 11.406 3.66696 12.9036 2.95367 14.5641C2.24037 16.2246 1.87334 18.0132 1.87501 19.8204V22.5005C1.87501 22.9978 2.07255 23.4747 2.42418 23.8263C2.77581 24.178 3.25272 24.3755 3.75001 24.3755H26.25C26.7473 24.3755 27.2242 24.178 27.5758 23.8263C27.9275 23.4747 28.125 22.9978 28.125 22.5005V19.688C28.1298 17.9599 27.791 16.2482 27.1283 14.6522C26.4657 13.0562 25.4923 11.6079 24.2649 10.3915ZM10.7813 19.688C10.5031 19.688 10.2312 19.6055 9.99999 19.451C9.76873 19.2965 9.58849 19.0769 9.48205 18.8199C9.37561 18.563 9.34777 18.2802 9.40203 18.0074C9.45629 17.7346 9.59022 17.4841 9.78689 17.2874C9.98355 17.0907 10.2341 16.9568 10.5069 16.9025C10.7797 16.8483 11.0624 16.8761 11.3194 16.9826C11.5764 17.089 11.796 17.2692 11.9505 17.5005C12.105 17.7318 12.1875 18.0036 12.1875 18.2818C12.1875 18.6547 12.0393 19.0124 11.7756 19.2761C11.5119 19.5399 11.1542 19.688 10.7813 19.688ZM19.2188 19.688C18.9406 19.688 18.6687 19.6055 18.4375 19.451C18.2062 19.2965 18.026 19.0769 17.9196 18.8199C17.8131 18.563 17.7853 18.2802 17.8395 18.0074C17.8938 17.7346 18.0277 17.4841 18.2244 17.2874C18.4211 17.0907 18.6716 16.9568 18.9444 16.9025C19.2172 16.8483 19.4999 16.8761 19.7569 16.9826C20.0139 17.089 20.2335 17.2692 20.388 17.5005C20.5425 17.7318 20.625 18.0036 20.625 18.2818C20.625 18.6547 20.4768 19.0124 20.2131 19.2761C19.9494 19.5399 19.5917 19.688 19.2188 19.688Z" fill="#F2F2F2"/>
</g>
</svg>
