<svg width="24" height="28" viewBox="0 0 24 28" fill="none" xmlns="http://www.w3.org/2000/svg">
<g id="&#240;&#159;&#166;&#134; icon &#34;apple&#34;">
<path id="Vector" d="M6.2678 27.4639C5.7168 27.0948 5.22441 26.6435 4.81948 26.1205C4.36819 25.5826 3.95888 25.0133 3.57581 24.4256C2.68285 23.118 1.9858 21.6925 1.49866 20.1847C0.915305 18.4355 0.632812 16.7589 0.632812 15.119C0.632812 13.2876 1.029 11.6889 1.80389 10.3455C2.37325 9.29777 3.2251 8.4188 4.25012 7.80397C5.24278 7.18476 6.39549 6.84717 7.56131 6.82443C7.9715 6.82443 8.41317 6.8839 8.88195 6.9976C9.21866 7.09293 9.62885 7.24335 10.13 7.43052C10.7676 7.67628 11.1183 7.82671 11.2372 7.86344C11.6107 7.99988 11.9246 8.05935 12.1713 8.05935C12.3584 8.05935 12.6226 7.99988 12.9226 7.90892C13.0913 7.84945 13.4097 7.74449 13.8654 7.54946C14.3166 7.38504 14.6717 7.24423 14.9542 7.13928C15.3871 7.01159 15.8061 6.89352 16.1795 6.83405C16.6352 6.76583 17.0856 6.74309 17.5185 6.77895C18.3476 6.83405 19.1042 7.01159 19.7828 7.26609C20.9714 7.7445 21.9326 8.49139 22.648 9.55315C22.3428 9.74031 22.0646 9.95371 21.8005 10.1951C21.2312 10.6962 20.7528 11.2883 20.3653 11.9486C19.8642 12.846 19.6088 13.8623 19.614 14.8864C19.6324 16.1484 19.956 17.26 20.5936 18.2212C21.0492 18.9226 21.6501 19.5191 22.3839 20.0115C22.7486 20.2573 23.0625 20.4261 23.3634 20.5397C23.2226 20.977 23.0722 21.4003 22.8946 21.8201C22.4888 22.763 22.006 23.6647 21.4367 24.5165C20.9312 25.2503 20.535 25.7969 20.2341 26.1607C19.7653 26.7161 19.3141 27.1403 18.8584 27.4359C18.3573 27.7682 17.7652 27.9458 17.1634 27.9458C16.7533 27.9641 16.3483 27.909 15.9565 27.7997C15.6198 27.686 15.2866 27.5627 14.9586 27.4219C14.6166 27.2671 14.2659 27.1307 13.9065 27.0257C13.4604 26.9076 13.0048 26.8525 12.5491 26.8525C12.0803 26.8525 11.6247 26.912 11.1961 27.0213C10.8314 27.1263 10.4807 27.2487 10.1344 27.3992C9.64721 27.6038 9.32361 27.7411 9.13645 27.7997C8.763 27.909 8.37556 27.9773 7.98374 28C7.37765 28 6.81267 27.8268 6.25293 27.4761L6.2678 27.4639ZM14.2615 5.93584C13.4692 6.33203 12.7127 6.50083 11.9614 6.44573C11.8433 5.68921 11.9614 4.9152 12.2754 4.06772C12.5535 3.34356 12.9269 2.69199 13.4412 2.10864C13.9738 1.50255 14.6166 1.00141 15.3408 0.641949C16.1104 0.24576 16.8442 0.0314852 17.5456 0C17.6366 0.792379 17.5456 1.57164 17.2544 2.41387C16.9859 3.16077 16.5897 3.84907 16.0886 4.46391C15.5787 5.07 14.9499 5.57114 14.2388 5.93497L14.2615 5.93584Z" fill="#F2F2F2"/>
</g>
</svg>
