<svg width="14" height="14" viewBox="0 0 14 14" fill="none" xmlns="http://www.w3.org/2000/svg">
<g id="Group">
<g id="Layer_63">
<path id="Shape" fill-rule="evenodd" clip-rule="evenodd" d="M1.0026 2.99752C0.634414 2.99752 0.335938 3.296 0.335938 3.66419C0.335938 4.03238 0.634414 4.33085 1.0026 4.33085H11.3959L9.8226 5.79085C9.6964 5.91603 9.62541 6.08643 9.62541 6.26419C9.62541 6.44194 9.6964 6.61234 9.8226 6.73752C9.94778 6.86373 10.1182 6.93472 10.2959 6.93472C10.4737 6.93472 10.6441 6.86373 10.7693 6.73752L13.4359 4.07085C13.4918 4.01385 13.5349 3.94569 13.5626 3.87085C13.5887 3.80507 13.6023 3.73497 13.6026 3.66419V3.62419C13.6096 3.56885 13.6096 3.51286 13.6026 3.45752C13.6063 3.43545 13.6063 3.41292 13.6026 3.39085C13.5727 3.31716 13.5298 3.24943 13.4759 3.19085L10.8093 0.524186C10.5479 0.262771 10.124 0.262771 9.8626 0.524186C9.60119 0.785601 9.60119 1.20944 9.8626 1.47085L11.3959 2.99752H1.0026ZM2.60927 9.66419H13.0026C13.3708 9.66419 13.6693 9.96266 13.6693 10.3309C13.6693 10.699 13.3708 10.9975 13.0026 10.9975H2.60927L4.14927 12.4575C4.27548 12.5827 4.34647 12.7531 4.34647 12.9309C4.34647 13.1086 4.27548 13.279 4.14927 13.4042C4.02409 13.5304 3.8537 13.6014 3.67594 13.6014C3.49818 13.6014 3.32778 13.5304 3.2026 13.4042L0.535938 10.7375C0.480105 10.6805 0.436941 10.6124 0.409271 10.5375C0.383147 10.4717 0.36958 10.4016 0.369271 10.3309V10.2909C0.373225 10.2341 0.384428 10.1781 0.402604 10.1242C0.398874 10.1021 0.398874 10.0796 0.402604 10.0575C0.432557 9.98383 0.475455 9.91609 0.529271 9.85752L3.19594 7.19085C3.45735 6.92944 3.88119 6.92944 4.1426 7.19085C4.40402 7.45227 4.40402 7.8761 4.1426 8.13752L2.60927 9.66419Z" fill="#F2F2F2"/>
</g>
</g>
</svg>
