<svg width="14" height="15" viewBox="0 0 14 15" fill="none" xmlns="http://www.w3.org/2000/svg">
<g id="Group">
<g id="Layer_20">
<path id="Shape" fill-rule="evenodd" clip-rule="evenodd" d="M6.99967 0.835938C3.31778 0.835938 0.333008 3.82071 0.333008 7.5026C0.333008 11.1845 3.31778 14.1693 6.99967 14.1693C10.6816 14.1693 13.6663 11.1845 13.6663 7.5026C13.6663 5.73449 12.964 4.0388 11.7137 2.78856C10.4635 1.53832 8.76778 0.835938 6.99967 0.835938ZM6.99967 12.8359C4.05416 12.8359 1.66634 10.4481 1.66634 7.5026C1.66634 4.55709 4.05416 2.16927 6.99967 2.16927C9.94519 2.16927 12.333 4.55709 12.333 7.5026C12.333 8.91709 11.7711 10.2736 10.7709 11.2738C9.77072 12.274 8.41416 12.8359 6.99967 12.8359ZM6.61301 7.5026L8.79301 5.30927H8.80634C8.97545 5.14016 9.04149 4.89369 8.97959 4.66269C8.9177 4.43168 8.73726 4.25125 8.50626 4.18935C8.27526 4.12745 8.02878 4.1935 7.85967 4.3626L5.19301 7.02927C5.0668 7.15445 4.99581 7.32485 4.99581 7.5026C4.99581 7.68036 5.0668 7.85076 5.19301 7.97594L7.85967 10.6426C7.98549 10.7674 8.15581 10.837 8.33301 10.8359C8.50559 10.8335 8.67048 10.7642 8.79301 10.6426C8.91922 10.5174 8.99021 10.347 8.99021 10.1693C8.99021 9.99151 8.91922 9.82112 8.79301 9.69594L6.61301 7.5026Z" fill="#F2F2F2"/>
</g>
</g>
</svg>
