<svg width="14" height="14" viewBox="0 0 14 14" fill="none" xmlns="http://www.w3.org/2000/svg">
<g id="Group">
<g id="Layer_128">
<path id="Shape" fill-rule="evenodd" clip-rule="evenodd" d="M6.9987 0.333984C3.3168 0.333984 0.332031 3.31875 0.332031 7.00065C0.332031 10.6825 3.3168 13.6673 6.9987 13.6673C10.6806 13.6673 13.6654 10.6825 13.6654 7.00065C13.6654 5.23254 12.963 3.53685 11.7127 2.28661C10.4625 1.03636 8.76681 0.333984 6.9987 0.333984ZM7.47203 10.8073C7.40723 10.8662 7.33282 10.9136 7.25203 10.9473C7.09067 11.0186 6.90672 11.0186 6.74536 10.9473C6.66457 10.9136 6.59017 10.8662 6.52536 10.8073C6.40057 10.6815 6.33101 10.5112 6.33203 10.334C6.33101 10.1568 6.40057 9.98646 6.52536 9.86065C6.68297 9.70457 6.90787 9.6371 7.12536 9.68065C7.16952 9.68683 7.21233 9.70035 7.25203 9.72065C7.29451 9.73524 7.33487 9.75542 7.37203 9.78065C7.40696 9.80526 7.44035 9.83198 7.47203 9.86065C7.59385 9.98841 7.66291 10.1575 7.66536 10.334C7.66639 10.5112 7.59682 10.6815 7.47203 10.8073ZM6.9987 8.33398C7.36689 8.33398 7.66536 8.03551 7.66536 7.66732V3.66732C7.66536 3.29913 7.36689 3.00065 6.9987 3.00065C6.63051 3.00065 6.33203 3.29913 6.33203 3.66732V7.66732C6.33203 8.03551 6.63051 8.33398 6.9987 8.33398Z" fill="#F53B00"/>
</g>
</g>
</svg>
