<svg xmlns="http://www.w3.org/2000/svg" width="9" height="8" viewBox="0 0 9 8" fill="none">
  <path d="M1.9 2C1.74087 2 1.58826 1.93679 1.47574 1.82426C1.36321 1.71174 1.3 1.55913 1.3 1.4C1.3 1.24087 1.36321 1.08826 1.47574 0.975736C1.58826 0.863214 1.74087 0.8 1.9 0.8C2.05913 0.8 2.21174 0.863214 2.32426 0.975736C2.43679 1.08826 2.5 1.24087 2.5 1.4C2.5 1.55913 2.43679 1.71174 2.32426 1.82426C2.21174 1.93679 2.05913 2 1.9 2ZM8.264 3.832L4.664 0.232C4.52 0.088 4.32 0 4.1 0H1.3C0.856 0 0.5 0.356 0.5 0.8V3.6C0.5 3.82 0.588 4.02 0.736 4.164L4.332 7.764C4.48 7.908 4.68 8 4.9 8C5.12 8 5.32 7.908 5.464 7.764L8.264 4.964C8.412 4.82 8.5 4.62 8.5 4.4C8.5 4.176 8.408 3.976 8.264 3.832Z" fill="#F2F2F2"/>
</svg>