<svg width="12" height="12" viewBox="0 0 12 12" fill="none" xmlns="http://www.w3.org/2000/svg">
<g id="Group">
<g id="Layer_48">
<path id="Shape" fill-rule="evenodd" clip-rule="evenodd" d="M6 7.16667V4.83333C6 4.51117 6.26117 4.25 6.58333 4.25H11.8333V7.75H6.58333C6.26117 7.75 6 7.48883 6 7.16667ZM9.5 6C9.5 5.35567 8.97767 4.83333 8.33333 4.83333C7.689 4.83333 7.16667 5.35567 7.16667 6C7.16667 6.64433 7.689 7.16667 8.33333 7.16667C8.97767 7.16667 9.5 6.64433 9.5 6Z" fill="#808080"/>
<path id="Path" d="M6.58464 8.91406C5.61814 8.91406 4.83464 8.13056 4.83464 7.16406V4.83073C4.83464 3.86423 5.61814 3.08073 6.58464 3.08073H11.8346V1.91406C11.8346 0.947564 11.0511 0.164062 10.0846 0.164062H1.91797C0.95147 0.164062 0.167969 0.947564 0.167969 1.91406V10.0807C0.167969 11.0472 0.95147 11.8307 1.91797 11.8307H10.0846C11.0511 11.8307 11.8346 11.0472 11.8346 10.0807V8.91406H6.58464Z" fill="#808080"/>
</g>
</g>
</svg>
