<svg width="20" height="20" viewBox="0 0 20 20" fill="none" xmlns="http://www.w3.org/2000/svg">
<g id="Group">
<g id="Layer_43">
<path id="Shape" fill-rule="evenodd" clip-rule="evenodd" d="M0 10C0 4.47715 4.47715 0 10 0C12.6522 0 15.1957 1.05357 17.0711 2.92893C18.9464 4.8043 20 7.34784 20 10C20 15.5228 15.5228 20 10 20C4.47715 20 0 15.5228 0 10ZM8.71 13.71L14.71 7.71C15.1021 7.31788 15.1021 6.68212 14.71 6.29C14.3179 5.89788 13.6821 5.89788 13.29 6.29L8 11.59L6.71 10.29C6.45634 10.0363 6.08663 9.93728 5.74012 10.0301C5.39362 10.123 5.12297 10.3936 5.03012 10.7401C4.93728 11.0866 5.03634 11.4563 5.29 11.71L7.29 13.71C7.47777 13.8993 7.73336 14.0058 8 14.0058C8.26664 14.0058 8.52223 13.8993 8.71 13.71Z" fill="#4EF500"/>
</g>
</g>
</svg>
