<svg width="18" height="18" viewBox="0 0 18 18" fill="none" xmlns="http://www.w3.org/2000/svg">
<g id="Group">
<g id="Layer_35">
<path id="Shape" fill-rule="evenodd" clip-rule="evenodd" d="M3.16699 0.664062H14.8337C16.2144 0.664062 17.3337 1.78335 17.3337 3.16406V14.8307C17.3337 16.2114 16.2144 17.3307 14.8337 17.3307H3.16699C1.78628 17.3307 0.666992 16.2114 0.666992 14.8307V3.16406C0.666992 1.78335 1.78628 0.664062 3.16699 0.664062ZM3.16699 15.6641H14.8337C15.1561 15.6616 15.4482 15.4734 15.5837 15.1807L6.62533 8.4724L2.33366 13.4724V14.8307C2.33366 15.291 2.70675 15.6641 3.16699 15.6641ZM15.667 13.1641L10.667 9.38073L12.4337 7.61406L15.667 10.2307V13.1641ZM12.8503 5.8474L15.667 8.0974V3.16406C15.667 2.70383 15.2939 2.33073 14.8337 2.33073H3.16699C2.70675 2.33073 2.33366 2.70383 2.33366 3.16406V10.9141L5.86699 6.78906C6.15268 6.45502 6.6487 6.40032 7.00033 6.66406L9.24199 8.40573L11.742 5.90573C12.0429 5.60731 12.5198 5.58221 12.8503 5.8474Z" fill="#F2F2F2"/>
</g>
</g>
</svg>
