<svg width="14" height="15" viewBox="0 0 14 15" fill="none" xmlns="http://www.w3.org/2000/svg">
<g id="Group">
<g id="Layer_48">
<path id="Shape" fill-rule="evenodd" clip-rule="evenodd" d="M13.6663 12.1693V2.83594C13.6663 1.73137 12.7709 0.835938 11.6663 0.835938H2.33301C1.22844 0.835938 0.333008 1.73137 0.333008 2.83594V12.1693C0.333008 13.2738 1.22844 14.1693 2.33301 14.1693H11.6663C12.7709 14.1693 13.6663 13.2738 13.6663 12.1693ZM9.66634 6.16927C8.92996 6.16927 8.33301 6.76622 8.33301 7.5026C8.33301 8.23898 8.92996 8.83594 9.66634 8.83594C10.4027 8.83594 10.9997 8.23898 10.9997 7.5026C10.9997 6.76622 10.4027 6.16927 9.66634 6.16927ZM12.333 5.5026H7.66634C7.29815 5.5026 6.99967 5.80108 6.99967 6.16927V8.83594C6.99967 9.20413 7.29815 9.5026 7.66634 9.5026H12.333V5.5026ZM11.6663 2.16927C12.0345 2.16927 12.333 2.46775 12.333 2.83594V4.16927H7.66634C6.56177 4.16927 5.66634 5.0647 5.66634 6.16927V8.83594C5.66634 9.94051 6.56177 10.8359 7.66634 10.8359H12.333V12.1693C12.333 12.5375 12.0345 12.8359 11.6663 12.8359H2.33301C1.96482 12.8359 1.66634 12.5375 1.66634 12.1693V2.83594C1.66634 2.46775 1.96482 2.16927 2.33301 2.16927H11.6663Z" fill="#F2F2F2"/>
</g>
</g>
</svg>
