<svg width="14" height="15" viewBox="0 0 14 15" fill="none" xmlns="http://www.w3.org/2000/svg">
<g id="Group">
<g id="Layer_130">
<path id="Shape" fill-rule="evenodd" clip-rule="evenodd" d="M2.33301 0.835938H11.6663C12.7709 0.835938 13.6663 1.73137 13.6663 2.83594V7.36927C13.6605 9.73378 12.2665 11.8744 10.1063 12.8359L7.27301 14.0893C7.09916 14.1674 6.90019 14.1674 6.72634 14.0893L3.89301 12.8359C1.73284 11.8744 0.338841 9.73378 0.333008 7.36927V2.83594C0.333008 1.73137 1.22844 0.835938 2.33301 0.835938ZM9.55967 11.6359C11.2464 10.8872 12.3335 9.21475 12.333 7.36927V2.83594C12.333 2.46775 12.0345 2.16927 11.6663 2.16927H2.33301C1.96482 2.16927 1.66634 2.46775 1.66634 2.83594V7.36927C1.66581 9.21475 2.7529 10.8872 4.43967 11.6359L6.99967 12.7759L9.55967 11.6359ZM9.76634 5.54927L8.27967 5.3226L7.61301 3.88927C7.50471 3.65156 7.26756 3.49901 7.00634 3.49901C6.74513 3.49901 6.50798 3.65156 6.39967 3.88927L5.73301 5.3226L4.24634 5.54927C4.00063 5.58712 3.79639 5.75854 3.71651 5.99397C3.63663 6.2294 3.69439 6.48972 3.86634 6.66927L4.96634 7.79594L4.70634 9.39594C4.67606 9.6437 4.78673 9.88763 4.99311 10.028C5.19949 10.1684 5.46701 10.1818 5.68634 10.0626L7.01967 9.32927L8.35301 10.0626C8.45129 10.1157 8.56132 10.1432 8.67301 10.1426C8.86995 10.1451 9.05794 10.0605 9.18655 9.91129C9.31515 9.7621 9.37121 9.56369 9.33967 9.36927L9.07967 7.76927L10.1797 6.6426C10.3516 6.46305 10.4094 6.20273 10.3295 5.9673C10.2496 5.73187 10.0454 5.56045 9.79967 5.5226L9.76634 5.54927ZM7.67301 7.6826C7.63859 7.47375 7.70539 7.26097 7.85301 7.10927L8.27967 6.66927L7.71967 6.5826C7.50146 6.54866 7.31422 6.40885 7.21967 6.20927L6.99967 5.73594L6.75301 6.20927C6.65846 6.40885 6.47122 6.54866 6.25301 6.5826L5.69301 6.66927L6.11967 7.10927C6.26729 7.26097 6.33409 7.47375 6.29967 7.6826L6.20634 8.25594L6.65301 8.00927C6.85928 7.89018 7.11341 7.89018 7.31967 8.00927L7.76634 8.25594L7.67301 7.6826Z" fill="#F2F2F2"/>
</g>
</g>
</svg>
