<svg width="10" height="10" viewBox="0 0 10 10" fill="none" xmlns="http://www.w3.org/2000/svg">
<path fill-rule="evenodd" clip-rule="evenodd" d="M5 10C2.23858 10 0 7.76142 0 5C0 2.23858 2.23858 0 5 0C6.32608 0 7.59785 0.526784 8.53553 1.46447C9.47322 2.40215 10 3.67392 10 5C10 7.76142 7.76142 10 5 10ZM7.355 3.145C7.44966 3.23888 7.5029 3.36668 7.5029 3.5C7.5029 3.63332 7.44966 3.76112 7.355 3.855L4.355 6.855C4.26112 6.94966 4.13332 7.0029 4 7.0029C3.86668 7.0029 3.73888 6.94966 3.645 6.855L2.645 5.855C2.51817 5.72817 2.46864 5.54331 2.51506 5.37006C2.56148 5.19681 2.69681 5.06148 2.87006 5.01506C3.04331 4.96864 3.22817 5.01817 3.355 5.145L4 5.795L6.645 3.145C6.73888 3.05034 6.86668 2.9971 7 2.9971C7.13332 2.9971 7.26112 3.05034 7.355 3.145ZM5 1C7.20914 1 9 2.79086 9 5C9 6.06087 8.57857 7.07828 7.82843 7.82843C7.07828 8.57857 6.06087 9 5 9C2.79086 9 1 7.20914 1 5C1 2.79086 2.79086 1 5 1Z" fill="#4EF500"/>
</svg>
