<svg xmlns="http://www.w3.org/2000/svg" width="16" height="14" viewBox="0 0 16 14" fill="none">
<path d="M7.88406 4.5L9.9974 6.60667C9.9974 6.57333 9.9974 6.53333 9.9974 6.5C9.9974 5.96957 9.78668 5.46086 9.41161 5.08579C9.03654 4.71071 8.52783 4.5 7.9974 4.5C7.9574 4.5 7.92406 4.5 7.88406 4.5ZM5.0174 5.03333L6.05073 6.06667C6.0174 6.20667 5.9974 6.34667 5.9974 6.5C5.9974 7.03043 6.20811 7.53914 6.58318 7.91421C6.95825 8.28929 7.46696 8.5 7.9974 8.5C8.14406 8.5 8.29073 8.48 8.43073 8.44667L9.46406 9.48C9.0174 9.7 8.52406 9.83333 7.9974 9.83333C7.11334 9.83333 6.26549 9.48214 5.64037 8.85702C5.01525 8.2319 4.66406 7.38405 4.66406 6.5C4.66406 5.97333 4.7974 5.48 5.0174 5.03333ZM1.33073 1.34667L2.85073 2.86667L3.15073 3.16667C2.05073 4.03333 1.18406 5.16667 0.664062 6.5C1.8174 9.42667 4.66406 11.5 7.9974 11.5C9.03073 11.5 10.0174 11.3 10.9174 10.94L11.2041 11.22L13.1507 13.1667L13.9974 12.32L2.1774 0.5M7.9974 3.16667C8.88145 3.16667 9.7293 3.51786 10.3544 4.14298C10.9795 4.7681 11.3307 5.61594 11.3307 6.5C11.3307 6.92667 11.2441 7.34 11.0907 7.71333L13.0441 9.66667C14.0441 8.83333 14.8441 7.74 15.3307 6.5C14.1774 3.57333 11.3307 1.5 7.9974 1.5C7.06406 1.5 6.17073 1.66667 5.33073 1.96667L6.7774 3.4C7.1574 3.25333 7.56406 3.16667 7.9974 3.16667Z" fill="#F2F2F2"/>
</svg>