<svg width="16" height="16" viewBox="0 0 16 16" fill="none" xmlns="http://www.w3.org/2000/svg">
<g id="chart-timeline-variant">
<path id="Vector" d="M2.0013 9.33333L2.33464 9.38L5.3813 6.33333C5.2613 5.9 5.37464 5.40667 5.72797 5.06C6.24797 4.53333 7.08797 4.53333 7.60797 5.06C7.9613 5.40667 8.07464 5.9 7.95464 6.33333L9.66797 8.04667L10.0013 8C10.1213 8 10.2346 8 10.3346 8.04667L12.7146 5.66667C12.668 5.56667 12.668 5.45333 12.668 5.33333C12.668 4.97971 12.8084 4.64057 13.0585 4.39052C13.3085 4.14048 13.6477 4 14.0013 4C14.3549 4 14.6941 4.14048 14.9441 4.39052C15.1942 4.64057 15.3346 4.97971 15.3346 5.33333C15.3346 5.68696 15.1942 6.02609 14.9441 6.27614C14.6941 6.52619 14.3549 6.66667 14.0013 6.66667C13.8813 6.66667 13.768 6.66667 13.668 6.62L11.288 9C11.3346 9.1 11.3346 9.21333 11.3346 9.33333C11.3346 9.68696 11.1942 10.0261 10.9441 10.2761C10.6941 10.5262 10.3549 10.6667 10.0013 10.6667C9.64768 10.6667 9.30854 10.5262 9.05849 10.2761C8.80844 10.0261 8.66797 9.68696 8.66797 9.33333L8.71464 9L7.0013 7.28667C6.78797 7.33333 6.54797 7.33333 6.33464 7.28667L3.28797 10.3333L3.33464 10.6667C3.33464 11.0203 3.19416 11.3594 2.94411 11.6095C2.69406 11.8595 2.35492 12 2.0013 12C1.64768 12 1.30854 11.8595 1.05849 11.6095C0.808445 11.3594 0.667969 11.0203 0.667969 10.6667C0.667969 10.313 0.808445 9.97391 1.05849 9.72386C1.30854 9.47381 1.64768 9.33333 2.0013 9.33333Z" fill="#B3B3B3"/>
</g>
</svg>
