<svg xmlns="http://www.w3.org/2000/svg" width="12" height="12" viewBox="0 0 12 12" fill="none">
  <path fill-rule="evenodd" clip-rule="evenodd" d="M1.94683 1.94683C4.19694 -0.303287 7.83522 -0.334903 10.1241 1.87577C12.3348 4.16464 12.3032 7.80293 10.053 10.053C7.80293 12.3032 4.16464 12.3348 1.87577 10.1241C-0.334903 7.83522 -0.303287 4.19694 1.94683 1.94683ZM8.65748 8.07077C8.65748 7.91523 8.59537 7.76613 8.48493 7.6566L6.82243 5.99993L8.48493 4.34327C8.6329 4.1953 8.69069 3.97963 8.63653 3.77751C8.58237 3.57538 8.42449 3.4175 8.22236 3.36334C8.02024 3.30918 7.80457 3.36697 7.6566 3.51493L5.99994 5.17743L4.34327 3.51493C4.1953 3.36697 3.97963 3.30918 3.77751 3.36334C3.57538 3.4175 3.4175 3.57538 3.36334 3.77751C3.30918 3.97963 3.36697 4.1953 3.51493 4.34327L5.17743 5.99993L3.51493 7.6566C3.4045 7.76613 3.34239 7.91523 3.34239 8.07077C3.34239 8.22631 3.4045 8.3754 3.51493 8.48493C3.62502 8.59413 3.77405 8.655 3.9291 8.6541C4.08415 8.655 4.23318 8.59413 4.34327 8.48493L5.99994 6.82243L7.6566 8.48493C7.76669 8.59413 7.91572 8.655 8.07077 8.6541C8.22582 8.655 8.37485 8.59413 8.48493 8.48493C8.59537 8.3754 8.65748 8.22631 8.65748 8.07077Z" fill="#262626"/>
</svg>