<svg width="18" height="18" viewBox="0 0 18 18" fill="none" xmlns="http://www.w3.org/2000/svg">
<g id="Group">
<g id="Layer_62">
<path id="Shape" fill-rule="evenodd" clip-rule="evenodd" d="M10.668 3.99935H1.5013C1.04106 3.99935 0.667969 3.62625 0.667969 3.16602C0.667969 2.70578 1.04106 2.33268 1.5013 2.33268H10.668C10.668 1.41221 11.4142 0.666016 12.3346 0.666016H14.0013C14.9218 0.666016 15.668 1.41221 15.668 2.33268H16.5013C16.9615 2.33268 17.3346 2.70578 17.3346 3.16602C17.3346 3.62625 16.9615 3.99935 16.5013 3.99935H15.668C15.668 4.91982 14.9218 5.66602 14.0013 5.66602H12.3346C11.4142 5.66602 10.668 4.91982 10.668 3.99935ZM14.0013 2.33268H12.3346V3.99935H14.0013V3.16602V2.33268ZM16.5013 8.16602H9.0013C9.0013 7.24554 8.25511 6.49935 7.33464 6.49935H5.66797C4.74749 6.49935 4.0013 7.24554 4.0013 8.16602H1.5013C1.04106 8.16602 0.667969 8.53911 0.667969 8.99935C0.667969 9.45959 1.04106 9.83268 1.5013 9.83268H4.0013C4.0013 10.7532 4.74749 11.4993 5.66797 11.4993H7.33464C8.25511 11.4993 9.0013 10.7532 9.0013 9.83268H16.5013C16.9615 9.83268 17.3346 9.45959 17.3346 8.99935C17.3346 8.53911 16.9615 8.16602 16.5013 8.16602ZM7.33464 8.16602H5.66797V9.83268H7.33464V8.99935V8.16602ZM16.5013 13.9993H14.0013C14.0013 13.0789 13.2551 12.3327 12.3346 12.3327H10.668C9.74749 12.3327 9.0013 13.0789 9.0013 13.9993H1.5013C1.04106 13.9993 0.667969 14.3724 0.667969 14.8327C0.667969 15.2929 1.04106 15.666 1.5013 15.666H9.0013C9.0013 16.5865 9.74749 17.3327 10.668 17.3327H12.3346C13.2551 17.3327 14.0013 16.5865 14.0013 15.666H16.5013C16.9615 15.666 17.3346 15.2929 17.3346 14.8327C17.3346 14.3724 16.9615 13.9993 16.5013 13.9993ZM10.668 13.9993V15.666H12.3346V14.8327V13.9993H10.668Z" fill="#F2F2F2"/>
</g>
</g>
</svg>
