<svg width="44" height="44" viewBox="0 0 44 44" fill="none" xmlns="http://www.w3.org/2000/svg">
<rect width="44" height="44" rx="22" fill="#4EF500" fill-opacity="0.3"/>
<path fill-rule="evenodd" clip-rule="evenodd" d="M8.66406 21.9993C8.66406 14.6356 14.6336 8.66602 21.9974 8.66602C25.5336 8.66602 28.925 10.0708 31.4255 12.5713C33.926 15.0717 35.3307 18.4631 35.3307 21.9993C35.3307 29.3631 29.3612 35.3327 21.9974 35.3327C14.6336 35.3327 8.66406 29.3631 8.66406 21.9993ZM20.2774 26.946L28.2774 18.946C28.8002 18.4232 28.8002 17.5755 28.2774 17.0527C27.7546 16.5299 26.9069 16.5299 26.3841 17.0527L19.3307 24.1193L17.6107 22.386C17.2725 22.0478 16.7796 21.9157 16.3176 22.0395C15.8556 22.1633 15.4947 22.5242 15.3709 22.9862C15.2471 23.4482 15.3792 23.9411 15.7174 24.2793L18.3841 26.946C18.6344 27.1984 18.9752 27.3404 19.3307 27.3404C19.6862 27.3404 20.027 27.1984 20.2774 26.946Z" fill="#4EF500"/>
</svg>
