<svg width="14" height="15" viewBox="0 0 14 15" fill="none" xmlns="http://www.w3.org/2000/svg">
<g id="Group">
<g id="Layer_70">
<path id="Shape" fill-rule="evenodd" clip-rule="evenodd" d="M6.99967 0.835938C3.31778 0.835938 0.333008 3.82071 0.333008 7.5026C0.333008 11.1845 3.31778 14.1693 6.99967 14.1693C10.6816 14.1693 13.6663 11.1845 13.6663 7.5026C13.6663 5.73449 12.964 4.0388 11.7137 2.78856C10.4635 1.53832 8.76778 0.835938 6.99967 0.835938ZM2.33301 7.5026C2.33301 4.92527 4.42235 2.83594 6.99967 2.83594C9.577 2.83594 11.6663 4.92527 11.6663 7.5026C11.6663 10.0799 9.577 12.1693 6.99967 12.1693C4.42235 12.1693 2.33301 10.0799 2.33301 7.5026ZM3.66634 7.5026C3.66634 9.34355 5.15873 10.8359 6.99967 10.8359C8.84062 10.8359 10.333 9.34355 10.333 7.5026C10.333 5.66165 8.84062 4.16927 6.99967 4.16927C5.15873 4.16927 3.66634 5.66165 3.66634 7.5026ZM1.66634 7.5026C1.66634 10.4481 4.05416 12.8359 6.99967 12.8359C8.41416 12.8359 9.77072 12.274 10.7709 11.2738C11.7711 10.2736 12.333 8.91709 12.333 7.5026C12.333 4.55709 9.94519 2.16927 6.99967 2.16927C4.05416 2.16927 1.66634 4.55709 1.66634 7.5026Z" fill="#F2F2F2"/>
</g>
</g>
</svg>
