<svg viewBox="0 0 23 13" fill="none" xmlns="http://www.w3.org/2000/svg">
<g id="Medium logo">
<path id="Vector" d="M6.42778 0.03125C9.97793 0.03125 12.8556 2.929 12.8556 6.50319C12.8556 10.0775 9.97766 12.9749 6.42778 12.9749C2.87808 12.9749 0 10.0775 0 6.50319C0 2.92909 2.87781 0.03125 6.42778 0.03125ZM16.6926 0.410329C18.4677 0.410329 19.9066 3.13795 19.9066 6.50319H19.9069C19.9069 9.86762 18.4679 12.596 16.693 12.596C14.9181 12.596 13.479 9.86762 13.479 6.50319C13.479 3.13884 14.9177 0.410329 16.6927 0.410329H16.6926ZM21.6606 1.04501C22.2848 1.04501 22.791 3.48872 22.791 6.50328C22.791 9.51686 22.285 11.9615 21.6606 11.9615C21.0363 11.9615 20.5305 9.51757 20.5305 6.50328C20.5305 3.4889 21.0366 1.04501 21.6606 1.04501Z" fill="currentColor"/>
</g>
</svg>
