<svg viewBox="0 0 32 32" fill="none" xmlns="http://www.w3.org/2000/svg">
<path id="Shape" fill-rule="evenodd" clip-rule="evenodd" d="M27.9192 22.6641H26.6658V13.3307C26.6658 7.43969 21.8902 2.66406 15.9992 2.66406C10.1081 2.66406 5.3325 7.43969 5.3325 13.3307V22.6641H4.14583C3.40945 22.6641 2.8125 23.261 2.8125 23.9974C2.8125 24.7338 3.40945 25.3307 4.14583 25.3307H11.9992C11.9992 27.5399 13.79 29.3307 15.9992 29.3307C18.2083 29.3307 19.9992 27.5399 19.9992 25.3307H27.9192C28.6555 25.3307 29.2525 24.7338 29.2525 23.9974C29.2525 23.261 28.6555 22.6641 27.9192 22.6641ZM15.9992 26.6641C15.2628 26.6641 14.6658 26.0671 14.6658 25.3307H17.3325C17.3325 26.0671 16.7355 26.6641 15.9992 26.6641ZM7.99917 22.6641H18.6658H23.9992V13.3307C23.9992 8.91245 20.4174 5.33073 15.9992 5.33073C11.5809 5.33073 7.99917 8.91245 7.99917 13.3307V22.6641Z" fill="currentColor"/>
</svg>
