<svg viewBox="0 0 20 20" fill="none" xmlns="http://www.w3.org/2000/svg">
<path id="Shape" fill-rule="evenodd" clip-rule="evenodd" d="M13.5891 12.4141L18.0891 16.9057C18.2468 17.0622 18.3356 17.2752 18.3356 17.4974C18.3356 17.7196 18.2468 17.9326 18.0891 18.0891C17.9326 18.2468 17.7196 18.3356 17.4974 18.3356C17.2752 18.3356 17.0622 18.2468 16.9057 18.0891L12.4141 13.5891C11.2494 14.5032 9.81128 14.9992 8.33073 14.9974C4.64883 14.9974 1.66406 12.0126 1.66406 8.33073C1.66406 4.64883 4.64883 1.66406 8.33073 1.66406C12.0126 1.66406 14.9974 4.64883 14.9974 8.33073C14.9992 9.81128 14.5032 11.2494 13.5891 12.4141ZM8.33073 3.33073C5.56931 3.33073 3.33073 5.56931 3.33073 8.33073C3.33073 11.0922 5.56931 13.3307 8.33073 13.3307C11.0922 13.3307 13.3307 11.0922 13.3307 8.33073C13.3307 5.56931 11.0922 3.33073 8.33073 3.33073Z" fill="currentColor"/>
</svg>
