<svg viewBox="0 0 20 20" fill="none" xmlns="http://www.w3.org/2000/svg">
<path id="Shape" fill-rule="evenodd" clip-rule="evenodd" d="M11.6641 4.9974H2.4974C2.03716 4.9974 1.66406 4.6243 1.66406 4.16406C1.66406 3.70383 2.03716 3.33073 2.4974 3.33073H11.6641C11.6641 2.41025 12.4103 1.66406 13.3307 1.66406H14.9974C15.9179 1.66406 16.6641 2.41025 16.6641 3.33073H17.4974C17.9576 3.33073 18.3307 3.70383 18.3307 4.16406C18.3307 4.6243 17.9576 4.9974 17.4974 4.9974H16.6641C16.6641 5.91787 15.9179 6.66406 14.9974 6.66406H13.3307C12.4103 6.66406 11.6641 5.91787 11.6641 4.9974ZM14.9974 3.33073H13.3307V4.9974H14.9974V4.16406V3.33073ZM17.4974 9.16406H9.9974C9.9974 8.24359 9.2512 7.4974 8.33073 7.4974H6.66406C5.74359 7.4974 4.9974 8.24359 4.9974 9.16406H2.4974C2.03716 9.16406 1.66406 9.53716 1.66406 9.9974C1.66406 10.4576 2.03716 10.8307 2.4974 10.8307H4.9974C4.9974 11.7512 5.74359 12.4974 6.66406 12.4974H8.33073C9.2512 12.4974 9.9974 11.7512 9.9974 10.8307H17.4974C17.9576 10.8307 18.3307 10.4576 18.3307 9.9974C18.3307 9.53716 17.9576 9.16406 17.4974 9.16406ZM8.33073 9.16406H6.66406V10.8307H8.33073V9.9974V9.16406ZM17.4974 14.9974H14.9974C14.9974 14.0769 14.2512 13.3307 13.3307 13.3307H11.6641C10.7436 13.3307 9.9974 14.0769 9.9974 14.9974H2.4974C2.03716 14.9974 1.66406 15.3705 1.66406 15.8307C1.66406 16.291 2.03716 16.6641 2.4974 16.6641H9.9974C9.9974 17.5845 10.7436 18.3307 11.6641 18.3307H13.3307C14.2512 18.3307 14.9974 17.5845 14.9974 16.6641H17.4974C17.9576 16.6641 18.3307 16.291 18.3307 15.8307C18.3307 15.3705 17.9576 14.9974 17.4974 14.9974ZM11.6641 14.9974V16.6641H13.3307V15.8307V14.9974H11.6641Z" fill="currentColor"/>
</svg>
