<svg viewBox="0 0 16 16" fill="none" xmlns="http://www.w3.org/2000/svg">
<path id="Shape" fill-rule="evenodd" clip-rule="evenodd" d="M14.6693 12.6693V3.33594C14.6693 2.23137 13.7738 1.33594 12.6693 1.33594H3.33594C2.23137 1.33594 1.33594 2.23137 1.33594 3.33594V12.6693C1.33594 13.7738 2.23137 14.6693 3.33594 14.6693H12.6693C13.7738 14.6693 14.6693 13.7738 14.6693 12.6693ZM10.6693 6.66927C9.93289 6.66927 9.33594 7.26622 9.33594 8.0026C9.33594 8.73898 9.93289 9.33594 10.6693 9.33594C11.4057 9.33594 12.0026 8.73898 12.0026 8.0026C12.0026 7.26622 11.4057 6.66927 10.6693 6.66927ZM13.3359 6.0026H8.66927C8.30108 6.0026 8.0026 6.30108 8.0026 6.66927V9.33594C8.0026 9.70413 8.30108 10.0026 8.66927 10.0026H13.3359V6.0026ZM12.6693 2.66927C13.0375 2.66927 13.3359 2.96775 13.3359 3.33594V4.66927H8.66927C7.5647 4.66927 6.66927 5.5647 6.66927 6.66927V9.33594C6.66927 10.4405 7.5647 11.3359 8.66927 11.3359H13.3359V12.6693C13.3359 13.0375 13.0375 13.3359 12.6693 13.3359H3.33594C2.96775 13.3359 2.66927 13.0375 2.66927 12.6693V3.33594C2.66927 2.96775 2.96775 2.66927 3.33594 2.66927H12.6693Z" fill="currentColor"/>
</svg>
