<svg xmlns="http://www.w3.org/2000/svg" width="13" height="12" viewBox="0 0 13 12" fill="none">
  <path d="M8.45134 2.53315C10.3647 3.33555 11.2666 5.54476 10.4638 7.45689C9.85899 8.89455 8.46034 9.76125 6.98964 9.76125C6.65638 9.76125 6.32055 9.71749 5.98858 9.62492L5.48804 10.8157C7.94309 11.5847 10.6323 10.3708 11.6475 7.95327C12.2522 6.51561 12.1648 4.90434 11.3863 3.51301C10.9475 2.72989 10.3003 2.07665 9.52059 1.63173C8.13608 0.842175 6.52772 0.740589 5.08403 1.33082C3.83593 1.84004 2.86061 2.80576 2.3395 4.04794C1.55203 5.92152 1.96121 8.07155 3.38173 9.52592L2.69977 10.1907C1.01291 8.46246 0.526531 5.90609 1.46196 3.67889C2.08344 2.20138 3.24147 1.05435 4.72504 0.448687C6.20861 -0.156974 7.84015 -0.149259 9.31727 0.470549C10.7957 1.09036 11.9435 2.24896 12.5495 3.73161C13.1555 5.21425 13.1478 6.8448 12.5276 8.32103C11.9074 9.79854 10.7481 10.9456 9.26452 11.5512C8.5311 11.8509 7.76296 12 6.99478 12C6.43506 12 5.87535 11.9203 5.32977 11.7621C4.95536 11.6528 4.60023 11.4856 4.26955 11.2812L4.41752 10.9057L5.11105 9.25588C3.49624 8.3236 2.78598 6.30728 3.52583 4.5443C3.90799 3.63517 4.61825 2.92278 5.52794 2.537L5.89982 3.41399C5.22171 3.70075 4.6903 4.23311 4.40465 4.91206C3.8681 6.19028 4.3519 7.64594 5.48419 8.36603L8.02413 2.34154M6.36302 8.73636C7.6703 9.03855 9.04963 8.36474 9.5862 7.08785C10.1228 5.81091 9.63896 4.35401 8.50667 3.63388L6.36302 8.73765V8.73636Z" fill="#262626"/>
</svg>