<?xml version="1.0" encoding="utf-8"?>
<!-- Generator: Adobe Illustrator 25.1.0, SVG Export Plug-In . SVG Version: 6.00 Build 0)  -->
<svg version="1.1" id="레이어_1" xmlns="http://www.w3.org/2000/svg" xmlns:xlink="http://www.w3.org/1999/xlink" x="0px"
	 y="0px" viewBox="0 0 16 16" style="enable-background:new 0 0 16 16;" xml:space="preserve">
<style type="text/css">
	.st0{fill:#FFFFFF;fill-opacity:0;}
	.st1{fill:#51A21E;}
</style>
<g id="그룹_12182" transform="translate(-749 -471)">
	<rect id="사각형_3382" x="749" y="471" class="st0" width="16" height="16"/>
	<g id="그룹_12180" transform="translate(773.416 446.102)">
		<path id="패스_7518" class="st1" d="M-20.7,27.9v2.5h-1.7v6.4h1.8v1.8h9.2V27.9H-20.7z M-20.7,32.2h0.9l0.5,0.7l0.5-0.7h0.9
			l-0.9,1.4l0.9,1.4h-0.9l-0.5-0.7l-0.5,0.7h-0.9l0.9-1.4L-20.7,32.2z M-12.1,37.9h-7.8v-1.1h3.9v-2.1h2.8V34H-16v-0.7h2.8v-0.7H-16
			v-0.7h2.8v-0.7H-16v-0.8h-3.9v-1.8h7.8V37.9z"/>
	</g>
</g>
</svg>
