<svg width="100" height="100" viewBox="0 0 100 100" fill="none" xmlns="http://www.w3.org/2000/svg">
<g clip-path="url(#clip0_734_17706)">
<rect width="100" height="100" rx="50" fill="white"/>
<g clip-path="url(#clip1_734_17706)">
<mask id="mask0_734_17706" style="mask-type:luminance" maskUnits="userSpaceOnUse" x="0" y="0" width="100" height="100">
<path d="M100 0H0V100H100V0Z" fill="white"/>
</mask>
<g mask="url(#mask0_734_17706)">
<path d="M100 0H0V100H100V0Z" fill="white"/>
<path d="M100.05 0H0.0498047V100H100.05V0Z" fill="url(#paint0_linear_734_17706)"/>
<path d="M100.05 0H0.0498047V100H100.05V0Z" fill="url(#paint1_linear_734_17706)"/>
<path d="M100.05 0H0.0498047V100H100.05V0Z" fill="url(#paint2_linear_734_17706)"/>
<path d="M100.05 0H0.0498047V100H100.05V0Z" fill="url(#paint3_linear_734_17706)"/>
<path d="M100.05 0H0.0498047V100H100.05V0Z" fill="url(#paint4_linear_734_17706)"/>
</g>
</g>
<path d="M64.9684 30.209V67.2999H59.8249L40.9715 40.0975H40.6274V67.2999H35.0312V30.209H40.2109L59.0823 57.4476H59.4265V30.209H64.9684Z" fill="#29293E"/>
</g>
<defs>
<linearGradient id="paint0_linear_734_17706" x1="82.4498" y1="6.95" x2="26.1498" y2="100" gradientUnits="userSpaceOnUse">
<stop stop-color="#70E2A5"/>
<stop offset="0.510417" stop-color="#BCA9F7"/>
<stop offset="1" stop-color="#A3CCF9"/>
</linearGradient>
<linearGradient id="paint1_linear_734_17706" x1="10.3498" y1="89.9" x2="44.6998" y2="57.25" gradientUnits="userSpaceOnUse">
<stop stop-color="#8DF9F9"/>
<stop offset="0.963542" stop-color="#8DF9F9" stop-opacity="0"/>
</linearGradient>
<linearGradient id="paint2_linear_734_17706" x1="103.95" y1="71.5" x2="77.1998" y2="36.35" gradientUnits="userSpaceOnUse">
<stop stop-color="#FCECDE" stop-opacity="0.9"/>
<stop offset="1" stop-color="#FCECDE" stop-opacity="0"/>
</linearGradient>
<linearGradient id="paint3_linear_734_17706" x1="87.0998" y1="12" x2="57.5498" y2="41.95" gradientUnits="userSpaceOnUse">
<stop stop-color="#82FCA5"/>
<stop offset="1" stop-color="#82FCA5" stop-opacity="0"/>
</linearGradient>
<linearGradient id="paint4_linear_734_17706" x1="12.8998" y1="4.25" x2="50.0998" y2="34.3" gradientUnits="userSpaceOnUse">
<stop stop-color="#A188FF"/>
<stop offset="1" stop-color="#A188FF" stop-opacity="0"/>
</linearGradient>
<clipPath id="clip0_734_17706">
<rect width="100" height="100" rx="50" fill="white"/>
</clipPath>
<clipPath id="clip1_734_17706">
<rect width="100" height="100" fill="white"/>
</clipPath>
</defs>
</svg>
