<svg width="100" height="100" viewBox="0 0 100 100" fill="none" xmlns="http://www.w3.org/2000/svg">
<g clip-path="url(#clip0_734_17708)">
<rect width="100" height="100" rx="50" fill="white"/>
<g clip-path="url(#clip1_734_17708)">
<mask id="mask0_734_17708" style="mask-type:luminance" maskUnits="userSpaceOnUse" x="0" y="0" width="100" height="100">
<path d="M100 0H0V100H100V0Z" fill="white"/>
</mask>
<g mask="url(#mask0_734_17708)">
<path d="M100 0H0V100H100V0Z" fill="white"/>
<path d="M100.05 0H0.0498047V100H100.05V0Z" fill="url(#paint0_linear_734_17708)"/>
<path d="M100.05 0H0.0498047V100H100.05V0Z" fill="url(#paint1_linear_734_17708)"/>
<path d="M100.05 0H0.0498047V100H100.05V0Z" fill="url(#paint2_linear_734_17708)"/>
<path d="M100.05 0H0.0498047V100H100.05V0Z" fill="url(#paint3_linear_734_17708)"/>
<path d="M100.05 0H0.0498047V100H100.05V0Z" fill="url(#paint4_linear_734_17708)"/>
</g>
</g>
<path d="M31.1826 30.209H37.9741L49.7824 59.0414H50.217L62.0253 30.209H68.8168V67.2999H63.4922V40.4597H63.1481L52.2092 67.2456H47.7902L36.8513 40.4416H36.5072V67.2999H31.1826V30.209Z" fill="#29293E"/>
</g>
<defs>
<linearGradient id="paint0_linear_734_17708" x1="82.4498" y1="6.95" x2="26.1499" y2="100" gradientUnits="userSpaceOnUse">
<stop stop-color="#E495FF"/>
<stop offset="0.510417" stop-color="#EBABFF"/>
<stop offset="1" stop-color="#BFA1FF"/>
</linearGradient>
<linearGradient id="paint1_linear_734_17708" x1="10.3498" y1="89.9" x2="44.6998" y2="57.25" gradientUnits="userSpaceOnUse">
<stop stop-color="#8C9BFF"/>
<stop offset="0.963542" stop-color="#8C9BFF" stop-opacity="0"/>
</linearGradient>
<linearGradient id="paint2_linear_734_17708" x1="104.25" y1="71.35" x2="80.8499" y2="43.15" gradientUnits="userSpaceOnUse">
<stop stop-color="#DFFEFE" stop-opacity="0.9"/>
<stop offset="1" stop-color="#DFFEFE" stop-opacity="0"/>
</linearGradient>
<linearGradient id="paint3_linear_734_17708" x1="87.0998" y1="12" x2="57.5498" y2="41.95" gradientUnits="userSpaceOnUse">
<stop stop-color="#E167FF"/>
<stop offset="1" stop-color="#E167FF" stop-opacity="0"/>
</linearGradient>
<linearGradient id="paint4_linear_734_17708" x1="12.8998" y1="4.25" x2="50.0998" y2="34.3" gradientUnits="userSpaceOnUse">
<stop stop-color="#F08DFF"/>
<stop offset="1" stop-color="#F08DFF" stop-opacity="0"/>
</linearGradient>
<clipPath id="clip0_734_17708">
<rect width="100" height="100" rx="50" fill="white"/>
</clipPath>
<clipPath id="clip1_734_17708">
<rect width="100" height="100" fill="white"/>
</clipPath>
</defs>
</svg>
