<svg width="100" height="100" viewBox="0 0 100 100" fill="none" xmlns="http://www.w3.org/2000/svg">
<g clip-path="url(#clip0_734_17730)">
<rect width="100" height="100" rx="50" fill="white"/>
<g clip-path="url(#clip1_734_17730)">
<mask id="mask0_734_17730" style="mask-type:luminance" maskUnits="userSpaceOnUse" x="0" y="0" width="100" height="100">
<path d="M100 0H0V100H100V0Z" fill="white"/>
</mask>
<g mask="url(#mask0_734_17730)">
<path d="M100 0H0V100H100V0Z" fill="white"/>
<path d="M100.05 0H0.0498047V100H100.05V0Z" fill="url(#paint0_linear_734_17730)"/>
<path d="M100.05 0H0.0498047V100H100.05V0Z" fill="url(#paint1_linear_734_17730)"/>
<path d="M100.05 0H0.0498047V100H100.05V0Z" fill="url(#paint2_linear_734_17730)"/>
<path d="M100.05 0H0.0498047V100H100.05V0Z" fill="url(#paint3_linear_734_17730)"/>
</g>
</g>
<path d="M36.6338 67.3018V30.2109H50.2169C52.849 30.2109 55.0283 30.6456 56.7549 31.5149C58.4815 32.3721 59.7734 33.5373 60.6306 35.0103C61.4879 36.4712 61.9165 38.1193 61.9165 39.9545C61.9165 41.5 61.6328 42.8039 61.0653 43.8664C60.4978 44.9169 59.7372 45.762 58.7833 46.402C57.8416 47.0298 56.8032 47.4886 55.6683 47.7784V48.1406C56.8998 48.201 58.1011 48.5994 59.2723 49.3359C60.4555 50.0603 61.4335 51.0927 62.2063 52.4329C62.979 53.7731 63.3653 55.403 63.3653 57.3228C63.3653 59.2184 62.9186 60.9208 62.0251 62.43C61.1438 63.9272 59.7794 65.1164 57.9321 65.9978C56.0848 66.8672 53.7244 67.3018 50.8508 67.3018H36.6338ZM42.2301 62.5025H50.3075C52.9879 62.5025 54.9076 61.9833 56.0667 60.9449C57.2258 59.9066 57.8053 58.6086 57.8053 57.0511C57.8053 55.8799 57.5095 54.8054 56.9179 53.8274C56.3263 52.8494 55.4811 52.0706 54.3824 51.4911C53.2957 50.9115 52.0038 50.6218 50.5067 50.6218H42.2301V62.5025ZM42.2301 46.2571H49.7279C50.9836 46.2571 52.1125 46.0156 53.1146 45.5326C54.1288 45.0497 54.9318 44.3735 55.5234 43.5042C56.1271 42.6228 56.4289 41.5845 56.4289 40.3892C56.4289 38.8558 55.8916 37.5699 54.8171 36.5316C53.7425 35.4932 52.0944 34.974 49.8728 34.974H42.2301V46.2571Z" fill="#29293E"/>
</g>
<defs>
<linearGradient id="paint0_linear_734_17730" x1="82.4498" y1="6.95" x2="26.1499" y2="100" gradientUnits="userSpaceOnUse">
<stop stop-color="#A8C0FF"/>
<stop offset="0.510417" stop-color="#C071FF"/>
<stop offset="1" stop-color="#ED3B9B"/>
</linearGradient>
<linearGradient id="paint1_linear_734_17730" x1="16.5498" y1="13.35" x2="100.05" y2="100" gradientUnits="userSpaceOnUse">
<stop stop-color="#FF8541" stop-opacity="0"/>
<stop offset="1" stop-color="#FF8541"/>
</linearGradient>
<linearGradient id="paint2_linear_734_17730" x1="-4.30019" y1="132.3" x2="47.8998" y2="59.6" gradientUnits="userSpaceOnUse">
<stop stop-color="#FF8541"/>
<stop offset="1" stop-color="#FF8541" stop-opacity="0"/>
</linearGradient>
<linearGradient id="paint3_linear_734_17730" x1="53.2998" y1="-28.6" x2="52.6498" y2="51.85" gradientUnits="userSpaceOnUse">
<stop stop-color="#8EECFC"/>
<stop offset="1" stop-color="#8EECFC" stop-opacity="0"/>
</linearGradient>
<clipPath id="clip0_734_17730">
<rect width="100" height="100" rx="50" fill="white"/>
</clipPath>
<clipPath id="clip1_734_17730">
<rect width="100" height="100" fill="white"/>
</clipPath>
</defs>
</svg>
