<svg width="100" height="100" viewBox="0 0 100 100" fill="none" xmlns="http://www.w3.org/2000/svg">
<g clip-path="url(#clip0_734_17728)">
<rect width="100" height="100" rx="50" fill="white"/>
<g clip-path="url(#clip1_734_17728)">
<mask id="mask0_734_17728" style="mask-type:luminance" maskUnits="userSpaceOnUse" x="0" y="0" width="100" height="100">
<path d="M100 0H0V100H100V0Z" fill="white"/>
</mask>
<g mask="url(#mask0_734_17728)">
<path d="M100 0H0V100H100V0Z" fill="white"/>
<path d="M100.05 0H0.0498047V100H100.05V0Z" fill="url(#paint0_linear_734_17728)"/>
<path d="M100.05 0H0.0498047V100H100.05V0Z" fill="url(#paint1_linear_734_17728)"/>
<path d="M100.05 0H0.0498047V100H100.05V0Z" fill="url(#paint2_linear_734_17728)"/>
<path d="M100.05 0H0.0498047V100H100.05V0Z" fill="url(#paint3_linear_734_17728)"/>
<path d="M100.05 0H0.0498047V100H100.05V0Z" fill="url(#paint4_linear_734_17728)"/>
</g>
</g>
<path d="M35.1494 67.3018V30.2109H40.7456V46.3295H59.2368V30.2109H64.8511V67.3018H59.2368V51.1289H40.7456V67.3018H35.1494Z" fill="#29293E"/>
</g>
<defs>
<linearGradient id="paint0_linear_734_17728" x1="82.4498" y1="6.95" x2="26.1498" y2="100" gradientUnits="userSpaceOnUse">
<stop stop-color="#96FDAA"/>
<stop offset="0.510417" stop-color="#DDFA76"/>
<stop offset="1" stop-color="#86FECA"/>
</linearGradient>
<linearGradient id="paint1_linear_734_17728" x1="10.3498" y1="89.9" x2="44.6998" y2="57.25" gradientUnits="userSpaceOnUse">
<stop stop-color="#98FFD8"/>
<stop offset="0.963542" stop-color="#98FFD8" stop-opacity="0"/>
</linearGradient>
<linearGradient id="paint2_linear_734_17728" x1="92.7998" y1="76.7" x2="71.0498" y2="53.8" gradientUnits="userSpaceOnUse">
<stop stop-color="#CFFFB4"/>
<stop offset="0.963542" stop-color="#CFFFB4" stop-opacity="0"/>
</linearGradient>
<linearGradient id="paint3_linear_734_17728" x1="87.0998" y1="12" x2="57.5498" y2="41.95" gradientUnits="userSpaceOnUse">
<stop stop-color="#7BFFE1"/>
<stop offset="1" stop-color="#7BFFE1" stop-opacity="0"/>
</linearGradient>
<linearGradient id="paint4_linear_734_17728" x1="12.8998" y1="4.25" x2="50.0998" y2="34.3" gradientUnits="userSpaceOnUse">
<stop stop-color="#8BFFA3"/>
<stop offset="1" stop-color="#8BFFA3" stop-opacity="0"/>
</linearGradient>
<clipPath id="clip0_734_17728">
<rect width="100" height="100" rx="50" fill="white"/>
</clipPath>
<clipPath id="clip1_734_17728">
<rect width="100" height="100" fill="white"/>
</clipPath>
</defs>
</svg>
