<svg width="100" height="100" viewBox="0 0 100 100" fill="none" xmlns="http://www.w3.org/2000/svg">
<g clip-path="url(#clip0_734_17725)">
<rect width="100" height="100" rx="50" fill="white"/>
<g clip-path="url(#clip1_734_17725)">
<mask id="mask0_734_17725" style="mask-type:luminance" maskUnits="userSpaceOnUse" x="0" y="0" width="100" height="100">
<path d="M100 0H0V100H100V0Z" fill="white"/>
</mask>
<g mask="url(#mask0_734_17725)">
<path d="M100 0H0V100H100V0Z" fill="white"/>
<path d="M100.05 0H0.0498047V100H100.05V0Z" fill="url(#paint0_linear_734_17725)"/>
<path d="M100.05 0H0.0498047V100H100.05V0Z" fill="url(#paint1_linear_734_17725)"/>
<path d="M100.05 0H0.0498047V100H100.05V0Z" fill="url(#paint2_linear_734_17725)"/>
<path d="M100.05 0H0.0498047V100H100.05V0Z" fill="url(#paint3_linear_734_17725)"/>
<path d="M100.05 0H0.0498047V100H100.05V0Z" fill="url(#paint4_linear_734_17725)"/>
</g>
</g>
<path d="M38.5 67.3018V30.2109H61.5007V35.0284H44.0963V46.3295H59.8527V51.1289H44.0963V67.3018H38.5Z" fill="#29293E"/>
</g>
<defs>
<linearGradient id="paint0_linear_734_17725" x1="82.4498" y1="6.95" x2="26.1498" y2="100" gradientUnits="userSpaceOnUse">
<stop stop-color="#DABF83"/>
<stop offset="0.510417" stop-color="#979EF6"/>
<stop offset="1" stop-color="#859CFB"/>
</linearGradient>
<linearGradient id="paint1_linear_734_17725" x1="10.3498" y1="89.9" x2="44.6998" y2="57.25" gradientUnits="userSpaceOnUse">
<stop stop-color="#839FFD"/>
<stop offset="0.963542" stop-color="#8C9BFF" stop-opacity="0"/>
</linearGradient>
<linearGradient id="paint2_linear_734_17725" x1="103.95" y1="71.5" x2="77.1998" y2="36.35" gradientUnits="userSpaceOnUse">
<stop stop-color="#FCECDE" stop-opacity="0.9"/>
<stop offset="1" stop-color="#FCECDE" stop-opacity="0"/>
</linearGradient>
<linearGradient id="paint3_linear_734_17725" x1="87.0998" y1="12" x2="57.5498" y2="41.95" gradientUnits="userSpaceOnUse">
<stop stop-color="#F8C879"/>
<stop offset="1" stop-color="#F8C879" stop-opacity="0"/>
</linearGradient>
<linearGradient id="paint4_linear_734_17725" x1="12.8998" y1="4.25" x2="50.0998" y2="34.3" gradientUnits="userSpaceOnUse">
<stop stop-color="#90FEC9"/>
<stop offset="1" stop-color="#90FEC9" stop-opacity="0"/>
</linearGradient>
<clipPath id="clip0_734_17725">
<rect width="100" height="100" rx="50" fill="white"/>
</clipPath>
<clipPath id="clip1_734_17725">
<rect width="100" height="100" fill="white"/>
</clipPath>
</defs>
</svg>
