<svg width="100" height="100" viewBox="0 0 100 100" fill="none" xmlns="http://www.w3.org/2000/svg">
<g clip-path="url(#clip0_734_17716)">
<rect width="100" height="100" rx="50" fill="white"/>
<g clip-path="url(#clip1_734_17716)">
<mask id="mask0_734_17716" style="mask-type:luminance" maskUnits="userSpaceOnUse" x="0" y="0" width="100" height="100">
<path d="M100 0H0V100H100V0Z" fill="white"/>
</mask>
<g mask="url(#mask0_734_17716)">
<path d="M100 0H0V100H100V0Z" fill="white"/>
<path d="M100.05 0H0.0498047V100H100.05V0Z" fill="url(#paint0_linear_734_17716)"/>
<path d="M100.05 0H0.0498047V100H100.05V0Z" fill="url(#paint1_linear_734_17716)"/>
<path d="M100.05 0H0.0498047V100H100.05V0Z" fill="url(#paint2_linear_734_17716)"/>
<path d="M100.05 0H0.0498047V100H100.05V0Z" fill="url(#paint3_linear_734_17716)"/>
<path d="M100.05 0H0.0498047V100H100.05V0Z" fill="url(#paint4_linear_734_17716)"/>
</g>
</g>
<path d="M55.5604 30.2109H61.1386V56.5078C61.1386 58.8863 60.6677 60.9208 59.7259 62.6111C58.7962 64.3015 57.4862 65.5934 55.7959 66.4868C54.1055 67.3682 52.1254 67.8089 49.8555 67.8089C47.7668 67.8089 45.8893 67.4286 44.2231 66.6679C42.569 65.9073 41.2589 64.8025 40.293 63.3537C39.3392 61.8927 38.8623 60.1179 38.8623 58.0291H44.4223C44.4223 59.0554 44.6577 59.9428 45.1286 60.6914C45.6116 61.44 46.2696 62.0255 47.1027 62.4481C47.9479 62.8586 48.9138 63.0639 50.0004 63.0639C51.1837 63.0639 52.1858 62.8164 53.0068 62.3213C53.8399 61.8142 54.4738 61.0717 54.9084 60.0937C55.3431 59.1157 55.5604 57.9204 55.5604 56.5078V30.2109Z" fill="#29293E"/>
</g>
<defs>
<linearGradient id="paint0_linear_734_17716" x1="82.4498" y1="6.95" x2="26.1498" y2="100" gradientUnits="userSpaceOnUse">
<stop stop-color="#FCE170"/>
<stop offset="0.535183" stop-color="#F3ED8E"/>
<stop offset="1" stop-color="#FBB283"/>
</linearGradient>
<linearGradient id="paint1_linear_734_17716" x1="4.7498" y1="92.25" x2="45.8498" y2="59.6" gradientUnits="userSpaceOnUse">
<stop stop-color="#FDA181"/>
<stop offset="0.963542" stop-color="#FDA181" stop-opacity="0"/>
</linearGradient>
<linearGradient id="paint2_linear_734_17716" x1="90.4998" y1="67.3" x2="66.8998" y2="39.3" gradientUnits="userSpaceOnUse">
<stop stop-color="#F7FFD5" stop-opacity="0.7"/>
<stop offset="1" stop-color="#F7FFD5" stop-opacity="0"/>
</linearGradient>
<linearGradient id="paint3_linear_734_17716" x1="87.0998" y1="12" x2="57.5498" y2="41.95" gradientUnits="userSpaceOnUse">
<stop stop-color="#FFE588"/>
<stop offset="1" stop-color="#FFE588" stop-opacity="0"/>
</linearGradient>
<linearGradient id="paint4_linear_734_17716" x1="12.8998" y1="4.25" x2="50.0998" y2="34.3" gradientUnits="userSpaceOnUse">
<stop stop-color="#FFC398"/>
<stop offset="1" stop-color="#FFC398" stop-opacity="0"/>
</linearGradient>
<clipPath id="clip0_734_17716">
<rect width="100" height="100" rx="50" fill="white"/>
</clipPath>
<clipPath id="clip1_734_17716">
<rect width="100" height="100" fill="white"/>
</clipPath>
</defs>
</svg>
