<svg width="16" height="16" viewBox="0 0 16 16" fill="none" xmlns="http://www.w3.org/2000/svg">
<g id="Group">
<g id="Layer_16">
<path id="Path" d="M13.1632 13.2485C13.4059 13.5248 13.379 13.9453 13.1032 14.1885C12.827 14.4311 12.4064 14.4043 12.1632 14.1285L6.82989 8.1285C6.60879 7.87683 6.60879 7.50017 6.82989 7.2485L12.1632 1.2485C12.317 1.05761 12.5631 0.966481 12.8041 1.01121C13.0451 1.05594 13.2421 1.22932 13.3171 1.46267C13.3921 1.69603 13.333 1.95172 13.1632 2.1285L8.22322 7.6885L13.1632 13.2485Z" fill="#F2F2F2"/>
</g>
</g>
<g id="Group_2">
<g id="Layer_16_2">
<path id="Path_2" d="M8.49916 13.2485C8.7418 13.5248 8.71496 13.9453 8.43916 14.1885C8.16289 14.4311 7.74233 14.4043 7.49916 14.1285L2.16582 8.1285C1.94473 7.87683 1.94473 7.50017 2.16582 7.2485L7.49916 1.2485C7.65291 1.05761 7.89902 0.966481 8.14002 1.01121C8.38101 1.05594 8.57803 1.22932 8.65304 1.46267C8.72805 1.69603 8.66895 1.95172 8.49916 2.1285L3.55916 7.6885L8.49916 13.2485Z" fill="#F2F2F2"/>
</g>
</g>
</svg>
