<svg xmlns="http://www.w3.org/2000/svg" width="23" height="13" viewBox="0 0 23 13" fill="none">
  <g clip-path="url(#clip0_189_22479)">
    <path d="M6.42778 0.0283203C9.97793 0.0283203 12.8556 2.92607 12.8556 6.50026C12.8556 10.0745 9.97766 12.972 6.42778 12.972C2.87808 12.972 0 10.0745 0 6.50026C0 2.92616 2.87781 0.0283203 6.42778 0.0283203ZM16.6926 0.407399C18.4677 0.407399 19.9066 3.13502 19.9066 6.50026H19.9069C19.9069 9.86469 18.4679 12.5931 16.693 12.5931C14.9181 12.5931 13.479 9.86469 13.479 6.50026C13.479 3.13591 14.9177 0.407399 16.6927 0.407399H16.6926ZM21.6606 1.04208C22.2848 1.04208 22.791 3.48579 22.791 6.50035C22.791 9.51393 22.285 11.9586 21.6606 11.9586C21.0363 11.9586 20.5305 9.51464 20.5305 6.50035C20.5305 3.48597 21.0366 1.04208 21.6606 1.04208Z" fill="#F2F2F2"/>
  </g>
  <defs>
    <clipPath id="clip0_189_22479">
      <rect width="22.791" height="13" fill="white"/>
    </clipPath>
  </defs>
</svg>