<svg xmlns="http://www.w3.org/2000/svg" width="180" height="28" viewBox="0 0 180 28" fill="none">
  <path d="M70.9985 3.53711C69.6385 3.53711 68.5342 4.64147 68.5342 5.99227C68.5342 7.34306 69.6385 8.44743 70.9985 8.44743C72.3584 8.44743 73.4628 7.34306 73.4628 5.99227C73.4628 4.64147 72.3584 3.53711 70.9985 3.53711ZM70.9985 6.98711C70.4509 6.98711 70.0036 6.53989 70.0036 5.99227C70.0036 5.44465 70.4509 4.99743 70.9985 4.99743C71.5461 4.99743 71.9933 5.44465 71.9933 5.99227C71.9933 6.53989 71.5461 6.98711 70.9985 6.98711Z" fill="white"/>
  <path d="M18.1437 9.65039C15.3326 9.65039 13.0417 11.9413 13.0417 14.7432C13.0417 17.5452 15.3326 19.8361 18.1437 19.8361C20.9548 19.8361 23.2457 17.5452 23.2457 14.7432C23.2457 11.9413 20.9548 9.65039 18.1437 9.65039ZM18.1437 18.0016C16.3457 18.0016 14.8854 16.5413 14.8854 14.7432C14.8854 12.9452 16.3457 11.4849 18.1437 11.4849C19.9417 11.4849 21.4021 12.9452 21.4021 14.7432C21.4021 16.5413 19.9417 18.0016 18.1437 18.0016Z" fill="white"/>
  <path d="M59.5985 13.3833V9.65039H57.7549V19.8452H59.5985V18.9234C59.5985 14.8254 62.9299 11.494 67.037 11.494V9.65039C63.9977 9.65039 61.2962 11.1198 59.5985 13.3833Z" fill="white"/>
  <path d="M38.6166 9.65039C36.8916 9.65039 35.3583 10.5175 34.4364 11.8317C33.5146 10.5175 31.9904 9.65039 30.2563 9.65039C29.015 9.65039 27.8833 10.0976 26.9979 10.8278V9.65039H25.1543V19.8452H26.9979V14.7432C26.9979 12.9452 28.4583 11.4849 30.2563 11.4849C32.0543 11.4849 33.5146 12.9452 33.5146 14.7432V19.8452H35.3583V14.7432C35.3583 12.9452 36.8186 11.4849 38.6166 11.4849C40.4146 11.4849 41.8749 12.9452 41.8749 14.7432V19.8452H43.7186V14.7432C43.7186 11.9321 41.4277 9.65039 38.6166 9.65039Z" fill="white"/>
  <path d="M83.2566 14.753C83.2566 16.551 81.7962 18.0113 79.9982 18.0113C78.2002 18.0113 76.7399 16.551 76.7399 14.753V9.66016H74.8962V14.753C74.8962 17.5641 77.1871 19.8459 79.9982 19.8459C82.8093 19.8459 85.1002 17.555 85.1002 14.753V9.66016H83.2566V14.753Z" fill="white"/>
  <path d="M100.479 9.76758C98.7541 9.76758 97.2208 10.6346 96.299 11.9489C95.3772 10.6346 93.8438 9.76758 92.1188 9.76758C90.8867 9.76758 89.7458 10.2148 88.8605 10.945V9.76758H87.0168V19.9624H88.8605V14.8604C88.8605 13.0624 90.3208 11.6021 92.1188 11.6021C93.9168 11.6021 95.3772 13.0624 95.3772 14.8604V19.9624H97.2208V14.8604C97.2208 13.0624 98.6811 11.6021 100.479 11.6021C102.277 11.6021 103.737 13.0624 103.737 14.8604V19.9624H105.581V14.8604C105.581 12.0493 103.29 9.76758 100.479 9.76758Z" fill="white"/>
  <path d="M71.893 9.65039H70.0493V19.8452H71.893V9.65039Z" fill="white"/>
  <path d="M6.02381 9.65039C4.29881 9.65039 2.76548 10.5175 1.84365 11.8317V9.65039H0V21.7436H1.84365V17.6639C2.76548 18.9782 4.29881 19.8452 6.02381 19.8452C8.83492 19.8452 11.1258 17.5544 11.1258 14.7524C11.1258 11.9504 8.83492 9.65952 6.02381 9.65952V9.65039ZM6.02381 18.0016C4.22579 18.0016 2.76548 16.5413 2.76548 14.7432C2.76548 12.9452 4.22579 11.4849 6.02381 11.4849C7.82182 11.4849 9.28214 12.9452 9.28214 14.7432C9.28214 16.5413 7.82182 18.0016 6.02381 18.0016Z" fill="white"/>
  <path d="M50.7361 18.0022C49.2849 18.0022 48.0619 17.053 47.6329 15.7479H55.7286C55.7925 15.4284 55.829 15.0907 55.829 14.753C55.829 11.9419 53.5381 9.66016 50.727 9.66016C47.9159 9.66016 45.625 11.951 45.625 14.753C45.625 17.555 47.9159 19.8459 50.727 19.8459C52.8627 19.8459 54.6881 18.5316 55.4548 16.6697H53.3556C52.7623 17.482 51.804 18.0022 50.727 18.0022H50.7361ZM50.7361 11.4947C52.2421 11.4947 53.5016 12.5169 53.8758 13.9042H47.5964C47.9706 12.5169 49.2393 11.4947 50.7361 11.4947Z" fill="white"/>
  <path d="M106.486 27.194L116.014 13.9051L112.099 8.42891H112.108H114.837H114.846L117.374 11.9884L119.118 9.53328L121.189 6.60352H118.99L117.383 8.84875L115.786 6.60352H108.558L113.778 13.9051L104.259 27.194H106.486Z" fill="url(#paint0_linear_1999_51116)"/>
  <path d="M128.026 0.650391L120.277 11.7032L118.725 13.9028L122.604 19.379H122.595H119.93H119.921L117.375 15.8377L113.523 21.2044H115.786L117.384 18.95L118.99 21.2044H126.136L120.961 13.9028L130.271 0.650391H128.026Z" fill="url(#paint1_linear_1999_51116)"/>
  <path d="M136.337 18.1238C136.404 18.0904 136.504 18.0737 136.638 18.0737C136.771 18.0737 136.888 18.1294 136.989 18.2409C137.089 18.3412 137.139 18.4582 137.139 18.5919C137.139 18.8371 137.033 19.0154 136.821 19.1268C136.398 19.372 135.941 19.5726 135.451 19.7286C134.971 19.8846 134.386 19.9627 133.695 19.9627C133.016 19.9627 132.38 19.8512 131.79 19.6283C131.21 19.4054 130.709 19.0823 130.285 18.6588C129.371 17.7672 128.915 16.5636 128.915 15.048C128.915 13.5435 129.371 12.34 130.285 11.4373C131.166 10.568 132.308 10.1334 133.712 10.1334C134.392 10.1334 134.971 10.217 135.451 10.3841C135.941 10.5513 136.314 10.7073 136.571 10.8522C136.827 10.9859 136.983 11.0974 137.039 11.1865C137.106 11.2645 137.139 11.3704 137.139 11.5041C137.139 11.6379 137.089 11.7605 136.989 11.8719C136.888 11.9722 136.771 12.0223 136.638 12.0223C136.515 12.0223 136.415 12.0056 136.337 11.9722C135.969 11.7716 135.59 11.6156 135.2 11.5041C134.821 11.3815 134.347 11.3203 133.779 11.3203C133.211 11.3203 132.692 11.4206 132.224 11.6212C131.767 11.8106 131.383 12.0725 131.071 12.4068C130.458 13.0755 130.157 13.9559 130.168 15.048C130.168 16.1402 130.469 17.0206 131.071 17.6892C131.74 18.4136 132.659 18.7758 133.829 18.7758C134.364 18.7758 134.821 18.7201 135.2 18.6086C135.59 18.486 135.969 18.3244 136.337 18.1238Z" fill="white"/>
  <path d="M141.853 12.7077C142.912 12.7077 143.764 13.042 144.411 13.7107C145.057 14.3905 145.369 15.2653 145.347 16.3352C145.347 17.4162 145.035 18.291 144.411 18.9597C143.764 19.6283 142.912 19.9627 141.853 19.9627C140.783 19.9627 139.936 19.6283 139.312 18.9597C138.666 18.291 138.343 17.4162 138.343 16.3352C138.343 15.243 138.666 14.3682 139.312 13.7107C139.936 13.042 140.783 12.7077 141.853 12.7077ZM140.315 18.2743C140.538 18.4637 140.783 18.6031 141.051 18.6922C141.329 18.7814 141.597 18.8259 141.853 18.8259C142.109 18.8259 142.371 18.7814 142.639 18.6922C142.906 18.6031 143.151 18.4582 143.374 18.2576C143.865 17.8118 144.11 17.1654 144.11 16.3185C144.11 15.4938 143.865 14.853 143.374 14.3961C142.962 14.0172 142.455 13.8333 141.853 13.8444C140.861 13.8444 140.176 14.2902 139.797 15.1818C139.663 15.5049 139.596 15.8894 139.596 16.3352C139.596 16.781 139.663 17.1654 139.797 17.4886C139.931 17.8118 140.103 18.0737 140.315 18.2743Z" fill="white"/>
  <path d="M150.579 13.8612C149.777 13.8612 149.024 14.3014 148.322 15.1818V19.2773C148.322 19.4444 148.261 19.5893 148.138 19.7119C148.016 19.8345 147.871 19.8958 147.704 19.8958C147.537 19.8958 147.392 19.8345 147.269 19.7119C147.147 19.5893 147.085 19.4444 147.085 19.2773V13.4098C147.085 13.2315 147.141 13.0811 147.252 12.9585C147.375 12.8359 147.526 12.7746 147.704 12.7746C147.871 12.7746 148.016 12.8359 148.138 12.9585C148.261 13.0699 148.322 13.2204 148.322 13.4098V13.9782C148.69 13.5993 149.008 13.3262 149.275 13.1591C149.788 12.8582 150.278 12.7077 150.746 12.7077C151.225 12.7077 151.615 12.7802 151.916 12.925C152.217 13.0588 152.474 13.2538 152.685 13.5101C153.109 14.0116 153.321 14.6357 153.321 15.3823V19.2773C153.321 19.4444 153.259 19.5893 153.137 19.7119C153.014 19.8345 152.869 19.8958 152.702 19.8958C152.535 19.8958 152.39 19.8345 152.267 19.7119C152.145 19.5893 152.084 19.4444 152.084 19.2773V15.5161C152.084 15.0034 151.967 14.6022 151.732 14.3125C151.498 14.0116 151.114 13.8612 150.579 13.8612Z" fill="white"/>
  <path d="M157.633 18.8092C158.648 18.8092 159.149 18.4916 159.138 17.8564C159.138 17.6558 159.038 17.4998 158.837 17.3883C158.636 17.2769 158.386 17.1822 158.085 17.1041C157.784 17.0261 157.455 16.9426 157.098 16.8534C156.742 16.7642 156.408 16.6417 156.095 16.4856C155.783 16.3296 155.527 16.129 155.327 15.8838C155.126 15.6275 155.026 15.3155 155.026 14.9477C155.026 14.58 155.081 14.2679 155.193 14.0116C155.304 13.7441 155.471 13.5157 155.694 13.3262C156.173 12.9139 156.842 12.7077 157.7 12.7077C158.391 12.7077 159.054 12.8192 159.69 13.042C159.812 13.0866 159.907 13.1646 159.974 13.2761C160.052 13.3764 160.091 13.4878 160.091 13.6104C160.091 13.7218 160.035 13.8333 159.924 13.9447C159.823 14.0562 159.723 14.1119 159.623 14.1119C159.522 14.1119 159.4 14.0896 159.255 14.045C158.82 13.9113 158.341 13.8444 157.817 13.8444C157.293 13.8444 156.898 13.9336 156.63 14.1119C156.363 14.2902 156.229 14.5131 156.229 14.7806C156.229 15.0369 156.33 15.2263 156.53 15.3489C156.731 15.4604 156.981 15.5607 157.282 15.6498C157.594 15.739 157.929 15.8225 158.285 15.9006C158.653 15.9786 158.987 16.0956 159.288 16.2516C160.002 16.6194 160.358 17.1822 160.358 17.94C160.358 18.5306 160.135 19.0042 159.69 19.3609C159.221 19.7621 158.558 19.9627 157.7 19.9627C156.786 19.9627 155.962 19.7565 155.226 19.3441C155.07 19.2327 154.987 19.099 154.975 18.943C154.975 18.7758 155.026 18.6365 155.126 18.525C155.237 18.4025 155.349 18.3412 155.46 18.3412C155.572 18.3412 155.717 18.3802 155.895 18.4582C156.419 18.6922 156.998 18.8092 157.633 18.8092Z" fill="white"/>
  <path d="M165.039 12.7077C166.097 12.7077 166.95 13.042 167.596 13.7107C168.243 14.3905 168.555 15.2653 168.533 16.3352C168.533 17.4162 168.22 18.291 167.596 18.9597C166.95 19.6283 166.097 19.9627 165.039 19.9627C163.969 19.9627 163.122 19.6283 162.498 18.9597C161.852 18.291 161.528 17.4162 161.528 16.3352C161.528 15.243 161.852 14.3682 162.498 13.7107C163.122 13.042 163.969 12.7077 165.039 12.7077ZM163.501 18.2743C163.724 18.4637 163.969 18.6031 164.236 18.6922C164.515 18.7814 164.782 18.8259 165.039 18.8259C165.295 18.8259 165.557 18.7814 165.824 18.6922C166.092 18.6031 166.337 18.4582 166.56 18.2576C167.05 17.8118 167.296 17.1654 167.296 16.3185C167.296 15.4938 167.05 14.853 166.56 14.3961C166.148 14.0172 165.641 13.8333 165.039 13.8444C164.047 13.8444 163.362 14.2902 162.983 15.1818C162.849 15.5049 162.782 15.8894 162.782 16.3352C162.782 16.781 162.849 17.1654 162.983 17.4886C163.116 17.8118 163.289 18.0737 163.501 18.2743Z" fill="white"/>
  <path d="M170.371 10.3841C170.371 10.2058 170.433 10.0609 170.555 9.94951C170.678 9.82692 170.828 9.76562 171.007 9.76562C171.185 9.76562 171.33 9.82692 171.441 9.94951C171.564 10.0609 171.625 10.2058 171.625 10.3841V19.2773C171.625 19.4444 171.564 19.5893 171.441 19.7119C171.33 19.8345 171.185 19.8958 171.007 19.8958C170.828 19.8958 170.678 19.8345 170.555 19.7119C170.433 19.5893 170.371 19.4444 170.371 19.2773V10.3841Z" fill="white"/>
  <path d="M174.718 16.7865C174.796 17.3995 175.03 17.8898 175.42 18.2576C175.821 18.6142 176.367 18.7925 177.058 18.7925C177.76 18.7925 178.356 18.6811 178.847 18.4582C179.003 18.3802 179.142 18.3412 179.264 18.3412C179.387 18.33 179.499 18.3746 179.599 18.4749C179.71 18.5752 179.766 18.6866 179.766 18.8092C179.766 19.0544 179.666 19.2271 179.465 19.3274C179.276 19.4277 179.103 19.5169 178.947 19.5949C178.791 19.6729 178.624 19.7398 178.445 19.7955C178.033 19.9069 177.554 19.9627 177.008 19.9627C175.882 19.9627 175.007 19.6506 174.383 19.0265C173.77 18.3913 173.464 17.4942 173.464 16.3352C173.464 15.3322 173.726 14.4964 174.25 13.8277C174.84 13.0811 175.67 12.7077 176.74 12.7077C177.766 12.7077 178.574 13.0532 179.164 13.7441C179.721 14.3905 180 15.1985 180 16.168C180 16.3352 179.939 16.4801 179.816 16.6026C179.705 16.7252 179.56 16.7865 179.381 16.7865H174.718ZM176.74 13.7609C175.927 13.7609 175.336 14.123 174.968 14.8474C174.835 15.1037 174.751 15.4102 174.718 15.7668H178.763C178.73 15.1205 178.49 14.6078 178.044 14.2289C177.688 13.9169 177.253 13.7609 176.74 13.7609Z" fill="white"/>
  <defs>
    <linearGradient id="paint0_linear_1999_51116" x1="103.1" y1="21.4988" x2="127.834" y2="-4.22109" gradientUnits="userSpaceOnUse">
      <stop stop-color="#875FFB"/>
      <stop offset="1" stop-color="white"/>
    </linearGradient>
    <linearGradient id="paint1_linear_1999_51116" x1="110.283" y1="28.3964" x2="135.017" y2="2.67658" gradientUnits="userSpaceOnUse">
      <stop stop-color="#875FFB"/>
      <stop offset="1" stop-color="white"/>
    </linearGradient>
  </defs>
</svg>