<svg xmlns="http://www.w3.org/2000/svg" width="140" height="34" viewBox="0 0 140 34" fill="none">
  <path d="M17.6341 8.98859C22.1574 10.8856 24.2898 16.1083 22.3917 20.6288C20.9619 24.0275 17.6554 26.0765 14.1785 26.0765C13.3907 26.0765 12.5967 25.9731 11.8119 25.7542L10.6286 28.5693C16.4326 30.3872 22.7901 27.5175 25.1902 21.8023C26.6198 18.4035 26.413 14.5943 24.5726 11.3051C23.5353 9.45371 22.0053 7.90939 20.1619 6.85755C16.8888 4.99098 13.0865 4.75082 9.67349 6.14619C6.72287 7.35003 4.41712 9.63307 3.18516 12.5697C1.32353 16.999 2.29085 22.0819 5.64909 25.5202L4.03689 27.0918C0.0489789 23.006 -1.10086 16.9626 1.11059 11.6972C2.57982 8.20427 5.31752 5.49258 8.82481 4.06074C12.3321 2.6289 16.1892 2.64714 19.6813 4.11242C23.1764 5.57771 25.8898 8.31674 27.3225 11.8219C28.7552 15.327 28.737 19.1817 27.2708 22.6717C25.8046 26.1646 23.0639 28.8764 19.5565 30.3082C17.8227 31.0165 16.0067 31.3691 14.1907 31.3691C12.8675 31.3691 11.5442 31.1806 10.2544 30.8067C9.36931 30.5483 8.52975 30.1531 7.74798 29.6698L8.0978 28.782L9.73737 24.8817C5.91981 22.6778 4.24069 17.911 5.98977 13.7431C6.89322 11.5939 8.57234 9.90971 10.7229 8.99771L11.6021 11.071C9.99898 11.7489 8.74268 13.0075 8.06738 14.6126C6.79892 17.6344 7.94267 21.0757 10.6195 22.7781L16.6242 8.53562M12.6971 23.6536C15.7877 24.368 19.0485 22.775 20.317 19.7563C21.5856 16.7375 20.4418 13.2933 17.7649 11.5908L12.6971 23.6566V23.6536Z" fill="white"/>
  <path d="M51.6748 9.07812H49.6484V22.2496H51.6748V9.07812Z" fill="white"/>
  <path d="M42.147 11.1016C40.2306 11.1016 38.5332 12.0592 37.5081 13.5214V11.1016H35.4609V24.5262H37.5081V19.9966C38.5332 21.4589 40.2306 22.4164 42.147 22.4164C45.268 22.4164 47.808 19.8781 47.808 16.759C47.808 13.64 45.268 11.1016 42.147 11.1016ZM42.147 20.3735C40.1545 20.3735 38.5302 18.7532 38.5302 16.759C38.5302 14.7648 40.1515 13.1444 42.147 13.1444C44.1425 13.1444 45.7638 14.7648 45.7638 16.759C45.7638 18.7532 44.1425 20.3735 42.147 20.3735Z" fill="white"/>
  <path d="M59.3608 22.5C61.2772 22.5 62.9746 21.5424 63.9997 20.0801L63.9997 22.5L66.0469 22.5L66.0469 11.1018L63.9997 11.1018L63.9997 13.6049C62.9746 12.1427 61.2772 11.1851 59.3608 11.1851C56.2398 11.1851 53.6998 13.7235 53.6998 16.8426C53.6998 19.9616 56.2398 22.5 59.3608 22.5ZM59.3608 13.228C61.3533 13.228 62.9776 14.8483 62.9776 16.8426C62.9776 18.8367 61.3563 20.4571 59.3608 20.4571C57.3654 20.4571 55.744 18.8367 55.744 16.8426C55.744 14.8483 57.3654 13.228 59.3608 13.228Z" fill="white"/>
  <path d="M98.1531 11.1016C95.0322 11.1016 92.4922 13.64 92.4922 16.759C92.4922 19.8781 95.0322 22.4164 98.1531 22.4164C101.274 22.4164 103.814 19.8781 103.814 16.759C103.814 13.64 101.274 11.1016 98.1531 11.1016ZM98.1531 20.3735C96.1606 20.3735 94.5363 18.7532 94.5363 16.759C94.5363 14.7648 96.1576 13.1444 98.1531 13.1444C100.149 13.1444 101.767 14.7648 101.767 16.759C101.767 18.7532 100.146 20.3735 98.1531 20.3735Z" fill="white"/>
  <path d="M120.887 11.1016C118.971 11.1016 117.273 12.0592 116.248 13.5214C115.223 12.0592 113.529 11.1016 111.609 11.1016C110.234 11.1016 108.975 11.594 107.992 12.4088V11.1016H105.945V22.4195H107.992V16.759C107.992 14.7679 109.614 13.1444 111.609 13.1444C113.605 13.1444 115.223 14.7648 115.223 16.759V22.4195H117.27V16.759C117.27 14.7679 118.892 13.1444 120.887 13.1444C122.883 13.1444 124.504 14.7648 124.504 16.759V22.4195H126.551V16.759C126.551 13.64 124.011 11.1016 120.89 11.1016H120.887Z" fill="white"/>
  <path d="M84.7017 11.1016C82.7853 11.1016 81.0879 12.0592 80.0628 13.5214V11.1016H78.0156V24.5262H80.0628V19.9966C81.0879 21.4589 82.7853 22.4164 84.7017 22.4164C87.8227 22.4164 90.3627 19.8781 90.3627 16.759C90.3627 13.64 87.8227 11.1016 84.7017 11.1016ZM84.7017 20.3735C82.7092 20.3735 81.0849 18.7532 81.0849 16.759C81.0849 14.7648 82.7062 13.1444 84.7017 13.1444C86.6971 13.1444 88.3185 14.7648 88.3185 16.759C88.3185 18.7532 86.6971 20.3735 84.7017 20.3735Z" fill="white"/>
  <path d="M134.341 20.3705C132.735 20.3705 131.369 19.3157 130.9 17.8656H139.892C139.962 17.5068 140.002 17.136 140.002 16.759C140.002 13.64 137.462 11.1016 134.341 11.1016C131.22 11.1016 128.68 13.64 128.68 16.759C128.68 19.8781 131.22 22.4164 134.341 22.4164C136.707 22.4164 138.739 20.9542 139.585 18.887H137.258C136.601 19.7869 135.539 20.3705 134.341 20.3705ZM134.341 13.1444C136.011 13.1444 137.413 14.2814 137.827 15.8196H130.852C131.265 14.2814 132.671 13.1444 134.341 13.1444Z" fill="white"/>
  <path fill-rule="evenodd" clip-rule="evenodd" d="M75.9883 22.4066V20.3603C72.969 20.1867 72.969 18.6402 72.969 16.7619V13.1309H75.9883V11.1045H72.969V9.07812H70.9224V11.1045H67.8828L67.8828 13.1309H70.9224V16.7619C70.9224 19.7527 71.5337 22.2096 75.9883 22.4066Z" fill="white"/>
</svg>