<svg xmlns="http://www.w3.org/2000/svg" width="100" height="22" viewBox="0 0 100 22" fill="none">
  <g clip-path="url(#clip0_1999_51232)">
    <path d="M53.9608 3.10645C52.9272 3.10645 52.0879 3.94579 52.0879 4.97243C52.0879 5.99906 52.9272 6.83841 53.9608 6.83841C54.9944 6.83841 55.8337 5.99906 55.8337 4.97243C55.8337 3.94579 54.9944 3.10645 53.9608 3.10645ZM53.9608 5.72853C53.5446 5.72853 53.2047 5.38863 53.2047 4.97243C53.2047 4.55622 53.5446 4.21632 53.9608 4.21632C54.377 4.21632 54.7169 4.55622 54.7169 4.97243C54.7169 5.38863 54.377 5.72853 53.9608 5.72853Z" fill="#9D9D9D"/>
    <path d="M13.7902 7.75391C11.6537 7.75391 9.9126 9.49503 9.9126 11.6246C9.9126 13.7542 11.6537 15.4953 13.7902 15.4953C15.9267 15.4953 17.6679 13.7542 17.6679 11.6246C17.6679 9.49503 15.9267 7.75391 13.7902 7.75391ZM13.7902 14.101C12.4237 14.101 11.3138 12.9911 11.3138 11.6246C11.3138 10.2581 12.4237 9.14819 13.7902 9.14819C15.1568 9.14819 16.2666 10.2581 16.2666 11.6246C16.2666 12.9911 15.1568 14.101 13.7902 14.101Z" fill="#9D9D9D"/>
    <path d="M45.297 10.591V7.75391H43.8958V15.5022H45.297V14.8016C45.297 11.687 47.8289 9.15513 50.9504 9.15513V7.75391C48.6405 7.75391 46.5872 8.87072 45.297 10.591Z" fill="#9D9D9D"/>
    <path d="M29.3494 7.75391C28.0383 7.75391 26.8729 8.4129 26.1723 9.41179C25.4717 8.4129 24.3133 7.75391 22.9953 7.75391C22.0519 7.75391 21.1918 8.09381 20.5189 8.64875V7.75391H19.1177V15.5022H20.5189V11.6246C20.5189 10.2581 21.6288 9.14819 22.9953 9.14819C24.3619 9.14819 25.4717 10.2581 25.4717 11.6246V15.5022H26.8729V11.6246C26.8729 10.2581 27.9828 9.14819 29.3494 9.14819C30.7159 9.14819 31.8258 10.2581 31.8258 11.6246V15.5022H33.227V11.6246C33.227 9.48809 31.4859 7.75391 29.3494 7.75391Z" fill="#9D9D9D"/>
    <path d="M63.2769 11.6314C63.2769 12.998 62.167 14.1079 60.8005 14.1079C59.434 14.1079 58.3241 12.998 58.3241 11.6314V7.76074H56.9229V11.6314C56.9229 13.768 58.664 15.5021 60.8005 15.5021C62.937 15.5021 64.6781 13.761 64.6781 11.6314V7.76074H63.2769V11.6314Z" fill="#9D9D9D"/>
    <path d="M76.3665 7.75391C75.0554 7.75391 73.89 8.4129 73.1894 9.41179C72.4888 8.4129 71.3234 7.75391 70.0124 7.75391C69.0759 7.75391 68.2089 8.09381 67.536 8.64875V7.75391H66.1348V15.5022H67.536V11.6246C67.536 10.2581 68.6459 9.14819 70.0124 9.14819C71.3789 9.14819 72.4888 10.2581 72.4888 11.6246V15.5022H73.89V11.6246C73.89 10.2581 74.9999 9.14819 76.3665 9.14819C77.733 9.14819 78.8429 10.2581 78.8429 11.6246V15.5022H80.2441V11.6246C80.2441 9.48809 78.503 7.75391 76.3665 7.75391Z" fill="#9D9D9D"/>
    <path d="M54.6407 7.75391H53.2395V15.5022H54.6407V7.75391Z" fill="#9D9D9D"/>
    <path d="M4.57825 7.75391C3.2672 7.75391 2.10183 8.4129 1.40122 9.41179V7.75391H0V16.9451H1.40122V13.8444C2.10183 14.8433 3.2672 15.5022 4.57825 15.5022C6.71476 15.5022 8.45588 13.7611 8.45588 11.6315C8.45588 9.50196 6.71476 7.76084 4.57825 7.76084V7.75391ZM4.57825 14.101C3.21171 14.101 2.10183 12.9911 2.10183 11.6246C2.10183 10.2581 3.21171 9.14819 4.57825 9.14819C5.94478 9.14819 7.05466 10.2581 7.05466 11.6246C7.05466 12.9911 5.94478 14.101 4.57825 14.101Z" fill="#9D9D9D"/>
    <path d="M38.5613 14.1009C37.4584 14.1009 36.5289 13.3795 36.2028 12.3875H42.3557C42.4043 12.1448 42.432 11.8881 42.432 11.6314C42.432 9.49493 40.6909 7.76074 38.5544 7.76074C36.4179 7.76074 34.6768 9.50186 34.6768 11.6314C34.6768 13.761 36.4179 15.5021 38.5544 15.5021C40.1776 15.5021 41.5649 14.5033 42.1476 13.0882H40.5522C40.1013 13.7055 39.3729 14.1009 38.5544 14.1009H38.5613ZM38.5613 9.15503C39.7059 9.15503 40.6632 9.93194 40.9476 10.9863H36.1751C36.4595 9.93194 37.4237 9.15503 38.5613 9.15503Z" fill="#9D9D9D"/>
    <path d="M81.9228 21.0858L89.1647 10.9859L86.1889 6.82387H86.1958H88.2699H88.2768L90.1983 9.5292L91.5232 7.66322L93.0979 5.43652H91.4261L90.2052 7.14296L88.9913 5.43652H83.4974L87.4652 10.9859L80.2302 21.0858H81.9228Z" fill="url(#paint0_linear_1999_51232)"/>
    <path d="M98.2935 0.914062L92.4042 9.31445L91.2249 10.9862L94.173 15.1482H94.1661H92.1406H92.1337L90.1983 12.4568L87.271 16.5356H88.9913L90.2052 14.8222L91.4261 16.5356H96.8576L92.9244 10.9862L99.9999 0.914062H98.2935Z" fill="url(#paint1_linear_1999_51232)"/>
  </g>
  <defs>
    <linearGradient id="paint0_linear_1999_51232" x1="79.3493" y1="16.7573" x2="98.1478" y2="-2.79045" gradientUnits="userSpaceOnUse">
      <stop stop-color="#9D9D9D"/>
      <stop offset="1" stop-color="#434343"/>
    </linearGradient>
    <linearGradient id="paint1_linear_1999_51232" x1="84.8085" y1="22.0017" x2="103.607" y2="2.45401" gradientUnits="userSpaceOnUse">
      <stop stop-color="#9D9D9D"/>
      <stop offset="1" stop-color="#434343"/>
    </linearGradient>
    <clipPath id="clip0_1999_51232">
      <rect width="100" height="20.172" fill="white" transform="translate(0 0.914062)"/>
    </clipPath>
  </defs>
</svg>