<svg xmlns="http://www.w3.org/2000/svg" width="244" height="36" viewBox="0 0 244 36" fill="none">
  <path fill-rule="evenodd" clip-rule="evenodd" d="M33.0547 0H37.7765V30.692H33.0547V0ZM4.77025 10.3575C7.15903 6.95013 11.1143 4.71875 15.5797 4.71875C22.8523 4.71875 28.7709 10.6337 28.7709 17.9016C28.7709 25.1697 22.8523 31.0845 15.5797 31.0845C11.1143 31.0845 7.15903 28.8532 4.77025 25.4459V36.0007H0V4.71875H4.77025V10.3575ZM7.15195 17.9016C7.15195 22.5486 10.937 26.3242 15.5797 26.3242C20.2296 26.3242 24.0075 22.5486 24.0075 17.9016C24.0075 13.2548 20.2296 9.47899 15.5797 9.47899C10.9299 9.47899 7.15195 13.2548 7.15195 17.9016ZM55.6859 31.2812C60.1513 31.2812 64.1066 29.0499 66.4954 25.6425V31.2812H71.2656V4.72119H66.4954L66.4954 10.5541C64.1066 7.1468 60.1513 4.91549 55.6859 4.91549C48.4133 4.91549 42.4947 10.8303 42.4947 18.0984C42.4947 25.3663 48.4133 31.2812 55.6859 31.2812ZM55.6859 9.67582C60.3287 9.67582 64.1137 13.4514 64.1137 18.0984C64.1137 22.7452 60.3357 26.521 55.6859 26.521C51.0361 26.521 47.2581 22.7452 47.2581 18.0984C47.2581 13.4514 51.0361 9.67582 55.6859 9.67582ZM132.898 17.9016C132.898 10.6337 138.817 4.71875 146.089 4.71875C153.362 4.71875 159.281 10.6337 159.281 17.9016C159.281 25.1697 153.362 31.0845 146.089 31.0845C138.817 31.0845 132.898 25.1697 132.898 17.9016ZM137.662 17.9016C137.662 22.5486 141.447 26.3242 146.089 26.3242C150.732 26.3242 154.51 22.5486 154.51 17.9016C154.51 13.2548 150.739 9.47899 146.089 9.47899C141.44 9.47899 137.662 13.2548 137.662 17.9016ZM199.051 4.71875C194.586 4.71875 190.631 6.95013 188.242 10.3575C185.853 6.95013 181.905 4.71875 177.432 4.71875C174.229 4.71875 171.294 5.86632 169.005 7.76477V4.71875H164.234V31.0916H169.005V17.9016C169.005 13.2619 172.783 9.47899 177.432 9.47899C182.082 9.47899 185.853 13.2548 185.853 17.9016V31.0916H190.624V17.9016C190.624 13.2619 194.402 9.47899 199.051 9.47899C203.701 9.47899 207.479 13.2548 207.479 17.9016V31.0916H212.249V17.9016C212.249 10.6337 206.331 4.71875 199.058 4.71875H199.051ZM103.926 10.3575C106.315 6.95013 110.271 4.71875 114.736 4.71875C122.009 4.71875 127.927 10.6337 127.927 17.9016C127.927 25.1697 122.009 31.0845 114.736 31.0845C110.271 31.0845 106.315 28.8532 103.926 25.4459V36.0007H99.1562V4.71875H103.926V10.3575ZM106.308 17.9016C106.308 22.5486 110.093 26.3242 114.736 26.3242C119.386 26.3242 123.164 22.5486 123.164 17.9016C123.164 13.2548 119.386 9.47899 114.736 9.47899C110.086 9.47899 106.308 13.2548 106.308 17.9016ZM230.402 26.3171C226.66 26.3171 223.477 23.8591 222.385 20.4802H243.338C243.501 19.6442 243.593 18.7801 243.593 17.9016C243.593 10.6337 237.674 4.71875 230.402 4.71875C223.13 4.71875 217.211 10.6337 217.211 17.9016C217.211 25.1697 223.13 31.0845 230.402 31.0845C235.917 31.0845 240.652 27.6772 242.622 22.8602H237.2C235.669 24.9572 233.195 26.3171 230.402 26.3171ZM230.402 9.47899C234.293 9.47899 237.561 12.1284 238.525 15.7128H222.272C223.236 12.1284 226.511 9.47899 230.402 9.47899ZM94.4468 26.2896V31.058C84.0653 30.5993 82.6406 24.8742 82.6406 17.9047V9.4406H75.5579V4.71875L82.6406 4.71875V0H87.4097V4.71875L94.4453 4.71875V9.4406H87.4097V17.9047C87.4097 22.2817 87.4097 25.8856 94.4468 26.2896Z" fill="url(#paint0_linear_120_70126)"/>
  <defs>
    <linearGradient id="paint0_linear_120_70126" x1="243.593" y1="36.0007" x2="48.8061" y2="-81.1501" gradientUnits="userSpaceOnUse">
      <stop stop-color="#B224EF"/>
      <stop offset="1" stop-color="#7579FF"/>
    </linearGradient>
  </defs>
</svg>